Karla-ExtraBoldItalic.ufo
<glyph name="exclam" format="2">
  <advance width="562"/>
  <unicode hex="0021"/>
  <outline>
    <contour>
      <point x="210" y="541" type="line"/>
      <point x="472" y="541" type="line"/>
      <point x="589" y="1417" type="line"/>
      <point x="256" y="1417" type="line"/>
    </contour>
    <contour>
      <point x="288" y="-18" type="curve" smooth="yes"/>
      <point x="411" y="-18"/>
      <point x="502" y="80"/>
      <point x="513" y="195" type="curve" smooth="yes"/>
      <point x="525" y="312"/>
      <point x="449" y="406"/>
      <point x="328" y="406" type="curve" smooth="yes"/>
      <point x="210" y="406"/>
      <point x="121" y="316"/>
      <point x="110" y="195" type="curve" smooth="yes"/>
      <point x="99" y="75"/>
      <point x="169" y="-18"/>
    </contour>
  </outline>
</glyph>
<glyph name="quotedbl" format="2">
  <advance width="858"/>
  <unicode hex="0022"/>
  <outline>
    <contour>
      <point x="196" y="1384" type="line"/>
      <point x="182" y="865" type="line"/>
      <point x="396" y="865" type="line"/>
      <point x="484" y="1384" type="line"/>
    </contour>
    <contour>
      <point x="630" y="1384" type="line"/>
      <point x="616" y="865" type="line"/>
      <point x="830" y="865" type="line"/>
      <point x="918" y="1384" type="line"/>
    </contour>
  </outline>
</glyph>
<glyph name="numbersign" format="2">
  <advance width="1330"/>
  <unicode hex="0023"/>
  <outline>
    <contour>
      <point x="241" y="71" type="line"/>
      <point x="522" y="71" type="line"/>
      <point x="570" y="314" type="line"/>
      <point x="775" y="314" type="line"/>
      <point x="728" y="71" type="line"/>
      <point x="1007" y="71" type="line"/>
      <point x="1055" y="314" type="line"/>
      <point x="1208" y="314" type="line"/>
      <point x="1250" y="523" type="line"/>
      <point x="1092" y="523" type="line"/>
      <point x="1143" y="791" type="line"/>
      <point x="1292" y="791" type="line"/>
      <point x="1342" y="1007" type="line"/>
      <point x="1185" y="1007" type="line"/>
      <point x="1232" y="1243" type="line"/>
      <point x="951" y="1243" type="line"/>
      <point x="903" y="1007" type="line"/>
      <point x="698" y="1007" type="line"/>
      <point x="745" y="1243" type="line"/>
      <point x="466" y="1243" type="line"/>
      <point x="418" y="1007" type="line"/>
      <point x="272" y="1007" type="line"/>
      <point x="230" y="791" type="line"/>
      <point x="376" y="791" type="line"/>
      <point x="326" y="523" type="line"/>
      <point x="177" y="523" type="line"/>
      <point x="144" y="314" type="line"/>
      <point x="288" y="314" type="line"/>
    </contour>
    <contour>
      <point x="605" y="523" type="line"/>
      <point x="656" y="791" type="line"/>
      <point x="861" y="791" type="line"/>
      <point x="811" y="523" type="line"/>
    </contour>
  </outline>
</glyph>
<glyph name="dollar" format="2">
  <advance width="1362"/>
  <unicode hex="0024"/>
  <outline>
    <contour>
      <point x="564" y="-226" type="line"/>
      <point x="760" y="-226" type="line"/>
      <point x="778" y="-33" type="line"/>
      <point x="1113" y="-11"/>
      <point x="1273" y="175"/>
      <point x="1291" y="365" type="curve" smooth="yes"/>
      <point x="1307" y="537"/>
      <point x="1238" y="635"/>
      <point x="1050" y="717" type="curve" smooth="yes"/>
      <point x="857" y="799" type="line"/>
      <point x="888" y="1083" type="line"/>
      <point x="960" y="1048"/>
      <point x="1003" y="982"/>
      <point x="1004" y="926" type="curve"/>
      <point x="1298" y="926" type="line"/>
      <point x="1279" y="1174"/>
      <point x="1168" y="1335"/>
      <point x="911" y="1375" type="curve"/>
      <point x="930" y="1532" type="line"/>
      <point x="730" y="1532" type="line"/>
      <point x="711" y="1377" type="line"/>
      <point x="412" y="1355"/>
      <point x="236" y="1207"/>
      <point x="211" y="996" type="curve" smooth="yes"/>
      <point x="198" y="803"/>
      <point x="313" y="699"/>
      <point x="512" y="616" type="curve" smooth="yes"/>
      <point x="638" y="567" type="line"/>
      <point x="615" y="280" type="line"/>
      <point x="484" y="300"/>
      <point x="436" y="348"/>
      <point x="450" y="439" type="curve"/>
      <point x="149" y="439" type="line"/>
      <point x="118" y="145"/>
      <point x="318" y="6"/>
      <point x="583" y="-27" type="curve"/>
    </contour>
    <contour>
      <point x="810" y="274" type="curve"/>
      <point x="830" y="516" type="line"/>
      <point x="876" y="492" type="line" smooth="yes"/>
      <point x="933" y="462"/>
      <point x="960" y="421"/>
      <point x="952" y="374" type="curve" smooth="yes"/>
      <point x="949" y="320"/>
      <point x="911" y="283"/>
    </contour>
    <contour>
      <point x="666" y="856" type="line"/>
      <point x="614" y="890" type="line" smooth="yes"/>
      <point x="560" y="914"/>
      <point x="536" y="947"/>
      <point x="539" y="986" type="curve" smooth="yes"/>
      <point x="547" y="1040"/>
      <point x="592" y="1078"/>
      <point x="688" y="1096" type="curve"/>
    </contour>
  </outline>
</glyph>
<glyph name="ampersand" format="2">
  <advance width="1842"/>
  <unicode hex="0026"/>
  <outline>
    <contour>
      <point x="695" y="-35" type="curve" smooth="yes"/>
      <point x="834" y="-35"/>
      <point x="972" y="13"/>
      <point x="1098" y="103" type="curve"/>
      <point x="1150" y="21"/>
      <point x="1299" y="-35"/>
      <point x="1406" y="-35" type="curve" smooth="yes"/>
      <point x="1620" y="-35"/>
      <point x="1742" y="136"/>
      <point x="1766" y="386" type="curve"/>
      <point x="1504" y="386" type="line"/>
      <point x="1495" y="298"/>
      <point x="1450" y="257"/>
      <point x="1397" y="257" type="curve" smooth="yes"/>
      <point x="1343" y="257"/>
      <point x="1309" y="281"/>
      <point x="1276" y="318" type="curve" smooth="yes"/>
      <point x="1298" y="296" type="line"/>
      <point x="1380" y="402"/>
      <point x="1458" y="526"/>
      <point x="1524" y="674" type="curve"/>
      <point x="1337" y="795" type="line"/>
      <point x="1276" y="672"/>
      <point x="1202" y="572"/>
      <point x="1131" y="487" type="curve"/>
      <point x="989" y="655" type="line"/>
      <point x="1187" y="724"/>
      <point x="1311" y="849"/>
      <point x="1330" y="1034" type="curve" smooth="yes"/>
      <point x="1350" y="1216"/>
      <point x="1208" y="1371"/>
      <point x="914" y="1371" type="curve" smooth="yes"/>
      <point x="621" y="1371"/>
      <point x="453" y="1213"/>
      <point x="437" y="1028" type="curve" smooth="yes"/>
      <point x="427" y="922"/>
      <point x="478" y="818"/>
      <point x="527" y="751" type="curve" smooth="yes"/>
      <point x="556" y="717" type="line"/>
      <point x="358" y="681"/>
      <point x="223" y="576"/>
      <point x="210" y="396" type="curve" smooth="yes"/>
      <point x="185" y="149"/>
      <point x="416" y="-35"/>
    </contour>
    <contour>
      <point x="724" y="268" type="curve" smooth="yes"/>
      <point x="604" y="268"/>
      <point x="532" y="334"/>
      <point x="542" y="420" type="curve" smooth="yes"/>
      <point x="543" y="482"/>
      <point x="588" y="534"/>
      <point x="701" y="556" type="curve"/>
      <point x="920" y="303" type="line"/>
      <point x="855" y="280"/>
      <point x="786" y="268"/>
    </contour>
    <contour>
      <point x="845" y="823" type="curve"/>
      <point x="816" y="855" type="line" smooth="yes"/>
      <point x="779" y="894"/>
      <point x="750" y="932"/>
      <point x="758" y="982" type="curve" smooth="yes"/>
      <point x="766" y="1040"/>
      <point x="816" y="1083"/>
      <point x="889" y="1083" type="curve" smooth="yes"/>
      <point x="959" y="1083"/>
      <point x="999" y="1041"/>
      <point x="996" y="980" type="curve" smooth="yes"/>
      <point x="984" y="894"/>
      <point x="910" y="844"/>
    </contour>
  </outline>
</glyph>
<glyph name="quotesingle" format="2">
  <advance width="420"/>
  <unicode hex="0027"/>
  <outline>
    <contour>
      <point x="186" y="835" type="line"/>
      <point x="400" y="835" type="line"/>
      <point x="488" y="1354" type="line"/>
      <point x="199" y="1354" type="line"/>
    </contour>
  </outline>
</glyph>
<glyph name="parenleft" format="2">
  <advance width="816"/>
  <unicode hex="0028"/>
  <outline>
    <contour>
      <point x="681" y="1570" type="line"/>
      <point x="368" y="1302"/>
      <point x="227" y="1010"/>
      <point x="192" y="662" type="curve" smooth="yes"/>
      <point x="160" y="317"/>
      <point x="245" y="28"/>
      <point x="506" y="-248" type="curve"/>
      <point x="739" y="-62" type="line"/>
      <point x="555" y="185"/>
      <point x="475" y="388"/>
      <point x="499" y="662" type="curve" smooth="yes"/>
      <point x="525" y="939"/>
      <point x="648" y="1144"/>
      <point x="874" y="1396" type="curve"/>
    </contour>
  </outline>
</glyph>
<glyph name="parenright" format="2">
  <advance width="816"/>
  <unicode hex="0029"/>
  <outline>
    <contour>
      <point x="255" y="-248" type="line"/>
      <point x="566" y="28"/>
      <point x="714" y="317"/>
      <point x="746" y="662" type="curve" smooth="yes"/>
      <point x="776" y="1010"/>
      <point x="687" y="1302"/>
      <point x="431" y="1570" type="curve"/>
      <point x="198" y="1396" type="line"/>
      <point x="382" y="1144"/>
      <point x="466" y="939"/>
      <point x="438" y="662" type="curve"/>
      <point x="416" y="388"/>
      <point x="293" y="185"/>
      <point x="58" y="-62" type="curve"/>
    </contour>
  </outline>
</glyph>
<glyph name="asterisk" format="2">
  <advance width="729"/>
  <unicode hex="002A"/>
  <outline>
    <contour>
      <point x="324" y="811" type="line"/>
      <point x="470" y="1006" type="line"/>
      <point x="572" y="811" type="line"/>
      <point x="720" y="942" type="line"/>
      <point x="589" y="1089" type="line"/>
      <point x="779" y="1156" type="line"/>
      <point x="725" y="1339" type="line"/>
      <point x="554" y="1240" type="line"/>
      <point x="600" y="1456" type="line"/>
      <point x="418" y="1456" type="line"/>
      <point x="422" y="1240" type="line"/>
      <point x="264" y="1330" type="line"/>
      <point x="184" y="1152" type="line"/>
      <point x="364" y="1085" type="line"/>
      <point x="206" y="942" type="line"/>
    </contour>
  </outline>
</glyph>
<glyph name="plus" format="2">
  <advance width="1018"/>
  <unicode hex="002B"/>
  <outline>
    <contour>
      <point x="454" y="982" type="line"/>
      <point x="421" y="637" type="line"/>
      <point x="93" y="637" type="line"/>
      <point x="63" y="345" type="line"/>
      <point x="394" y="345" type="line"/>
      <point x="360" y="0" type="line"/>
      <point x="656" y="0" type="line"/>
      <point x="690" y="345" type="line"/>
      <point x="1013" y="345" type="line"/>
      <point x="1043" y="637" type="line"/>
      <point x="717" y="637" type="line"/>
      <point x="748" y="982" type="line"/>
    </contour>
  </outline>
</glyph>
<glyph name="comma" format="2">
  <advance width="550"/>
  <unicode hex="002C"/>
  <outline>
    <contour>
      <point x="217" y="-337" type="line"/>
      <point x="376" y="-253"/>
      <point x="498" y="-84"/>
      <point x="516" y="82" type="curve" smooth="yes"/>
      <point x="532" y="229"/>
      <point x="463" y="366"/>
      <point x="316" y="366" type="curve" smooth="yes"/>
      <point x="200" y="366"/>
      <point x="105" y="279"/>
      <point x="96" y="171" type="curve" smooth="yes"/>
      <point x="88" y="76"/>
      <point x="152" y="14"/>
      <point x="228" y="-10" type="curve"/>
      <point x="197" y="-94"/>
      <point x="106" y="-159"/>
      <point x="12" y="-213" type="curve"/>
    </contour>
  </outline>
</glyph>
<glyph name="hyphen" format="2">
  <advance width="725"/>
  <unicode hex="002D"/>
  <outline>
    <contour>
      <point x="147" y="483" type="line"/>
      <point x="672" y="483" type="line"/>
      <point x="699" y="773" type="line"/>
      <point x="174" y="773" type="line"/>
    </contour>
  </outline>
</glyph>
<glyph name="period" format="2">
  <advance width="463"/>
  <unicode hex="002E"/>
  <outline>
    <contour>
      <point x="227" y="-18" type="curve" smooth="yes"/>
      <point x="339" y="-18"/>
      <point x="440" y="63"/>
      <point x="450" y="194" type="curve" smooth="yes"/>
      <point x="459" y="318"/>
      <point x="380" y="406"/>
      <point x="267" y="406" type="curve" smooth="yes"/>
      <point x="150" y="406"/>
      <point x="59" y="312"/>
      <point x="46" y="194" type="curve" smooth="yes"/>
      <point x="32" y="69"/>
      <point x="111" y="-18"/>
    </contour>
  </outline>
</glyph>
<glyph name="slash" format="2">
  <advance width="936"/>
  <unicode hex="002F"/>
  <outline>
    <contour>
      <point x="70" y="-181" type="line"/>
      <point x="375" y="-181" type="line"/>
      <point x="1012" y="1523" type="line"/>
      <point x="705" y="1523" type="line"/>
    </contour>
  </outline>
</glyph>
<glyph name="zero" format="2">
  <advance width="1224"/>
  <unicode hex="0030"/>
  <outline>
    <contour>
      <point x="609" y="-35" type="curve" smooth="yes"/>
      <point x="917" y="-35"/>
      <point x="1161" y="190"/>
      <point x="1210" y="670" type="curve" smooth="yes"/>
      <point x="1258" y="1157"/>
      <point x="1050" y="1377"/>
      <point x="740" y="1377" type="curve" smooth="yes"/>
      <point x="428" y="1377"/>
      <point x="186" y="1157"/>
      <point x="139" y="670" type="curve"/>
      <point x="92" y="190"/>
      <point x="295" y="-35"/>
    </contour>
    <contour>
      <point x="634" y="272" type="curve" smooth="yes"/>
      <point x="495" y="272"/>
      <point x="420" y="410"/>
      <point x="448" y="670" type="curve" smooth="yes"/>
      <point x="466" y="936"/>
      <point x="573" y="1079"/>
      <point x="715" y="1079" type="curve" smooth="yes"/>
      <point x="849" y="1079"/>
      <point x="926" y="936"/>
      <point x="903" y="670" type="curve" smooth="yes"/>
      <point x="880" y="410"/>
      <point x="771" y="272"/>
    </contour>
  </outline>
</glyph>
<glyph name="one" format="2">
  <advance width="697"/>
  <unicode hex="0031"/>
  <outline>
    <contour>
      <point x="458" y="1359" type="line"/>
      <point x="352" y="1288"/>
      <point x="268" y="1263"/>
      <point x="178" y="1248" type="curve"/>
      <point x="151" y="938" type="line"/>
      <point x="211" y="933"/>
      <point x="268" y="939"/>
      <point x="334" y="964" type="curve"/>
      <point x="243" y="0" type="line"/>
      <point x="546" y="0" type="line"/>
      <point x="673" y="1359" type="line"/>
    </contour>
  </outline>
</glyph>
<glyph name="two" format="2">
  <advance width="1141"/>
  <unicode hex="0032"/>
  <outline>
    <contour>
      <point x="426" y="312" type="line"/>
      <point x="427" y="354"/>
      <point x="449" y="374"/>
      <point x="521" y="399" type="curve" smooth="yes"/>
      <point x="794" y="506" type="line" smooth="yes"/>
      <point x="1045" y="613"/>
      <point x="1153" y="744"/>
      <point x="1168" y="949" type="curve" smooth="yes"/>
      <point x="1197" y="1214"/>
      <point x="996" y="1377"/>
      <point x="741" y="1377" type="curve" smooth="yes"/>
      <point x="477" y="1377"/>
      <point x="230" y="1237"/>
      <point x="202" y="914" type="curve"/>
      <point x="534" y="914" type="line"/>
      <point x="560" y="1028"/>
      <point x="633" y="1092"/>
      <point x="720" y="1092" type="curve" smooth="yes"/>
      <point x="818" y="1092"/>
      <point x="857" y="1028"/>
      <point x="852" y="962" type="curve"/>
      <point x="846" y="888"/>
      <point x="804" y="836"/>
      <point x="708" y="795" type="curve" smooth="yes"/>
      <point x="437" y="691" type="line" smooth="yes"/>
      <point x="227" y="608"/>
      <point x="148" y="483"/>
      <point x="123" y="265" type="curve" smooth="yes"/>
      <point x="98" y="0" type="line"/>
      <point x="1077" y="0" type="line"/>
      <point x="1106" y="300" type="line"/>
      <point x="424" y="300" type="line"/>
    </contour>
  </outline>
</glyph>
<glyph name="three" format="2">
  <advance width="1187"/>
  <unicode hex="0033"/>
  <outline>
    <contour>
      <point x="593" y="-35" type="curve" smooth="yes"/>
      <point x="896" y="-35"/>
      <point x="1134" y="141"/>
      <point x="1156" y="386" type="curve"/>
      <point x="1170" y="534"/>
      <point x="1090" y="643"/>
      <point x="957" y="706" type="curve"/>
      <point x="1086" y="752"/>
      <point x="1160" y="861"/>
      <point x="1170" y="993" type="curve"/>
      <point x="1192" y="1229"/>
      <point x="1003" y="1377"/>
      <point x="713" y="1377" type="curve" smooth="yes"/>
      <point x="427" y="1377"/>
      <point x="213" y="1239"/>
      <point x="163" y="934" type="curve"/>
      <point x="478" y="934" type="line"/>
      <point x="507" y="1035"/>
      <point x="598" y="1079"/>
      <point x="701" y="1079" type="curve" smooth="yes"/>
      <point x="818" y="1079"/>
      <point x="854" y="1024"/>
      <point x="851" y="951" type="curve" smooth="yes"/>
      <point x="843" y="863"/>
      <point x="784" y="807"/>
      <point x="692" y="807" type="curve" smooth="yes"/>
      <point x="502" y="807" type="line"/>
      <point x="480" y="549" type="line"/>
      <point x="667" y="549" type="line" smooth="yes"/>
      <point x="783" y="549"/>
      <point x="844" y="512"/>
      <point x="836" y="419" type="curve" smooth="yes"/>
      <point x="827" y="330"/>
      <point x="743" y="272"/>
      <point x="618" y="272" type="curve" smooth="yes"/>
      <point x="488" y="272"/>
      <point x="427" y="342"/>
      <point x="423" y="434" type="curve"/>
      <point x="99" y="434" type="line"/>
      <point x="73" y="127"/>
      <point x="326" y="-35"/>
    </contour>
  </outline>
</glyph>
<glyph name="four" format="2">
  <advance width="1147"/>
  <unicode hex="0034"/>
  <outline>
    <contour>
      <point x="632" y="0" type="line"/>
      <point x="928" y="0" type="line"/>
      <point x="956" y="269" type="line"/>
      <point x="1166" y="269" type="line"/>
      <point x="1188" y="550" type="line"/>
      <point x="979" y="550" type="line"/>
      <point x="1053" y="1355" type="line"/>
      <point x="760" y="1355" type="line"/>
      <point x="77" y="514" type="line"/>
      <point x="56" y="269" type="line"/>
      <point x="658" y="269" type="line"/>
    </contour>
    <contour>
      <point x="428" y="514" type="line"/>
      <point x="734" y="885" type="line"/>
      <point x="700" y="514" type="line"/>
    </contour>
  </outline>
</glyph>
<glyph name="five" format="2">
  <advance width="1086"/>
  <unicode hex="0035"/>
  <outline>
    <contour>
      <point x="559" y="-35" type="curve" smooth="yes"/>
      <point x="849" y="-35"/>
      <point x="1071" y="188"/>
      <point x="1090" y="461" type="curve" smooth="yes"/>
      <point x="1117" y="707"/>
      <point x="968" y="854"/>
      <point x="735" y="854" type="curve" smooth="yes"/>
      <point x="683" y="854"/>
      <point x="600" y="846"/>
      <point x="538" y="836" type="curve"/>
      <point x="577" y="1044" type="line"/>
      <point x="1076" y="1044" type="line"/>
      <point x="1103" y="1346" type="line"/>
      <point x="317" y="1346" type="line"/>
      <point x="191" y="611" type="line"/>
      <point x="609" y="611" type="line" smooth="yes"/>
      <point x="743" y="611"/>
      <point x="798" y="560"/>
      <point x="788" y="461" type="curve" smooth="yes"/>
      <point x="777" y="354"/>
      <point x="684" y="272"/>
      <point x="586" y="272" type="curve" smooth="yes"/>
      <point x="486" y="272"/>
      <point x="423" y="319"/>
      <point x="433" y="434" type="curve"/>
      <point x="124" y="434" type="line"/>
      <point x="106" y="139"/>
      <point x="261" y="-35"/>
    </contour>
  </outline>
</glyph>
<glyph name="seven" format="2">
  <advance width="956"/>
  <unicode hex="0037"/>
  <outline>
    <contour>
      <point x="51" y="0" type="line"/>
      <point x="450" y="0" type="line"/>
      <point x="1019" y="1024" type="line"/>
      <point x="1051" y="1346" type="line"/>
      <point x="171" y="1346" type="line"/>
      <point x="139" y="1027" type="line"/>
      <point x="668" y="1027" type="line"/>
    </contour>
  </outline>
</glyph>
<glyph name="nine" format="2">
  <advance width="1160"/>
  <unicode hex="0039"/>
  <outline>
    <contour>
      <point x="556" y="-35" type="curve" smooth="yes"/>
      <point x="903" y="-35"/>
      <point x="1108" y="254"/>
      <point x="1152" y="692" type="curve" smooth="yes"/>
      <point x="1188" y="1095"/>
      <point x="966" y="1377"/>
      <point x="662" y="1377" type="curve" smooth="yes"/>
      <point x="387" y="1377"/>
      <point x="180" y="1201"/>
      <point x="154" y="934" type="curve" smooth="yes"/>
      <point x="132" y="682"/>
      <point x="267" y="504"/>
      <point x="498" y="504" type="curve" smooth="yes"/>
      <point x="646" y="504"/>
      <point x="792" y="566"/>
      <point x="863" y="791" type="curve"/>
      <point x="865" y="764"/>
      <point x="863" y="735"/>
      <point x="859" y="709" type="curve" smooth="yes"/>
      <point x="834" y="448"/>
      <point x="752" y="272"/>
      <point x="575" y="272" type="curve" smooth="yes"/>
      <point x="499" y="272"/>
      <point x="432" y="317"/>
      <point x="436" y="398" type="curve"/>
      <point x="127" y="398" type="line"/>
      <point x="101" y="135"/>
      <point x="300" y="-35"/>
    </contour>
    <contour>
      <point x="608" y="766" type="curve" smooth="yes"/>
      <point x="523" y="766"/>
      <point x="448" y="820"/>
      <point x="460" y="921" type="curve" smooth="yes"/>
      <point x="470" y="1014"/>
      <point x="553" y="1077"/>
      <point x="634" y="1077" type="curve" smooth="yes"/>
      <point x="718" y="1077"/>
      <point x="796" y="1014"/>
      <point x="787" y="921" type="curve" smooth="yes"/>
      <point x="775" y="821"/>
      <point x="687" y="766"/>
    </contour>
  </outline>
</glyph>
<glyph name="colon" format="2">
  <advance width="570"/>
  <unicode hex="003A"/>
  <outline>
    <contour>
      <point x="336" y="526" type="curve" smooth="yes"/>
      <point x="452" y="526"/>
      <point x="551" y="611"/>
      <point x="560" y="739" type="curve" smooth="yes"/>
      <point x="568" y="862"/>
      <point x="489" y="950"/>
      <point x="377" y="950" type="curve" smooth="yes"/>
      <point x="270" y="950"/>
      <point x="171" y="871"/>
      <point x="159" y="739" type="curve" smooth="yes"/>
      <point x="149" y="621"/>
      <point x="214" y="526"/>
    </contour>
    <contour>
      <point x="273" y="-20" type="curve" smooth="yes"/>
      <point x="391" y="-20"/>
      <point x="489" y="68"/>
      <point x="498" y="193" type="curve" smooth="yes"/>
      <point x="507" y="310"/>
      <point x="431" y="404"/>
      <point x="314" y="404" type="curve" smooth="yes"/>
      <point x="207" y="404"/>
      <point x="108" y="324"/>
      <point x="96" y="193" type="curve" smooth="yes"/>
      <point x="86" y="83"/>
      <point x="146" y="-20"/>
    </contour>
  </outline>
</glyph>
<glyph name="semicolon" format="2">
  <advance width="652"/>
  <unicode hex="003B"/>
  <outline>
    <contour>
      <point x="279" y="-337" type="line"/>
      <point x="434" y="-255"/>
      <point x="558" y="-90"/>
      <point x="576" y="82" type="curve" smooth="yes"/>
      <point x="592" y="236"/>
      <point x="520" y="366"/>
      <point x="377" y="366" type="curve" smooth="yes"/>
      <point x="261" y="366"/>
      <point x="166" y="279"/>
      <point x="157" y="171" type="curve" smooth="yes"/>
      <point x="149" y="74"/>
      <point x="214" y="14"/>
      <point x="289" y="-10" type="curve"/>
      <point x="258" y="-94"/>
      <point x="167" y="-159"/>
      <point x="73" y="-213" type="curve"/>
    </contour>
    <contour>
      <point x="413" y="552" type="curve" smooth="yes"/>
      <point x="531" y="552"/>
      <point x="628" y="641"/>
      <point x="637" y="766" type="curve" smooth="yes"/>
      <point x="646" y="887"/>
      <point x="567" y="977"/>
      <point x="453" y="977" type="curve" smooth="yes"/>
      <point x="341" y="977"/>
      <point x="248" y="891"/>
      <point x="234" y="766" type="curve" smooth="yes"/>
      <point x="220" y="640"/>
      <point x="296" y="552"/>
    </contour>
  </outline>
</glyph>
<glyph name="less" format="2">
  <advance width="1007"/>
  <unicode hex="003C"/>
  <outline>
    <contour>
      <point x="858" y="1342" type="line"/>
      <point x="174" y="838" type="line"/>
      <point x="144" y="533" type="line"/>
      <point x="732" y="27" type="line"/>
      <point x="954" y="277" type="line"/>
      <point x="466" y="685" type="line"/>
      <point x="1032" y="1090" type="line"/>
    </contour>
  </outline>
</glyph>
<glyph name="equal" format="2">
  <advance width="948"/>
  <unicode hex="003D"/>
  <outline>
    <contour>
      <point x="180" y="427" type="line"/>
      <point x="151" y="137" type="line"/>
      <point x="815" y="137" type="line"/>
      <point x="845" y="427" type="line"/>
    </contour>
    <contour>
      <point x="225" y="890" type="line"/>
      <point x="200" y="607" type="line"/>
      <point x="864" y="607" type="line"/>
      <point x="890" y="890" type="line"/>
    </contour>
  </outline>
</glyph>
<glyph name="greater" format="2">
  <advance width="1007"/>
  <unicode hex="003E"/>
  <outline>
    <contour>
      <point x="272" y="27" type="line"/>
      <point x="963" y="533" type="line"/>
      <point x="993" y="838" type="line"/>
      <point x="398" y="1342" type="line"/>
      <point x="180" y="1090" type="line"/>
      <point x="674" y="685" type="line"/>
      <point x="102" y="277" type="line"/>
    </contour>
  </outline>
</glyph>
<glyph name="question" format="2">
  <advance width="968"/>
  <unicode hex="003F"/>
  <outline>
    <contour>
      <point x="352" y="467" type="line"/>
      <point x="655" y="467" type="line"/>
      <point x="654" y="501" type="line" smooth="yes"/>
      <point x="652" y="581"/>
      <point x="706" y="612"/>
      <point x="817" y="675" type="curve" smooth="yes"/>
      <point x="944" y="747"/>
      <point x="1021" y="824"/>
      <point x="1032" y="976" type="curve" smooth="yes"/>
      <point x="1049" y="1207"/>
      <point x="894" y="1377"/>
      <point x="611" y="1377" type="curve" smooth="yes"/>
      <point x="321" y="1377"/>
      <point x="152" y="1198"/>
      <point x="118" y="926" type="curve"/>
      <point x="419" y="926" type="line"/>
      <point x="423" y="1014"/>
      <point x="499" y="1079"/>
      <point x="595" y="1079" type="curve" smooth="yes"/>
      <point x="674" y="1079"/>
      <point x="708" y="1035"/>
      <point x="702" y="976" type="curve" smooth="yes"/>
      <point x="695" y="901"/>
      <point x="639" y="873"/>
      <point x="566" y="838" type="curve" smooth="yes"/>
      <point x="446" y="780"/>
      <point x="382" y="724"/>
      <point x="360" y="535" type="curve" smooth="yes"/>
    </contour>
    <contour>
      <point x="466" y="-35" type="curve" smooth="yes"/>
      <point x="584" y="-35"/>
      <point x="677" y="53"/>
      <point x="686" y="181" type="curve" smooth="yes"/>
      <point x="694" y="299"/>
      <point x="626" y="384"/>
      <point x="506" y="384" type="curve" smooth="yes"/>
      <point x="386" y="384"/>
      <point x="298" y="299"/>
      <point x="285" y="181" type="curve" smooth="yes"/>
      <point x="271" y="61"/>
      <point x="342" y="-35"/>
    </contour>
  </outline>
</glyph>
<glyph name="at" format="2">
  <advance width="2035"/>
  <unicode hex="0040"/>
  <outline>
    <contour>
      <point x="1028" y="-525" type="curve"/>
      <point x="1051" y="-252" type="line"/>
      <point x="613" y="-252"/>
      <point x="418" y="14"/>
      <point x="449" y="363" type="curve" smooth="yes"/>
      <point x="489" y="785"/>
      <point x="808" y="1081"/>
      <point x="1215" y="1081" type="curve" smooth="yes"/>
      <point x="1569" y="1081"/>
      <point x="1722" y="856"/>
      <point x="1690" y="579" type="curve"/>
      <point x="1670" y="292"/>
      <point x="1527" y="227"/>
      <point x="1478" y="227" type="curve" smooth="yes"/>
      <point x="1443" y="227"/>
      <point x="1423" y="252"/>
      <point x="1433" y="329" type="curve" smooth="yes"/>
      <point x="1455" y="540" type="line" smooth="yes"/>
      <point x="1477" y="774"/>
      <point x="1373" y="892"/>
      <point x="1191" y="892" type="curve" smooth="yes"/>
      <point x="935" y="892"/>
      <point x="694" y="657"/>
      <point x="668" y="362" type="curve" smooth="yes"/>
      <point x="644" y="137"/>
      <point x="785" y="-41"/>
      <point x="944" y="-41" type="curve" smooth="yes"/>
      <point x="1071" y="-41"/>
      <point x="1132" y="18"/>
      <point x="1192" y="118" type="curve"/>
      <point x="1201" y="86" type="line"/>
      <point x="1231" y="9"/>
      <point x="1313" y="-41"/>
      <point x="1437" y="-41" type="curve" smooth="yes"/>
      <point x="1677" y="-41"/>
      <point x="1949" y="165"/>
      <point x="1985" y="579" type="curve" smooth="yes"/>
      <point x="2030" y="1029"/>
      <point x="1736" y="1377"/>
      <point x="1242" y="1377" type="curve" smooth="yes"/>
      <point x="680" y="1377"/>
      <point x="215" y="993"/>
      <point x="158" y="387" type="curve" smooth="yes"/>
      <point x="109" y="-106"/>
      <point x="448" y="-525"/>
    </contour>
    <contour>
      <point x="1033" y="230" type="curve" smooth="yes"/>
      <point x="968" y="230"/>
      <point x="927" y="277"/>
      <point x="930" y="369" type="curve"/>
      <point x="948" y="537"/>
      <point x="1070" y="640"/>
      <point x="1155" y="640" type="curve" smooth="yes"/>
      <point x="1217" y="640"/>
      <point x="1223" y="582"/>
      <point x="1220" y="538" type="curve"/>
      <point x="1198" y="353" type="line"/>
      <point x="1152" y="268"/>
      <point x="1107" y="230"/>
    </contour>
  </outline>
</glyph>
<glyph name="A" format="2">
  <advance width="1236"/>
  <unicode hex="0041"/>
  <anchor x="548" y="0" name="bottom"/>
  <anchor x="1044" y="10" name="ogonek"/>
  <anchor x="738" y="1346" name="top"/>
  <outline>
    <contour>
      <point x="33" y="0" type="line"/>
      <point x="346" y="0" type="line"/>
      <point x="434" y="232" type="line"/>
      <point x="844" y="232" type="line"/>
      <point x="888" y="0" type="line"/>
      <point x="1208" y="0" type="line"/>
      <point x="943" y="1346" type="line"/>
      <point x="567" y="1346" type="line"/>
    </contour>
    <contour>
      <point x="530" y="475" type="line"/>
      <point x="713" y="960" type="line"/>
      <point x="801" y="475" type="line"/>
    </contour>
  </outline>
</glyph>
<glyph name="B" format="2">
  <advance width="1221"/>
  <unicode hex="0042"/>
  <anchor x="541" y="0" name="bottom"/>
  <anchor x="731" y="1346" name="top"/>
  <outline>
    <contour>
      <point x="151" y="0" type="line"/>
      <point x="681" y="0" type="line" smooth="yes"/>
      <point x="1052" y="0"/>
      <point x="1157" y="225"/>
      <point x="1169" y="379" type="curve" smooth="yes"/>
      <point x="1190" y="561"/>
      <point x="1097" y="648"/>
      <point x="978" y="685" type="curve"/>
      <point x="1102" y="731"/>
      <point x="1195" y="834"/>
      <point x="1212" y="985" type="curve"/>
      <point x="1230" y="1190"/>
      <point x="1102" y="1346"/>
      <point x="808" y="1346" type="curve" smooth="yes"/>
      <point x="278" y="1346" type="line"/>
    </contour>
    <contour>
      <point x="472" y="288" type="line"/>
      <point x="495" y="525" type="line"/>
      <point x="722" y="525" type="line" smooth="yes"/>
      <point x="825" y="525"/>
      <point x="855" y="476"/>
      <point x="850" y="403" type="curve" smooth="yes"/>
      <point x="842" y="330"/>
      <point x="788" y="288"/>
      <point x="700" y="288" type="curve" smooth="yes"/>
    </contour>
    <contour>
      <point x="547" y="1061" type="line"/>
      <point x="767" y="1061" type="line" smooth="yes"/>
      <point x="874" y="1061"/>
      <point x="908" y="1007"/>
      <point x="901" y="938" type="curve" smooth="yes"/>
      <point x="893" y="864"/>
      <point x="852" y="815"/>
      <point x="741" y="815" type="curve" smooth="yes"/>
      <point x="524" y="815" type="line"/>
    </contour>
  </outline>
</glyph>
<glyph name="C" format="2">
  <advance width="1188"/>
  <unicode hex="0043"/>
  <anchor x="680" y="0" name="bottom"/>
  <anchor x="714" y="1346" name="top"/>
  <outline>
    <contour>
      <point x="610" y="-35" type="curve" smooth="yes"/>
      <point x="929" y="-35"/>
      <point x="1120" y="138"/>
      <point x="1153" y="452" type="curve"/>
      <point x="834" y="452" type="line"/>
      <point x="822" y="350"/>
      <point x="755" y="270"/>
      <point x="637" y="270" type="curve" smooth="yes"/>
      <point x="509" y="270"/>
      <point x="434" y="397"/>
      <point x="458" y="671" type="curve" smooth="yes"/>
      <point x="488" y="948"/>
      <point x="590" y="1077"/>
      <point x="715" y="1077" type="curve" smooth="yes"/>
      <point x="816" y="1077"/>
      <point x="859" y="994"/>
      <point x="873" y="882" type="curve"/>
      <point x="1190" y="942" type="line"/>
      <point x="1189" y="1198"/>
      <point x="1050" y="1377"/>
      <point x="742" y="1377" type="curve" smooth="yes"/>
      <point x="422" y="1377"/>
      <point x="186" y="1138"/>
      <point x="139" y="671" type="curve"/>
      <point x="92" y="204"/>
      <point x="292" y="-35"/>
    </contour>
  </outline>
</glyph>
<glyph name="D" format="2">
  <advance width="1287"/>
  <unicode hex="0044"/>
  <anchor x="574" y="0" name="bottom"/>
  <anchor x="669" y="673" name="center"/>
  <anchor x="764" y="1346" name="top"/>
  <outline>
    <contour>
      <point x="276" y="1346" type="line"/>
      <point x="149" y="0" type="line"/>
      <point x="587" y="0" type="line" smooth="yes"/>
      <point x="957" y="0"/>
      <point x="1241" y="261"/>
      <point x="1281" y="670" type="curve" smooth="yes"/>
      <point x="1317" y="1089"/>
      <point x="1082" y="1346"/>
      <point x="711" y="1346" type="curve" smooth="yes"/>
    </contour>
    <contour>
      <point x="545" y="1043" type="line"/>
      <point x="679" y="1043" type="line" smooth="yes"/>
      <point x="872" y="1043"/>
      <point x="979" y="890"/>
      <point x="958" y="670" type="curve" smooth="yes"/>
      <point x="932" y="460"/>
      <point x="806" y="305"/>
      <point x="614" y="305" type="curve" smooth="yes"/>
      <point x="479" y="305" type="line"/>
    </contour>
  </outline>
</glyph>
<glyph name="E" format="2">
  <advance width="1104"/>
  <unicode hex="0045"/>
  <anchor x="530" y="1270" name="above"/>
  <anchor x="582" y="0" name="bottom"/>
  <anchor x="586" y="10" name="ogonek"/>
  <anchor x="672" y="1346" name="top"/>
  <anchor x="140" y="1346" name="topleft"/>
  <outline>
    <contour>
      <point x="149" y="0" type="line"/>
      <point x="969" y="0" type="line"/>
      <point x="991" y="288" type="line"/>
      <point x="470" y="288" type="line"/>
      <point x="493" y="526" type="line"/>
      <point x="980" y="526" type="line"/>
      <point x="1009" y="814" type="line"/>
      <point x="522" y="814" type="line"/>
      <point x="545" y="1061" type="line"/>
      <point x="1068" y="1061" type="line"/>
      <point x="1093" y="1346" type="line"/>
      <point x="276" y="1346" type="line"/>
    </contour>
  </outline>
</glyph>
<glyph name="F" format="2">
  <advance width="1032"/>
  <unicode hex="0046"/>
  <anchor x="446" y="0" name="bottom"/>
  <anchor x="636" y="1346" name="top"/>
  <outline>
    <contour>
      <point x="151" y="0" type="line"/>
      <point x="447" y="0" type="line"/>
      <point x="495" y="528" type="line"/>
      <point x="937" y="528" type="line"/>
      <point x="966" y="810" type="line"/>
      <point x="524" y="810" type="line"/>
      <point x="547" y="1061" type="line"/>
      <point x="1044" y="1061" type="line"/>
      <point x="1072" y="1346" type="line"/>
      <point x="278" y="1346" type="line"/>
    </contour>
  </outline>
</glyph>
<glyph name="G" format="2">
  <advance width="1288"/>
  <unicode hex="0047"/>
  <anchor x="574" y="0" name="bottom"/>
  <anchor x="764" y="1346" name="top"/>
  <outline>
    <contour>
      <point x="607" y="-35" type="curve" smooth="yes"/>
      <point x="754" y="-35"/>
      <point x="861" y="66"/>
      <point x="921" y="238" type="curve"/>
      <point x="904" y="235" type="line"/>
      <point x="910" y="157"/>
      <point x="913" y="78"/>
      <point x="918" y="0" type="curve"/>
      <point x="1157" y="0" type="line"/>
      <point x="1226" y="723" type="line"/>
      <point x="707" y="723" type="line"/>
      <point x="688" y="514" type="line"/>
      <point x="969" y="515" type="line"/>
      <point x="940" y="577" type="line"/>
      <point x="928" y="534"/>
      <point x="927" y="514"/>
      <point x="922" y="481" type="curve" smooth="yes"/>
      <point x="890" y="368"/>
      <point x="793" y="272"/>
      <point x="661" y="272" type="curve" smooth="yes"/>
      <point x="527" y="272"/>
      <point x="432" y="423"/>
      <point x="458" y="675" type="curve" smooth="yes"/>
      <point x="477" y="922"/>
      <point x="601" y="1079"/>
      <point x="737" y="1079" type="curve" smooth="yes"/>
      <point x="839" y="1079"/>
      <point x="899" y="1009"/>
      <point x="925" y="899" type="curve"/>
      <point x="1243" y="960" type="line"/>
      <point x="1204" y="1248"/>
      <point x="1052" y="1379"/>
      <point x="784" y="1379" type="curve" smooth="yes"/>
      <point x="432" y="1379"/>
      <point x="181" y="1088"/>
      <point x="137" y="675" type="curve" smooth="yes"/>
      <point x="99" y="262"/>
      <point x="299" y="-35"/>
    </contour>
  </outline>
</glyph>
<glyph name="H" format="2">
  <advance width="1349"/>
  <unicode hex="0048"/>
  <anchor x="605" y="0" name="bottom"/>
  <anchor x="700" y="673" name="center"/>
  <anchor x="795" y="1346" name="top"/>
  <anchor x="140" y="1346" name="topleft"/>
  <outline>
    <contour>
      <point x="151" y="0" type="line"/>
      <point x="447" y="0" type="line"/>
      <point x="495" y="528" type="line"/>
      <point x="950" y="528" type="line"/>
      <point x="902" y="0" type="line"/>
      <point x="1198" y="0" type="line"/>
      <point x="1322" y="1346" type="line"/>
      <point x="1029" y="1346" type="line"/>
      <point x="979" y="818" type="line"/>
      <point x="524" y="818" type="line"/>
      <point x="574" y="1346" type="line"/>
      <point x="278" y="1346" type="line"/>
    </contour>
  </outline>
</glyph>
<glyph name="I" format="2">
  <advance width="601"/>
  <unicode hex="0049"/>
  <anchor x="231" y="0" name="bottom"/>
  <anchor x="310" y="5" name="ogonek"/>
  <anchor x="421" y="1346" name="top"/>
  <anchor x="140" y="1346" name="topleft"/>
  <outline>
    <contour>
      <point x="151" y="0" type="line"/>
      <point x="447" y="0" type="line"/>
      <point x="574" y="1346" type="line"/>
      <point x="278" y="1346" type="line"/>
    </contour>
  </outline>
</glyph>
<glyph name="J" format="2">
  <advance width="886"/>
  <unicode hex="004A"/>
  <anchor x="373" y="0" name="bottom"/>
  <anchor x="563" y="1346" name="top"/>
  <outline>
    <contour>
      <point x="46" y="44" type="line"/>
      <point x="136" y="-4"/>
      <point x="244" y="-35"/>
      <point x="358" y="-35" type="curve" smooth="yes"/>
      <point x="577" y="-35"/>
      <point x="757" y="90"/>
      <point x="790" y="452" type="curve"/>
      <point x="878" y="1346" type="line"/>
      <point x="573" y="1346" type="line"/>
      <point x="489" y="452" type="line"/>
      <point x="482" y="333"/>
      <point x="435" y="288"/>
      <point x="357" y="288" type="curve" smooth="yes"/>
      <point x="284" y="288"/>
      <point x="180" y="307"/>
      <point x="82" y="367" type="curve"/>
    </contour>
  </outline>
</glyph>
<glyph name="K" format="2">
  <advance width="1276"/>
  <unicode hex="004B"/>
  <anchor x="568" y="0" name="bottom"/>
  <anchor x="758" y="1346" name="top"/>
  <outline>
    <contour>
      <point x="278" y="1346" type="line"/>
      <point x="151" y="0" type="line"/>
      <point x="449" y="0" type="line"/>
      <point x="491" y="425" type="line"/>
      <point x="571" y="512" type="line"/>
      <point x="914" y="0" type="line"/>
      <point x="1300" y="0" type="line"/>
      <point x="796" y="738" type="line"/>
      <point x="1388" y="1346" type="line"/>
      <point x="981" y="1346" type="line"/>
      <point x="531" y="870" type="line"/>
      <point x="576" y="1346" type="line"/>
    </contour>
  </outline>
</glyph>
<glyph name="L" format="2">
  <advance width="948"/>
  <unicode hex="004C"/>
  <anchor x="404" y="0" name="bottom"/>
  <anchor x="499" y="673" name="center"/>
  <anchor x="594" y="1346" name="top"/>
  <anchor x="1048" y="1346" name="topright"/>
  <outline>
    <contour>
      <point x="151" y="0" type="line"/>
      <point x="898" y="0" type="line"/>
      <point x="924" y="288" type="line"/>
      <point x="472" y="288" type="line"/>
      <point x="574" y="1346" type="line"/>
      <point x="278" y="1346" type="line"/>
    </contour>
  </outline>
</glyph>
<glyph name="M" format="2">
  <advance width="1632"/>
  <unicode hex="004D"/>
  <anchor x="746" y="0" name="bottom"/>
  <anchor x="936" y="1346" name="top"/>
  <outline>
    <contour>
      <point x="151" y="0" type="line"/>
      <point x="447" y="0" type="line"/>
      <point x="540" y="1020" type="line"/>
      <point x="526" y="1016" type="line"/>
      <point x="736" y="123" type="line"/>
      <point x="925" y="123" type="line"/>
      <point x="1281" y="964" type="line"/>
      <point x="1267" y="971" type="line"/>
      <point x="1180" y="0" type="line"/>
      <point x="1480" y="0" type="line"/>
      <point x="1605" y="1346" type="line"/>
      <point x="1198" y="1346" type="line"/>
      <point x="883" y="670" type="line"/>
      <point x="702" y="1346" type="line"/>
      <point x="278" y="1346" type="line"/>
    </contour>
  </outline>
</glyph>
<glyph name="N" format="2">
  <advance width="1360"/>
  <unicode hex="004E"/>
  <guideline x="1041" y="1346" angle="264.6099"/>
  <anchor x="680" y="0" name="bottom"/>
  <anchor x="800" y="1346" name="top"/>
  <outline>
    <contour>
      <point x="147" y="0" type="line"/>
      <point x="441" y="0" type="line"/>
      <point x="528" y="908" type="line"/>
      <point x="471" y="911" type="line"/>
      <point x="923" y="0" type="line"/>
      <point x="1210" y="0" type="line"/>
      <point x="1337" y="1346" type="line"/>
      <point x="1041" y="1346" type="line"/>
      <point x="959" y="473" type="line"/>
      <point x="1012" y="470" type="line"/>
      <point x="584" y="1346" type="line"/>
      <point x="274" y="1346" type="line"/>
    </contour>
  </outline>
</glyph>
<glyph name="O" format="2">
  <advance width="1312"/>
  <unicode hex="004F"/>
  <anchor x="586" y="0" name="bottom"/>
  <anchor x="681" y="673" name="center"/>
  <anchor x="1113" y="10" name="ogonek"/>
  <anchor x="776" y="1346" name="top"/>
  <anchor x="140" y="1346" name="topleft"/>
  <anchor x="1412" y="1346" name="topright"/>
  <outline>
    <contour>
      <point x="648" y="-35" type="curve" smooth="yes"/>
      <point x="1005" y="-35"/>
      <point x="1251" y="206"/>
      <point x="1295" y="676" type="curve"/>
      <point x="1339" y="1137"/>
      <point x="1134" y="1377"/>
      <point x="781" y="1377" type="curve" smooth="yes"/>
      <point x="433" y="1377"/>
      <point x="183" y="1154"/>
      <point x="139" y="676" type="curve"/>
      <point x="92" y="214"/>
      <point x="300" y="-35"/>
    </contour>
    <contour>
      <point x="676" y="263" type="curve" smooth="yes"/>
      <point x="514" y="263"/>
      <point x="420" y="415"/>
      <point x="448" y="676" type="curve" smooth="yes"/>
      <point x="466" y="928"/>
      <point x="595" y="1081"/>
      <point x="754" y="1081" type="curve" smooth="yes"/>
      <point x="920" y="1081"/>
      <point x="1012" y="928"/>
      <point x="988" y="681" type="curve" smooth="yes"/>
      <point x="965" y="415"/>
      <point x="842" y="263"/>
    </contour>
  </outline>
</glyph>
<glyph name="P" format="2">
  <advance width="1104"/>
  <unicode hex="0050"/>
  <anchor x="482" y="0" name="bottom"/>
  <anchor x="672" y="1346" name="top"/>
  <outline>
    <contour>
      <point x="143" y="0" type="line"/>
      <point x="443" y="0" type="line"/>
      <point x="485" y="455" type="line"/>
      <point x="654" y="455" type="line" smooth="yes"/>
      <point x="933" y="455"/>
      <point x="1131" y="608"/>
      <point x="1158" y="903" type="curve" smooth="yes"/>
      <point x="1186" y="1203"/>
      <point x="1020" y="1346"/>
      <point x="737" y="1346" type="curve" smooth="yes"/>
      <point x="270" y="1346" type="line"/>
    </contour>
    <contour>
      <point x="514" y="745" type="line"/>
      <point x="543" y="1061" type="line"/>
      <point x="709" y="1061" type="line" smooth="yes"/>
      <point x="815" y="1061"/>
      <point x="858" y="987"/>
      <point x="849" y="903" type="curve" smooth="yes"/>
      <point x="844" y="819"/>
      <point x="782" y="745"/>
      <point x="681" y="745" type="curve" smooth="yes"/>
    </contour>
  </outline>
</glyph>
<glyph name="Q" format="2">
  <advance width="1306"/>
  <unicode hex="0051"/>
  <anchor x="583" y="0" name="bottom"/>
  <anchor x="773" y="1346" name="top"/>
  <outline>
    <contour>
      <point x="996" y="-391" type="curve" smooth="yes"/>
      <point x="1052" y="-391"/>
      <point x="1105" y="-381"/>
      <point x="1163" y="-357" type="curve"/>
      <point x="1196" y="-27" type="line"/>
      <point x="1135" y="-50"/>
      <point x="1072" y="-68"/>
      <point x="1021" y="-68" type="curve"/>
      <point x="966" y="-66"/>
      <point x="914" y="-46"/>
      <point x="892" y="5" type="curve"/>
      <point x="896" y="9" type="line"/>
      <point x="1117" y="100"/>
      <point x="1259" y="328"/>
      <point x="1295" y="676" type="curve"/>
      <point x="1339" y="1137"/>
      <point x="1134" y="1377"/>
      <point x="781" y="1377" type="curve" smooth="yes"/>
      <point x="433" y="1377"/>
      <point x="183" y="1154"/>
      <point x="139" y="676" type="curve"/>
      <point x="92" y="222"/>
      <point x="292" y="-22"/>
      <point x="623" y="-35" type="curve"/>
      <point x="677" y="-160" type="line" smooth="yes"/>
      <point x="744" y="-303"/>
      <point x="866" y="-391"/>
    </contour>
    <contour>
      <point x="676" y="263" type="curve" smooth="yes"/>
      <point x="514" y="263"/>
      <point x="420" y="415"/>
      <point x="448" y="676" type="curve" smooth="yes"/>
      <point x="466" y="928"/>
      <point x="595" y="1081"/>
      <point x="754" y="1081" type="curve" smooth="yes"/>
      <point x="920" y="1081"/>
      <point x="1012" y="928"/>
      <point x="988" y="681" type="curve" smooth="yes"/>
      <point x="965" y="415"/>
      <point x="842" y="263"/>
    </contour>
  </outline>
</glyph>
<glyph name="R" format="2">
  <advance width="1227"/>
  <unicode hex="0052"/>
  <anchor x="544" y="0" name="bottom"/>
  <anchor x="734" y="1346" name="top"/>
  <outline>
    <contour>
      <point x="151" y="0" type="line"/>
      <point x="447" y="0" type="line"/>
      <point x="491" y="496" type="line"/>
      <point x="610" y="496" type="line"/>
      <point x="781" y="0" type="line"/>
      <point x="1170" y="0" type="line"/>
      <point x="920" y="531" type="line"/>
      <point x="1078" y="604"/>
      <point x="1179" y="738"/>
      <point x="1202" y="919" type="curve" smooth="yes"/>
      <point x="1224" y="1181"/>
      <point x="1055" y="1346"/>
      <point x="755" y="1346" type="curve" smooth="yes"/>
      <point x="278" y="1346" type="line"/>
    </contour>
    <contour>
      <point x="510" y="712" type="line"/>
      <point x="547" y="1061" type="line"/>
      <point x="728" y="1061" type="line" smooth="yes"/>
      <point x="849" y="1061"/>
      <point x="894" y="986"/>
      <point x="888" y="883" type="curve" smooth="yes"/>
      <point x="879" y="783"/>
      <point x="801" y="712"/>
      <point x="662" y="712" type="curve" smooth="yes"/>
    </contour>
  </outline>
</glyph>
<glyph name="S" format="2">
  <advance width="1220"/>
  <unicode hex="0053"/>
  <anchor x="660" y="0" name="bottom"/>
  <anchor x="730" y="1346" name="top"/>
  <outline>
    <contour>
      <point x="606" y="-35" type="curve" smooth="yes"/>
      <point x="920" y="-35"/>
      <point x="1119" y="103"/>
      <point x="1146" y="378" type="curve" smooth="yes"/>
      <point x="1162" y="543"/>
      <point x="1083" y="663"/>
      <point x="905" y="751" type="curve" smooth="yes"/>
      <point x="639" y="885" type="line" smooth="yes"/>
      <point x="571" y="921"/>
      <point x="536" y="947"/>
      <point x="539" y="990" type="curve" smooth="yes"/>
      <point x="549" y="1041"/>
      <point x="608" y="1079"/>
      <point x="696" y="1079" type="curve" smooth="yes"/>
      <point x="818" y="1079"/>
      <point x="855" y="1011"/>
      <point x="865" y="926" type="curve"/>
      <point x="1159" y="926" type="line"/>
      <point x="1166" y="1213"/>
      <point x="1020" y="1377"/>
      <point x="723" y="1377" type="curve" smooth="yes"/>
      <point x="434" y="1377"/>
      <point x="238" y="1226"/>
      <point x="214" y="996" type="curve" smooth="yes"/>
      <point x="198" y="803"/>
      <point x="288" y="703"/>
      <point x="454" y="616" type="curve" smooth="yes"/>
      <point x="712" y="490" type="line" smooth="yes"/>
      <point x="794" y="448"/>
      <point x="819" y="427"/>
      <point x="814" y="365" type="curve" smooth="yes"/>
      <point x="804" y="286"/>
      <point x="720" y="272"/>
      <point x="631" y="272" type="curve" smooth="yes"/>
      <point x="516" y="272"/>
      <point x="434" y="321"/>
      <point x="450" y="439" type="curve"/>
      <point x="149" y="439" type="line"/>
      <point x="127" y="103"/>
      <point x="345" y="-35"/>
    </contour>
  </outline>
</glyph>
<glyph name="T" format="2">
  <advance width="1025"/>
  <unicode hex="0054"/>
  <anchor x="483" y="0" name="bottom"/>
  <anchor x="538" y="673" name="center"/>
  <anchor x="633" y="1346" name="top"/>
  <outline>
    <contour>
      <point x="362" y="0" type="line"/>
      <point x="658" y="0" type="line"/>
      <point x="762" y="1061" type="line"/>
      <point x="1115" y="1061" type="line"/>
      <point x="1142" y="1346" type="line"/>
      <point x="139" y="1346" type="line"/>
      <point x="112" y="1061" type="line"/>
      <point x="466" y="1061" type="line"/>
    </contour>
  </outline>
</glyph>
<glyph name="U" format="2">
  <advance width="1319"/>
  <unicode hex="0055"/>
  <anchor x="590" y="0" name="bottom"/>
  <anchor x="709" y="10" name="ogonek"/>
  <anchor x="780" y="1346" name="top"/>
  <anchor x="1419" y="1346" name="topright"/>
  <outline>
    <contour>
      <point x="663" y="-35" type="curve" smooth="yes"/>
      <point x="1002" y="-35"/>
      <point x="1206" y="188"/>
      <point x="1243" y="533" type="curve"/>
      <point x="1316" y="1346" type="line"/>
      <point x="1020" y="1346" type="line"/>
      <point x="942" y="533" type="line" smooth="yes"/>
      <point x="925" y="343"/>
      <point x="818" y="272"/>
      <point x="686" y="272" type="curve" smooth="yes"/>
      <point x="560" y="272"/>
      <point x="468" y="343"/>
      <point x="485" y="533" type="curve" smooth="yes"/>
      <point x="563" y="1346" type="line"/>
      <point x="267" y="1346" type="line"/>
      <point x="189" y="533" type="line"/>
      <point x="157" y="188"/>
      <point x="324" y="-35"/>
    </contour>
  </outline>
</glyph>
<glyph name="V" format="2">
  <advance width="1186"/>
  <unicode hex="0056"/>
  <anchor x="523" y="0" name="bottom"/>
  <anchor x="713" y="1346" name="top"/>
  <outline>
    <contour>
      <point x="165" y="1346" type="line"/>
      <point x="432" y="0" type="line"/>
      <point x="747" y="0" type="line"/>
      <point x="1272" y="1346" type="line"/>
      <point x="963" y="1346" type="line"/>
      <point x="630" y="416" type="line"/>
      <point x="485" y="1346" type="line"/>
    </contour>
  </outline>
</glyph>
<glyph name="W" format="2">
  <advance width="1892"/>
  <unicode hex="0057"/>
  <anchor x="876" y="0" name="bottom"/>
  <anchor x="1066" y="1346" name="top"/>
  <outline>
    <contour>
      <point x="175" y="1346" type="line"/>
      <point x="459" y="0" type="line"/>
      <point x="770" y="0" type="line"/>
      <point x="1005" y="646" type="line"/>
      <point x="1131" y="0" type="line"/>
      <point x="1444" y="0" type="line"/>
      <point x="1975" y="1346" type="line"/>
      <point x="1634" y="1346" type="line"/>
      <point x="1322" y="425" type="line"/>
      <point x="1155" y="1313" type="line"/>
      <point x="954" y="1313" type="line"/>
      <point x="654" y="429" type="line"/>
      <point x="509" y="1346" type="line"/>
    </contour>
  </outline>
</glyph>
<glyph name="X" format="2">
  <advance width="1323"/>
  <unicode hex="0058"/>
  <anchor x="592" y="0" name="bottom"/>
  <anchor x="782" y="1346" name="top"/>
  <outline>
    <contour>
      <point x="33" y="0" type="line"/>
      <point x="392" y="0" type="line"/>
      <point x="671" y="409" type="line"/>
      <point x="916" y="0" type="line"/>
      <point x="1288" y="0" type="line"/>
      <point x="892" y="679" type="line"/>
      <point x="1348" y="1346" type="line"/>
      <point x="989" y="1346" type="line"/>
      <point x="743" y="933" type="line"/>
      <point x="524" y="1346" type="line"/>
      <point x="156" y="1346" type="line"/>
      <point x="518" y="672" type="line"/>
    </contour>
  </outline>
</glyph>
<glyph name="Y" format="2">
  <advance width="1208"/>
  <unicode hex="0059"/>
  <anchor x="534" y="0" name="bottom"/>
  <anchor x="724" y="1346" name="top"/>
  <anchor x="140" y="1346" name="topleft"/>
  <outline>
    <contour>
      <point x="442" y="0" type="line"/>
      <point x="736" y="0" type="line"/>
      <point x="788" y="560" type="line"/>
      <point x="1290" y="1346" type="line"/>
      <point x="940" y="1346" type="line"/>
      <point x="675" y="900" type="line"/>
      <point x="521" y="1346" type="line"/>
      <point x="171" y="1346" type="line"/>
      <point x="494" y="560" type="line"/>
    </contour>
  </outline>
</glyph>
<glyph name="Z" format="2">
  <advance width="1211"/>
  <unicode hex="005A"/>
  <anchor x="536" y="0" name="bottom"/>
  <anchor x="631" y="673" name="center"/>
  <anchor x="726" y="1346" name="top"/>
  <outline>
    <contour>
      <point x="132" y="0" type="line"/>
      <point x="1081" y="0" type="line"/>
      <point x="1104" y="302" type="line"/>
      <point x="537" y="300" type="line"/>
      <point x="1178" y="1072" type="line"/>
      <point x="1205" y="1346" type="line"/>
      <point x="259" y="1346" type="line"/>
      <point x="227" y="1044" type="line"/>
      <point x="802" y="1047" type="line"/>
      <point x="157" y="278" type="line"/>
    </contour>
  </outline>
</glyph>
<glyph name="bracketleft" format="2">
  <advance width="711"/>
  <unicode hex="005B"/>
  <outline>
    <contour>
      <point x="128" y="-376" type="line"/>
      <point x="678" y="-376" type="line"/>
      <point x="707" y="-73" type="line"/>
      <point x="454" y="-73" type="line"/>
      <point x="594" y="1423" type="line"/>
      <point x="848" y="1423" type="line"/>
      <point x="882" y="1722" type="line"/>
      <point x="328" y="1722" type="line"/>
    </contour>
  </outline>
</glyph>
<glyph name="backslash" format="2">
  <advance width="936"/>
  <unicode hex="005C"/>
  <outline>
    <contour>
      <point x="777" y="-177" type="line"/>
      <point x="1084" y="-177" type="line"/>
      <point x="447" y="1528" type="line"/>
      <point x="142" y="1528" type="line"/>
    </contour>
  </outline>
</glyph>
<glyph name="bracketright" format="2">
  <advance width="714"/>
  <unicode hex="005D"/>
  <outline>
    <contour>
      <point x="21" y="-376" type="line"/>
      <point x="571" y="-376" type="line"/>
      <point x="791" y="1722" type="line"/>
      <point x="239" y="1722" type="line"/>
      <point x="207" y="1423" type="line"/>
      <point x="461" y="1423" type="line"/>
      <point x="306" y="-73" type="line"/>
      <point x="53" y="-73" type="line"/>
    </contour>
  </outline>
</glyph>
<glyph name="asciicircum" format="2">
  <advance width="1118"/>
  <unicode hex="005E"/>
  <outline>
    <contour>
      <point x="69" y="371" type="line"/>
      <point x="392" y="371" type="line"/>
      <point x="641" y="856" type="line"/>
      <point x="796" y="371" type="line"/>
      <point x="1121" y="371" type="line"/>
      <point x="803" y="1247" type="line"/>
      <point x="557" y="1247" type="line"/>
    </contour>
  </outline>
</glyph>
<glyph name="underscore" format="2">
  <advance width="1473"/>
  <unicode hex="005F"/>
  <outline>
    <contour>
      <point x="61" y="0" type="line"/>
      <point x="1340" y="0" type="line"/>
      <point x="1370" y="290" type="line"/>
      <point x="90" y="290" type="line"/>
    </contour>
  </outline>
</glyph>
<glyph name="grave" format="2">
  <advance width="729"/>
  <unicode hex="0060"/>
  <anchor x="282" y="1270" name="_above"/>
  <outline>
    <contour>
      <point x="192" y="1615" type="line"/>
      <point x="748" y="1429" type="line"/>
      <point x="842" y="1634" type="line"/>
      <point x="317" y="1896" type="line"/>
    </contour>
  </outline>
</glyph>
<glyph name="a" format="2">
  <advance width="1105"/>
  <unicode hex="0061"/>
  <anchor x="483" y="0" name="bottom"/>
  <anchor x="836" y="5" name="ogonek"/>
  <anchor x="623" y="991" name="top"/>
  <outline>
    <contour>
      <point x="440" y="-35" type="curve" smooth="yes"/>
      <point x="579" y="-35"/>
      <point x="632" y="14"/>
      <point x="703" y="99" type="curve"/>
      <point x="708" y="66"/>
      <point x="710" y="32"/>
      <point x="714" y="0" type="curve"/>
      <point x="973" y="0" type="line"/>
      <point x="1031" y="620" type="line" smooth="yes"/>
      <point x="1055" y="880"/>
      <point x="927" y="1020"/>
      <point x="627" y="1020" type="curve" smooth="yes"/>
      <point x="366" y="1020"/>
      <point x="182" y="914"/>
      <point x="160" y="674" type="curve"/>
      <point x="481" y="674" type="line"/>
      <point x="491" y="731"/>
      <point x="533" y="783"/>
      <point x="627" y="783" type="curve" smooth="yes"/>
      <point x="726" y="783"/>
      <point x="742" y="726"/>
      <point x="732" y="633" type="curve" smooth="yes"/>
      <point x="725" y="568" type="line"/>
      <point x="654" y="577"/>
      <point x="591" y="590"/>
      <point x="503" y="590" type="curve" smooth="yes"/>
      <point x="247" y="590"/>
      <point x="103" y="480"/>
      <point x="91" y="303" type="curve" smooth="yes"/>
      <point x="71" y="117"/>
      <point x="195" y="-35"/>
    </contour>
    <contour>
      <point x="541" y="214" type="curve" smooth="yes"/>
      <point x="473" y="214"/>
      <point x="405" y="248"/>
      <point x="408" y="303" type="curve" smooth="yes"/>
      <point x="411" y="354"/>
      <point x="474" y="381"/>
      <point x="549" y="381" type="curve" smooth="yes"/>
      <point x="599" y="381"/>
      <point x="667" y="369"/>
      <point x="706" y="358" type="curve"/>
      <point x="677" y="286"/>
      <point x="641" y="214"/>
    </contour>
  </outline>
</glyph>
<glyph name="b" format="2">
  <advance width="1171"/>
  <unicode hex="0062"/>
  <anchor x="516" y="0" name="bottom"/>
  <anchor x="774" y="1834" name="top"/>
  <outline>
    <contour>
      <point x="652" y="-35" type="curve" smooth="yes"/>
      <point x="971" y="-35"/>
      <point x="1124" y="321"/>
      <point x="1124" y="572" type="curve" smooth="yes"/>
      <point x="1124" y="847"/>
      <point x="987" y="1020"/>
      <point x="780" y="1020" type="curve" smooth="yes"/>
      <point x="677" y="1020"/>
      <point x="597" y="978"/>
      <point x="534" y="896" type="curve"/>
      <point x="580" y="1384" type="line"/>
      <point x="279" y="1384" type="line"/>
      <point x="151" y="0" type="line"/>
      <point x="337" y="0" type="line"/>
      <point x="425" y="168" type="line"/>
      <point x="464" y="32"/>
      <point x="552" y="-35"/>
    </contour>
    <contour>
      <point x="635" y="268" type="curve" smooth="yes"/>
      <point x="573" y="268"/>
      <point x="485" y="330"/>
      <point x="490" y="428" type="curve" smooth="yes"/>
      <point x="505" y="611" type="line" smooth="yes"/>
      <point x="510" y="680"/>
      <point x="608" y="721"/>
      <point x="677" y="721" type="curve" smooth="yes"/>
      <point x="768" y="721"/>
      <point x="824" y="643"/>
      <point x="824" y="532" type="curve" smooth="yes"/>
      <point x="824" y="397"/>
      <point x="755" y="268"/>
    </contour>
  </outline>
</glyph>
<glyph name="c" format="2">
  <advance width="988"/>
  <unicode hex="0063"/>
  <anchor x="562" y="0" name="bottom"/>
  <anchor x="624" y="991" name="top"/>
  <outline>
    <contour>
      <point x="510" y="-35" type="curve" smooth="yes"/>
      <point x="784" y="-35"/>
      <point x="923" y="161"/>
      <point x="946" y="375" type="curve"/>
      <point x="651" y="375" type="line"/>
      <point x="640" y="315"/>
      <point x="618" y="268"/>
      <point x="532" y="268" type="curve" smooth="yes"/>
      <point x="471" y="268"/>
      <point x="405" y="318"/>
      <point x="421" y="493" type="curve" smooth="yes"/>
      <point x="438" y="671"/>
      <point x="517" y="721"/>
      <point x="581" y="721" type="curve" smooth="yes"/>
      <point x="647" y="721"/>
      <point x="664" y="662"/>
      <point x="667" y="609" type="curve"/>
      <point x="969" y="606" type="line"/>
      <point x="986" y="791"/>
      <point x="878" y="1020"/>
      <point x="612" y="1020" type="curve" smooth="yes"/>
      <point x="381" y="1020"/>
      <point x="155" y="838"/>
      <point x="125" y="493" type="curve" smooth="yes"/>
      <point x="94" y="178"/>
      <point x="283" y="-35"/>
    </contour>
  </outline>
</glyph>
<glyph name="d" format="2">
  <advance width="1149"/>
  <unicode hex="0064"/>
  <anchor x="505" y="0" name="bottom"/>
  <anchor x="575" y="496" name="center"/>
  <anchor x="643" y="1151" name="top"/>
  <anchor x="1199" y="991" name="topright"/>
  <outline>
    <contour>
      <point x="483" y="-35" type="curve" smooth="yes"/>
      <point x="576" y="-35"/>
      <point x="669" y="22"/>
      <point x="735" y="147" type="curve"/>
      <point x="757" y="0" type="line"/>
      <point x="1000" y="0" type="line"/>
      <point x="1133" y="1384" type="line"/>
      <point x="832" y="1384" type="line"/>
      <point x="785" y="895" type="line"/>
      <point x="739" y="979"/>
      <point x="665" y="1020"/>
      <point x="562" y="1020" type="curve" smooth="yes"/>
      <point x="320" y="1020"/>
      <point x="113" y="785"/>
      <point x="113" y="434" type="curve" smooth="yes"/>
      <point x="113" y="151"/>
      <point x="268" y="-35"/>
    </contour>
    <contour>
      <point x="562" y="268" type="curve" smooth="yes"/>
      <point x="465" y="268"/>
      <point x="410" y="349"/>
      <point x="410" y="469" type="curve" smooth="yes"/>
      <point x="410" y="603"/>
      <point x="482" y="721"/>
      <point x="613" y="721" type="curve" smooth="yes"/>
      <point x="698" y="721"/>
      <point x="748" y="647"/>
      <point x="747" y="532" type="curve" smooth="yes"/>
      <point x="747" y="524"/>
      <point x="748" y="510"/>
      <point x="745" y="498" type="curve" smooth="yes"/>
      <point x="740" y="469" type="line" smooth="yes"/>
      <point x="729" y="352"/>
      <point x="637" y="268"/>
    </contour>
  </outline>
</glyph>
<glyph name="e" format="2">
  <advance width="988"/>
  <unicode hex="0065"/>
  <anchor x="563" y="0" name="bottom"/>
  <anchor x="526" y="10" name="ogonek"/>
  <anchor x="564" y="991" name="top"/>
  <outline>
    <contour>
      <point x="511" y="-35" type="curve" smooth="yes"/>
      <point x="730" y="-35"/>
      <point x="896" y="118"/>
      <point x="938" y="302" type="curve"/>
      <point x="642" y="302" type="line"/>
      <point x="622" y="251"/>
      <point x="579" y="229"/>
      <point x="535" y="229" type="curve" smooth="yes"/>
      <point x="433" y="229"/>
      <point x="388" y="318"/>
      <point x="412" y="451" type="curve"/>
      <point x="363" y="409" type="line"/>
      <point x="946" y="409" type="line"/>
      <point x="951" y="433"/>
      <point x="957" y="450"/>
      <point x="964" y="478" type="curve" smooth="yes"/>
      <point x="1000" y="745"/>
      <point x="902" y="1020"/>
      <point x="610" y="1020" type="curve" smooth="yes"/>
      <point x="381" y="1020"/>
      <point x="155" y="825"/>
      <point x="125" y="498" type="curve" smooth="yes"/>
      <point x="95" y="188"/>
      <point x="283" y="-35"/>
    </contour>
    <contour>
      <point x="424" y="564" type="line"/>
      <point x="433" y="684"/>
      <point x="498" y="757"/>
      <point x="586" y="757" type="curve" smooth="yes"/>
      <point x="696" y="757"/>
      <point x="708" y="653"/>
      <point x="694" y="564" type="curve"/>
      <point x="743" y="607" type="line"/>
      <point x="382" y="607" type="line"/>
    </contour>
  </outline>
</glyph>
<glyph name="f" format="2">
  <advance width="706"/>
  <unicode hex="0066"/>
  <anchor x="283" y="0" name="bottom"/>
  <anchor x="541" y="1834" name="top"/>
  <outline>
    <contour>
      <point x="124" y="773" type="line"/>
      <point x="242" y="773" type="line"/>
      <point x="169" y="0" type="line"/>
      <point x="471" y="0" type="line"/>
      <point x="538" y="773" type="line"/>
      <point x="681" y="773" type="line"/>
      <point x="704" y="991" type="line"/>
      <point x="561" y="991" type="line"/>
      <point x="567" y="1065" type="line" smooth="yes"/>
      <point x="574" y="1115"/>
      <point x="610" y="1140"/>
      <point x="651" y="1140" type="curve" smooth="yes"/>
      <point x="677" y="1140"/>
      <point x="702" y="1134"/>
      <point x="727" y="1127" type="curve"/>
      <point x="809" y="1378" type="line"/>
      <point x="742" y="1388"/>
      <point x="661" y="1400"/>
      <point x="592" y="1400" type="curve" smooth="yes"/>
      <point x="443" y="1400"/>
      <point x="293" y="1304"/>
      <point x="271" y="1067" type="curve" smooth="yes"/>
      <point x="261" y="991" type="line"/>
      <point x="147" y="991" type="line"/>
    </contour>
  </outline>
</glyph>
<glyph name="g" format="2">
  <advance width="1086"/>
  <unicode hex="0067"/>
  <anchor x="403" y="-504" name="bottom"/>
  <anchor x="613" y="991" name="top"/>
  <outline>
    <contour>
      <point x="452" y="-514" type="curve" smooth="yes"/>
      <point x="796" y="-514"/>
      <point x="1010" y="-289"/>
      <point x="1031" y="-59" type="curve" smooth="yes"/>
      <point x="1048" y="127"/>
      <point x="926" y="192"/>
      <point x="714" y="192" type="curve" smooth="yes"/>
      <point x="468" y="192" type="line" smooth="yes"/>
      <point x="394" y="192"/>
      <point x="360" y="218"/>
      <point x="364" y="263" type="curve" smooth="yes"/>
      <point x="367" y="298"/>
      <point x="392" y="320"/>
      <point x="419" y="335" type="curve"/>
      <point x="463" y="327"/>
      <point x="509" y="324"/>
      <point x="543" y="324" type="curve" smooth="yes"/>
      <point x="771" y="324"/>
      <point x="975" y="457"/>
      <point x="993" y="667" type="curve" smooth="yes"/>
      <point x="1000" y="746"/>
      <point x="978" y="815"/>
      <point x="940" y="871" type="curve"/>
      <point x="945" y="920"/>
      <point x="1003" y="946"/>
      <point x="1100" y="946" type="curve"/>
      <point x="1135" y="1256" type="line"/>
      <point x="1003" y="1256"/>
      <point x="848" y="1149"/>
      <point x="818" y="978" type="curve"/>
      <point x="756" y="1002"/>
      <point x="688" y="1020"/>
      <point x="611" y="1020" type="curve" smooth="yes"/>
      <point x="402" y="1020"/>
      <point x="193" y="886"/>
      <point x="172" y="667" type="curve" smooth="yes"/>
      <point x="162" y="563"/>
      <point x="198" y="482"/>
      <point x="266" y="420" type="curve"/>
      <point x="174" y="389"/>
      <point x="117" y="317"/>
      <point x="110" y="231" type="curve" smooth="yes"/>
      <point x="104" y="157"/>
      <point x="137" y="98"/>
      <point x="198" y="43" type="curve"/>
      <point x="89" y="39"/>
      <point x="-5" y="-42"/>
      <point x="-20" y="-160" type="curve" smooth="yes"/>
      <point x="-45" y="-357"/>
      <point x="165" y="-514"/>
    </contour>
    <contour>
      <point x="472" y="-252" type="curve" smooth="yes"/>
      <point x="373" y="-252"/>
      <point x="273" y="-223"/>
      <point x="277" y="-140" type="curve" smooth="yes"/>
      <point x="280" y="-80"/>
      <point x="338" y="-36"/>
      <point x="433" y="-36" type="curve" smooth="yes"/>
      <point x="691" y="-36" type="line" smooth="yes"/>
      <point x="716" y="-36"/>
      <point x="738" y="-40"/>
      <point x="735" y="-82" type="curve" smooth="yes"/>
      <point x="730" y="-159"/>
      <point x="649" y="-252"/>
    </contour>
    <contour>
      <point x="576" y="552" type="curve" smooth="yes"/>
      <point x="485" y="552"/>
      <point x="462" y="603"/>
      <point x="466" y="667" type="curve" smooth="yes"/>
      <point x="470" y="740"/>
      <point x="508" y="796"/>
      <point x="596" y="796" type="curve" smooth="yes"/>
      <point x="675" y="796"/>
      <point x="703" y="750"/>
      <point x="696" y="667" type="curve" smooth="yes"/>
      <point x="691" y="606"/>
      <point x="669" y="552"/>
    </contour>
  </outline>
</glyph>
<glyph name="h" format="2">
  <advance width="1163"/>
  <unicode hex="0068"/>
  <anchor x="512" y="0" name="bottom"/>
  <anchor x="641" y="917" name="center"/>
  <anchor x="770" y="1834" name="top"/>
  <outline>
    <contour>
      <point x="151" y="0" type="line"/>
      <point x="447" y="0" type="line"/>
      <point x="498" y="518" type="line"/>
      <point x="537" y="677"/>
      <point x="623" y="721"/>
      <point x="692" y="721" type="curve" smooth="yes"/>
      <point x="754" y="721"/>
      <point x="798" y="674"/>
      <point x="785" y="575" type="curve" smooth="yes"/>
      <point x="733" y="0" type="line"/>
      <point x="1035" y="0" type="line"/>
      <point x="1087" y="575" type="line" smooth="yes"/>
      <point x="1109" y="832"/>
      <point x="1030" y="1020"/>
      <point x="800" y="1020" type="curve" smooth="yes"/>
      <point x="700" y="1020"/>
      <point x="605" y="974"/>
      <point x="528" y="859" type="curve"/>
      <point x="580" y="1384" type="line"/>
      <point x="279" y="1384" type="line"/>
    </contour>
  </outline>
</glyph>
<glyph name="i" format="2">
  <advance width="652"/>
  <unicode hex="0069"/>
  <anchor x="256" y="0" name="bottom"/>
  <anchor x="340" y="5" name="ogonek"/>
  <anchor x="396" y="991" name="top"/>
  <outline>
    <contour>
      <point x="431" y="1107" type="curve" smooth="yes"/>
      <point x="540" y="1107"/>
      <point x="614" y="1175"/>
      <point x="625" y="1293" type="curve" smooth="yes"/>
      <point x="632" y="1407"/>
      <point x="574" y="1477"/>
      <point x="463" y="1477" type="curve" smooth="yes"/>
      <point x="355" y="1477"/>
      <point x="279" y="1409"/>
      <point x="268" y="1293" type="curve" smooth="yes"/>
      <point x="261" y="1174"/>
      <point x="318" y="1107"/>
    </contour>
    <component base="idotless"/>
  </outline>
</glyph>
<glyph name="j" format="2">
  <advance width="645"/>
  <unicode hex="006A"/>
  <anchor x="183" y="-504" name="bottom"/>
  <anchor x="393" y="991" name="top"/>
  <outline>
    <contour>
      <point x="422" y="1107" type="curve" smooth="yes"/>
      <point x="537" y="1107"/>
      <point x="607" y="1174"/>
      <point x="614" y="1293" type="curve" smooth="yes"/>
      <point x="624" y="1406"/>
      <point x="568" y="1477"/>
      <point x="457" y="1477" type="curve" smooth="yes"/>
      <point x="346" y="1477"/>
      <point x="270" y="1406"/>
      <point x="263" y="1293" type="curve" smooth="yes"/>
      <point x="252" y="1176"/>
      <point x="314" y="1107"/>
    </contour>
    <component base="jdotless"/>
  </outline>
</glyph>
<glyph name="k" format="2">
  <advance width="1056"/>
  <unicode hex="006B"/>
  <anchor x="458" y="0" name="bottom"/>
  <anchor x="716" y="1834" name="top"/>
  <outline>
    <contour>
      <point x="769" y="0" type="line"/>
      <point x="1125" y="0" type="line"/>
      <point x="787" y="629" type="line"/>
      <point x="1200" y="991" type="line"/>
      <point x="804" y="991" type="line"/>
      <point x="514" y="704" type="line"/>
      <point x="580" y="1384" type="line"/>
      <point x="279" y="1384" type="line"/>
      <point x="151" y="0" type="line"/>
      <point x="447" y="0" type="line"/>
      <point x="481" y="367" type="line"/>
      <point x="561" y="436" type="line"/>
    </contour>
  </outline>
</glyph>
<glyph name="l" format="2">
  <advance width="601"/>
  <unicode hex="006C"/>
  <anchor x="231" y="0" name="bottom"/>
  <anchor x="360" y="917" name="center"/>
  <anchor x="430" y="1364" name="top"/>
  <anchor x="610" y="2018" name="topright"/>
  <outline>
    <contour>
      <point x="151" y="0" type="line"/>
      <point x="447" y="0" type="line"/>
      <point x="580" y="1384" type="line"/>
      <point x="279" y="1384" type="line"/>
    </contour>
  </outline>
</glyph>
<glyph name="m" format="2">
  <advance width="1739"/>
  <unicode hex="006D"/>
  <anchor x="800" y="0" name="bottom"/>
  <anchor x="940" y="991" name="top"/>
  <outline>
    <contour>
      <point x="154" y="0" type="line"/>
      <point x="450" y="0" type="line"/>
      <point x="487" y="412" type="line" smooth="yes"/>
      <point x="509" y="637"/>
      <point x="603" y="721"/>
      <point x="695" y="721" type="curve" smooth="yes"/>
      <point x="757" y="721"/>
      <point x="800" y="672"/>
      <point x="787" y="575" type="curve" smooth="yes"/>
      <point x="735" y="0" type="line"/>
      <point x="1038" y="0" type="line"/>
      <point x="1075" y="411" type="line"/>
      <point x="1088" y="640"/>
      <point x="1176" y="721"/>
      <point x="1267" y="721" type="curve" smooth="yes"/>
      <point x="1327" y="721"/>
      <point x="1368" y="675"/>
      <point x="1362" y="575" type="curve" smooth="yes"/>
      <point x="1311" y="0" type="line"/>
      <point x="1614" y="0" type="line"/>
      <point x="1666" y="575" type="line"/>
      <point x="1687" y="832"/>
      <point x="1613" y="1020"/>
      <point x="1382" y="1020" type="curve" smooth="yes"/>
      <point x="1262" y="1020"/>
      <point x="1149" y="973"/>
      <point x="1069" y="834" type="curve"/>
      <point x="1028" y="946"/>
      <point x="945" y="1020"/>
      <point x="802" y="1020" type="curve" smooth="yes"/>
      <point x="696" y="1020"/>
      <point x="599" y="967"/>
      <point x="522" y="849" type="curve"/>
      <point x="518" y="898"/>
      <point x="511" y="942"/>
      <point x="506" y="991" type="curve"/>
      <point x="248" y="991" type="line"/>
    </contour>
  </outline>
</glyph>
<glyph name="n" format="2">
  <advance width="1165"/>
  <unicode hex="006E"/>
  <anchor x="513" y="0" name="bottom"/>
  <anchor x="653" y="991" name="top"/>
  <outline>
    <contour>
      <point x="154" y="0" type="line"/>
      <point x="450" y="0" type="line"/>
      <point x="487" y="412" type="line" smooth="yes"/>
      <point x="509" y="637"/>
      <point x="603" y="721"/>
      <point x="695" y="721" type="curve" smooth="yes"/>
      <point x="757" y="721"/>
      <point x="800" y="672"/>
      <point x="787" y="575" type="curve" smooth="yes"/>
      <point x="735" y="0" type="line"/>
      <point x="1038" y="0" type="line"/>
      <point x="1090" y="575" type="line"/>
      <point x="1111" y="832"/>
      <point x="1032" y="1020"/>
      <point x="802" y="1020" type="curve" smooth="yes"/>
      <point x="696" y="1020"/>
      <point x="599" y="967"/>
      <point x="522" y="849" type="curve"/>
      <point x="506" y="991" type="line"/>
      <point x="248" y="991" type="line"/>
    </contour>
  </outline>
</glyph>
<glyph name="o" format="2">
  <advance width="1061"/>
  <unicode hex="006F"/>
  <anchor x="461" y="0" name="bottom"/>
  <anchor x="531" y="496" name="center"/>
  <anchor x="577" y="10" name="ogonek"/>
  <anchor x="671" y="991" name="top"/>
  <anchor x="1111" y="991" name="topright"/>
  <outline>
    <contour>
      <point x="532" y="-35" type="curve" smooth="yes"/>
      <point x="772" y="-35"/>
      <point x="994" y="131"/>
      <point x="1031" y="491" type="curve" smooth="yes"/>
      <point x="1065" y="863"/>
      <point x="868" y="1020"/>
      <point x="628" y="1020" type="curve" smooth="yes"/>
      <point x="385" y="1020"/>
      <point x="158" y="861"/>
      <point x="125" y="491" type="curve" smooth="yes"/>
      <point x="93" y="132"/>
      <point x="283" y="-35"/>
    </contour>
    <contour>
      <point x="548" y="255" type="curve" smooth="yes"/>
      <point x="471" y="255"/>
      <point x="401" y="317"/>
      <point x="420" y="491" type="curve" smooth="yes"/>
      <point x="438" y="669"/>
      <point x="533" y="734"/>
      <point x="614" y="734" type="curve" smooth="yes"/>
      <point x="692" y="734"/>
      <point x="750" y="671"/>
      <point x="733" y="491" type="curve" smooth="yes"/>
      <point x="715" y="318"/>
      <point x="627" y="255"/>
    </contour>
  </outline>
</glyph>
<glyph name="p" format="2">
  <advance width="1132"/>
  <unicode hex="0070"/>
  <anchor x="496" y="0" name="bottom"/>
  <anchor x="636" y="991" name="top"/>
  <outline>
    <contour>
      <point x="105" y="-479" type="line"/>
      <point x="401" y="-479" type="line"/>
      <point x="448" y="32" type="line"/>
      <point x="492" y="-18"/>
      <point x="553" y="-35"/>
      <point x="643" y="-35" type="curve" smooth="yes"/>
      <point x="866" y="-35"/>
      <point x="1090" y="157"/>
      <point x="1121" y="493" type="curve" smooth="yes"/>
      <point x="1152" y="827"/>
      <point x="967" y="1020"/>
      <point x="754" y="1020" type="curve" smooth="yes"/>
      <point x="659" y="1020"/>
      <point x="568" y="979"/>
      <point x="504" y="876" type="curve"/>
      <point x="500" y="915"/>
      <point x="494" y="952"/>
      <point x="489" y="991" type="curve"/>
      <point x="246" y="991" type="line"/>
    </contour>
    <contour>
      <point x="617" y="268" type="curve" smooth="yes"/>
      <point x="504" y="268"/>
      <point x="477" y="324"/>
      <point x="485" y="397" type="curve" smooth="yes"/>
      <point x="501" y="556" type="line" smooth="yes"/>
      <point x="509" y="655"/>
      <point x="578" y="721"/>
      <point x="670" y="721" type="curve" smooth="yes"/>
      <point x="780" y="721"/>
      <point x="838" y="630"/>
      <point x="825" y="493" type="curve" smooth="yes"/>
      <point x="809" y="335"/>
      <point x="696" y="268"/>
    </contour>
  </outline>
</glyph>
<glyph name="q" format="2">
  <advance width="1153"/>
  <unicode hex="0071"/>
  <anchor x="507" y="0" name="bottom"/>
  <anchor x="647" y="991" name="top"/>
  <outline>
    <contour>
      <point x="978" y="-514" type="curve"/>
      <point x="1078" y="-282" type="line"/>
      <point x="1003" y="-257"/>
      <point x="981" y="-232"/>
      <point x="990" y="-136" type="curve" smooth="yes"/>
      <point x="1096" y="991" type="line"/>
      <point x="910" y="991" type="line"/>
      <point x="829" y="851" type="line"/>
      <point x="778" y="971"/>
      <point x="687" y="1020"/>
      <point x="587" y="1020" type="curve" smooth="yes"/>
      <point x="372" y="1020"/>
      <point x="153" y="827"/>
      <point x="123" y="493" type="curve" smooth="yes"/>
      <point x="93" y="156"/>
      <point x="281" y="-35"/>
      <point x="506" y="-35" type="curve" smooth="yes"/>
      <point x="612" y="-35"/>
      <point x="668" y="13"/>
      <point x="711" y="97" type="curve"/>
      <point x="692" y="-108" type="line"/>
      <point x="672" y="-328"/>
      <point x="753" y="-455"/>
    </contour>
    <contour>
      <point x="580" y="268" type="curve" smooth="yes"/>
      <point x="498" y="268"/>
      <point x="401" y="337"/>
      <point x="418" y="493" type="curve" smooth="yes"/>
      <point x="433" y="629"/>
      <point x="506" y="721"/>
      <point x="620" y="721" type="curve" smooth="yes"/>
      <point x="721" y="721"/>
      <point x="761" y="645"/>
      <point x="749" y="520" type="curve" smooth="yes"/>
      <point x="737" y="397" type="line" smooth="yes"/>
      <point x="729" y="320"/>
      <point x="654" y="268"/>
    </contour>
  </outline>
</glyph>
<glyph name="r" format="2">
  <advance width="822"/>
  <unicode hex="0072"/>
  <anchor x="341" y="0" name="bottom"/>
  <anchor x="481" y="991" name="top"/>
  <outline>
    <contour>
      <point x="154" y="0" type="line"/>
      <point x="450" y="0" type="line"/>
      <point x="492" y="419" type="line" smooth="yes"/>
      <point x="510" y="605"/>
      <point x="606" y="668"/>
      <point x="726" y="668" type="curve" smooth="yes"/>
      <point x="751" y="668"/>
      <point x="783" y="669"/>
      <point x="811" y="666" type="curve"/>
      <point x="841" y="1000" type="line"/>
      <point x="825" y="1003"/>
      <point x="811" y="1009"/>
      <point x="790" y="1009" type="curve" smooth="yes"/>
      <point x="698" y="1009"/>
      <point x="596" y="937"/>
      <point x="526" y="789" type="curve"/>
      <point x="544" y="993" type="line"/>
      <point x="248" y="993" type="line"/>
    </contour>
  </outline>
</glyph>
<glyph name="s" format="2">
  <advance width="950"/>
  <unicode hex="0073"/>
  <anchor x="505" y="10" name="bottom"/>
  <anchor x="545" y="991" name="top"/>
  <outline>
    <contour>
      <point x="473" y="-35" type="curve" smooth="yes"/>
      <point x="740" y="-35"/>
      <point x="904" y="133"/>
      <point x="917" y="291" type="curve" smooth="yes"/>
      <point x="927" y="414"/>
      <point x="846" y="493"/>
      <point x="744" y="541" type="curve" smooth="yes"/>
      <point x="503" y="654" type="line" smooth="yes"/>
      <point x="484" y="663"/>
      <point x="456" y="677"/>
      <point x="459" y="705" type="curve" smooth="yes"/>
      <point x="462" y="740"/>
      <point x="505" y="763"/>
      <point x="562" y="763" type="curve" smooth="yes"/>
      <point x="627" y="763"/>
      <point x="655" y="733"/>
      <point x="652" y="691" type="curve"/>
      <point x="927" y="691" type="line"/>
      <point x="941" y="879"/>
      <point x="836" y="1020"/>
      <point x="574" y="1020" type="curve" smooth="yes"/>
      <point x="344" y="1020"/>
      <point x="166" y="911"/>
      <point x="147" y="726" type="curve" smooth="yes"/>
      <point x="134" y="601"/>
      <point x="200" y="500"/>
      <point x="316" y="449" type="curve" smooth="yes"/>
      <point x="526" y="356" type="line" smooth="yes"/>
      <point x="553" y="344"/>
      <point x="589" y="328"/>
      <point x="584" y="291" type="curve" smooth="yes"/>
      <point x="580" y="260"/>
      <point x="550" y="225"/>
      <point x="465" y="225" type="curve" smooth="yes"/>
      <point x="391" y="225"/>
      <point x="356" y="252"/>
      <point x="367" y="313" type="curve"/>
      <point x="94" y="313" type="line"/>
      <point x="63" y="70"/>
      <point x="262" y="-35"/>
    </contour>
  </outline>
</glyph>
<glyph name="t" format="2">
  <advance width="751"/>
  <unicode hex="0074"/>
  <anchor x="516" y="0" name="bottom"/>
  <anchor x="376" y="496" name="center"/>
  <anchor x="506" y="1111" name="top"/>
  <anchor x="801" y="991" name="topright"/>
  <outline>
    <contour>
      <point x="473" y="-35" type="curve" smooth="yes"/>
      <point x="558" y="-35"/>
      <point x="621" y="-8"/>
      <point x="695" y="19" type="curve"/>
      <point x="672" y="250" type="line"/>
      <point x="619" y="230"/>
      <point x="584" y="223"/>
      <point x="561" y="223" type="curve" smooth="yes"/>
      <point x="501" y="223"/>
      <point x="478" y="248"/>
      <point x="485" y="311" type="curve" smooth="yes"/>
      <point x="532" y="833" type="line"/>
      <point x="483" y="780" type="line"/>
      <point x="728" y="780" type="line"/>
      <point x="748" y="991" type="line"/>
      <point x="504" y="991" type="line"/>
      <point x="545" y="946" type="line"/>
      <point x="570" y="1235" type="line"/>
      <point x="274" y="1235" type="line"/>
      <point x="249" y="946" type="line"/>
      <point x="298" y="991" type="line"/>
      <point x="148" y="991" type="line"/>
      <point x="129" y="780" type="line"/>
      <point x="275" y="780" type="line"/>
      <point x="234" y="833" type="line"/>
      <point x="184" y="296" type="line" smooth="yes"/>
      <point x="164" y="68"/>
      <point x="304" y="-35"/>
    </contour>
  </outline>
</glyph>
<glyph name="u" format="2">
  <advance width="1174"/>
  <unicode hex="0075"/>
  <anchor x="517" y="0" name="bottom"/>
  <anchor x="889" y="10" name="ogonek"/>
  <anchor x="657" y="991" name="top"/>
  <anchor x="1224" y="991" name="topright"/>
  <outline>
    <contour>
      <point x="482" y="-18" type="curve" smooth="yes"/>
      <point x="584" y="-18"/>
      <point x="674" y="30"/>
      <point x="740" y="155" type="curve"/>
      <point x="726" y="0" type="line"/>
      <point x="1027" y="0" type="line"/>
      <point x="1117" y="993" type="line"/>
      <point x="821" y="993" type="line"/>
      <point x="777" y="532" type="line" smooth="yes"/>
      <point x="757" y="324"/>
      <point x="650" y="270"/>
      <point x="565" y="270" type="curve" smooth="yes"/>
      <point x="508" y="270"/>
      <point x="470" y="312"/>
      <point x="473" y="397" type="curve" smooth="yes"/>
      <point x="533" y="993" type="line"/>
      <point x="237" y="993" type="line"/>
      <point x="175" y="359" type="line"/>
      <point x="144" y="69"/>
      <point x="306" y="-18"/>
    </contour>
  </outline>
</glyph>
<glyph name="v" format="2">
  <advance width="968"/>
  <unicode hex="0076"/>
  <anchor x="414" y="0" name="bottom"/>
  <anchor x="554" y="991" name="top"/>
  <outline>
    <contour>
      <point x="104" y="991" type="line"/>
      <point x="317" y="0" type="line"/>
      <point x="653" y="0" type="line"/>
      <point x="1055" y="991" type="line"/>
      <point x="709" y="991" type="line"/>
      <point x="512" y="320" type="line"/>
      <point x="449" y="991" type="line"/>
    </contour>
  </outline>
</glyph>
<glyph name="w" format="2">
  <advance width="1436"/>
  <unicode hex="0077"/>
  <anchor x="648" y="0" name="bottom"/>
  <anchor x="788" y="991" name="top"/>
  <outline>
    <contour>
      <point x="104" y="991" type="line"/>
      <point x="305" y="0" type="line"/>
      <point x="601" y="0" type="line"/>
      <point x="760" y="476" type="line"/>
      <point x="835" y="0" type="line"/>
      <point x="1131" y="0" type="line"/>
      <point x="1516" y="991" type="line"/>
      <point x="1220" y="991" type="line"/>
      <point x="1022" y="375" type="line"/>
      <point x="952" y="928" type="line"/>
      <point x="669" y="928" type="line"/>
      <point x="492" y="376" type="line"/>
      <point x="415" y="991" type="line"/>
    </contour>
  </outline>
</glyph>
<glyph name="x" format="2">
  <advance width="1089"/>
  <unicode hex="0078"/>
  <anchor x="475" y="0" name="bottom"/>
  <anchor x="615" y="991" name="top"/>
  <outline>
    <contour>
      <point x="6" y="0" type="line"/>
      <point x="374" y="0" type="line"/>
      <point x="558" y="252" type="line"/>
      <point x="718" y="0" type="line"/>
      <point x="1079" y="0" type="line"/>
      <point x="775" y="491" type="line"/>
      <point x="1171" y="993" type="line"/>
      <point x="810" y="993" type="line"/>
      <point x="619" y="739" type="line"/>
      <point x="468" y="993" type="line"/>
      <point x="101" y="993" type="line"/>
      <point x="409" y="491" type="line"/>
    </contour>
  </outline>
</glyph>
<glyph name="y" format="2">
  <advance width="951"/>
  <unicode hex="0079"/>
  <anchor x="406" y="0" name="bottom"/>
  <anchor x="546" y="991" name="top"/>
  <outline>
    <contour>
      <point x="214" y="-514" type="curve" smooth="yes"/>
      <point x="362" y="-514"/>
      <point x="478" y="-432"/>
      <point x="587" y="-159" type="curve" smooth="yes"/>
      <point x="1052" y="991" type="line"/>
      <point x="750" y="991" type="line"/>
      <point x="531" y="363" type="line"/>
      <point x="440" y="991" type="line"/>
      <point x="97" y="991" type="line"/>
      <point x="355" y="0" type="line"/>
      <point x="319" y="-89" type="line" smooth="yes"/>
      <point x="271" y="-200"/>
      <point x="215" y="-226"/>
      <point x="160" y="-226" type="curve" smooth="yes"/>
      <point x="100" y="-226"/>
      <point x="36" y="-209"/>
      <point x="-29" y="-172" type="curve"/>
      <point x="-56" y="-457" type="line"/>
      <point x="32" y="-499"/>
      <point x="122" y="-514"/>
    </contour>
  </outline>
</glyph>
<glyph name="z" format="2">
  <advance width="933"/>
  <unicode hex="007A"/>
  <anchor x="397" y="0" name="bottom"/>
  <anchor x="467" y="496" name="center"/>
  <anchor x="537" y="991" name="top"/>
  <outline>
    <contour>
      <point x="109" y="0" type="line"/>
      <point x="823" y="0" type="line"/>
      <point x="851" y="269" type="line"/>
      <point x="481" y="269" type="line"/>
      <point x="891" y="722" type="line"/>
      <point x="918" y="991" type="line"/>
      <point x="204" y="991" type="line"/>
      <point x="176" y="722" type="line"/>
      <point x="568" y="722" type="line"/>
      <point x="137" y="269" type="line"/>
    </contour>
  </outline>
</glyph>
<glyph name="braceleft" format="2">
  <advance width="795"/>
  <unicode hex="007B"/>
  <outline>
    <contour>
      <point x="762" y="-355" type="curve"/>
      <point x="789" y="-50" type="line"/>
      <point x="616" y="-50"/>
      <point x="526" y="18"/>
      <point x="546" y="194" type="curve" smooth="yes"/>
      <point x="567" y="393" type="line"/>
      <point x="581" y="526"/>
      <point x="522" y="620"/>
      <point x="446" y="667" type="curve"/>
      <point x="444" y="680" type="line"/>
      <point x="533" y="725"/>
      <point x="605" y="822"/>
      <point x="617" y="954" type="curve" smooth="yes"/>
      <point x="638" y="1156" type="line"/>
      <point x="655" y="1335"/>
      <point x="751" y="1398"/>
      <point x="927" y="1398" type="curve"/>
      <point x="956" y="1703" type="line"/>
      <point x="571" y="1703"/>
      <point x="374" y="1483"/>
      <point x="344" y="1162" type="curve" smooth="yes"/>
      <point x="323" y="976" type="line"/>
      <point x="316" y="869"/>
      <point x="307" y="844"/>
      <point x="256" y="844" type="curve" smooth="yes"/>
      <point x="196" y="844" type="line"/>
      <point x="164" y="503" type="line"/>
      <point x="229" y="503" type="line" smooth="yes"/>
      <point x="278" y="503"/>
      <point x="280" y="477"/>
      <point x="268" y="372" type="curve"/>
      <point x="252" y="192" type="line" smooth="yes"/>
      <point x="222" y="-128"/>
      <point x="376" y="-355"/>
    </contour>
  </outline>
</glyph>
<glyph name="bar" format="2">
  <advance width="601"/>
  <unicode hex="007C"/>
  <outline>
    <contour>
      <point x="127" y="-244" type="line"/>
      <point x="423" y="-244" type="line"/>
      <point x="600" y="1593" type="line"/>
      <point x="304" y="1593" type="line"/>
    </contour>
  </outline>
</glyph>
<glyph name="braceright" format="2">
  <advance width="1020"/>
  <unicode hex="007D"/>
  <outline>
    <contour>
      <point x="-61" y="-355" type="line"/>
      <point x="325" y="-355"/>
      <point x="522" y="-135"/>
      <point x="552" y="185" type="curve" smooth="yes"/>
      <point x="572" y="372" type="line" smooth="yes"/>
      <point x="582" y="479"/>
      <point x="589" y="503"/>
      <point x="639" y="503" type="curve" smooth="yes"/>
      <point x="700" y="503" type="line"/>
      <point x="732" y="844" type="line"/>
      <point x="666" y="844" type="line" smooth="yes"/>
      <point x="630" y="844"/>
      <point x="623" y="866"/>
      <point x="623" y="888" type="curve" smooth="yes"/>
      <point x="623" y="914"/>
      <point x="625" y="948"/>
      <point x="627" y="976" type="curve" smooth="yes"/>
      <point x="643" y="1156" type="line" smooth="yes"/>
      <point x="650" y="1194"/>
      <point x="647" y="1226"/>
      <point x="647" y="1259" type="curve" smooth="yes"/>
      <point x="638" y="1522"/>
      <point x="474" y="1703"/>
      <point x="134" y="1703" type="curve"/>
      <point x="106" y="1398" type="line"/>
      <point x="260" y="1398"/>
      <point x="344" y="1349"/>
      <point x="353" y="1218" type="curve" smooth="yes"/>
      <point x="353" y="1207"/>
      <point x="353" y="1193"/>
      <point x="349" y="1154" type="curve" smooth="yes"/>
      <point x="329" y="954" type="line" smooth="yes"/>
      <point x="327" y="934"/>
      <point x="327" y="920"/>
      <point x="327" y="902" type="curve" smooth="yes"/>
      <point x="331" y="797"/>
      <point x="381" y="719"/>
      <point x="449" y="680" type="curve"/>
      <point x="449" y="665" type="line"/>
      <point x="360" y="620"/>
      <point x="290" y="526"/>
      <point x="278" y="393" type="curve" smooth="yes"/>
      <point x="258" y="192" type="line" smooth="yes"/>
      <point x="240" y="13"/>
      <point x="145" y="-50"/>
      <point x="-31" y="-50" type="curve"/>
    </contour>
  </outline>
</glyph>
<glyph name="asciitilde" format="2">
  <advance width="1146"/>
  <unicode hex="007E"/>
  <anchor x="492" y="350" name="_above"/>
  <outline>
    <contour>
      <point x="300" y="362" type="line"/>
      <point x="347" y="453"/>
      <point x="380" y="489"/>
      <point x="433" y="489" type="curve" smooth="yes"/>
      <point x="471" y="489"/>
      <point x="510" y="471"/>
      <point x="584" y="447" type="curve" smooth="yes"/>
      <point x="663" y="404"/>
      <point x="722" y="391"/>
      <point x="767" y="391" type="curve" smooth="yes"/>
      <point x="912" y="391"/>
      <point x="1025" y="494"/>
      <point x="1099" y="695" type="curve"/>
      <point x="948" y="811" type="line"/>
      <point x="916" y="737"/>
      <point x="874" y="701"/>
      <point x="824" y="701" type="curve" smooth="yes"/>
      <point x="786" y="701"/>
      <point x="734" y="717"/>
      <point x="666" y="751" type="curve" smooth="yes"/>
      <point x="587" y="784"/>
      <point x="526" y="807"/>
      <point x="464" y="807" type="curve" smooth="yes"/>
      <point x="306" y="807"/>
      <point x="223" y="665"/>
      <point x="158" y="457" type="curve"/>
    </contour>
  </outline>
</glyph>
<glyph name="cent" format="2">
  <advance width="988"/>
  <unicode hex="00A2"/>
  <anchor x="453" y="0" name="bottom"/>
  <anchor x="515" y="991" name="top"/>
  <outline>
    <contour>
      <point x="391" y="950" type="line"/>
      <point x="685" y="950" type="line"/>
      <point x="737" y="1123" type="line"/>
      <point x="441" y="1123" type="line"/>
    </contour>
    <contour>
      <point x="195" y="-146" type="line"/>
      <point x="489" y="-146" type="line"/>
      <point x="542" y="27" type="line"/>
      <point x="247" y="27" type="line"/>
    </contour>
    <component base="c" xOffset="-109"/>
  </outline>
</glyph>
<glyph name="sterling" format="2">
  <advance width="1166"/>
  <unicode hex="00A3"/>
  <outline>
    <contour>
      <point x="45" y="0" type="line"/>
      <point x="602" y="0" type="line" smooth="yes"/>
      <point x="962" y="0"/>
      <point x="1113" y="158"/>
      <point x="1138" y="440" type="curve"/>
      <point x="808" y="440" type="line"/>
      <point x="791" y="346"/>
      <point x="746" y="305"/>
      <point x="625" y="305" type="curve" smooth="yes"/>
      <point x="482" y="305" type="line"/>
      <point x="528" y="354"/>
      <point x="554" y="416"/>
      <point x="564" y="498" type="curve" smooth="yes"/>
      <point x="571" y="595" type="line"/>
      <point x="855" y="595" type="line"/>
      <point x="874" y="809" type="line"/>
      <point x="590" y="809" type="line"/>
      <point x="598" y="917" type="line" smooth="yes"/>
      <point x="612" y="1023"/>
      <point x="670" y="1079"/>
      <point x="731" y="1079" type="curve" smooth="yes"/>
      <point x="793" y="1079"/>
      <point x="820" y="1036"/>
      <point x="816" y="967" type="curve"/>
      <point x="1108" y="967" type="line"/>
      <point x="1105" y="1242"/>
      <point x="992" y="1377"/>
      <point x="758" y="1377" type="curve" smooth="yes"/>
      <point x="531" y="1377"/>
      <point x="333" y="1236"/>
      <point x="302" y="917" type="curve" smooth="yes"/>
      <point x="291" y="809" type="line"/>
      <point x="158" y="809" type="line"/>
      <point x="139" y="595" type="line"/>
      <point x="275" y="595" type="line"/>
      <point x="264" y="472" type="line" smooth="yes"/>
      <point x="249" y="359"/>
      <point x="225" y="305"/>
      <point x="138" y="305" type="curve" smooth="yes"/>
      <point x="74" y="305" type="line"/>
    </contour>
  </outline>
</glyph>
<glyph name="currency" format="2">
  <advance width="1200"/>
  <unicode hex="00A4"/>
  <outline>
    <contour>
      <point x="563" y="168" type="curve" smooth="yes"/>
      <point x="846" y="168"/>
      <point x="1087" y="395"/>
      <point x="1109" y="674" type="curve" smooth="yes"/>
      <point x="1132" y="957"/>
      <point x="919" y="1184"/>
      <point x="639" y="1184" type="curve" smooth="yes"/>
      <point x="360" y="1184"/>
      <point x="114" y="958"/>
      <point x="93" y="674" type="curve" smooth="yes"/>
      <point x="73" y="394"/>
      <point x="281" y="168"/>
    </contour>
    <contour>
      <point x="164" y="95" type="line"/>
      <point x="466" y="376" type="line"/>
      <point x="296" y="557" type="line"/>
      <point x="0" y="275" type="line"/>
    </contour>
    <contour>
      <point x="958" y="96" type="line"/>
      <point x="1155" y="276" type="line"/>
      <point x="919" y="524" type="line"/>
      <point x="727" y="344" type="line"/>
    </contour>
    <contour>
      <point x="587" y="448" type="curve" smooth="yes"/>
      <point x="465" y="448"/>
      <point x="366" y="548"/>
      <point x="374" y="674" type="curve" smooth="yes"/>
      <point x="382" y="791"/>
      <point x="485" y="903"/>
      <point x="616" y="903" type="curve" smooth="yes"/>
      <point x="737" y="903"/>
      <point x="838" y="802"/>
      <point x="829" y="674" type="curve" smooth="yes"/>
      <point x="820" y="559"/>
      <point x="718" y="448"/>
    </contour>
    <contour>
      <point x="287" y="811" type="line"/>
      <point x="479" y="993" type="line"/>
      <point x="233" y="1246" type="line"/>
      <point x="41" y="1066" type="line"/>
    </contour>
    <contour>
      <point x="936" y="823" type="line"/>
      <point x="1205" y="1078" type="line"/>
      <point x="1041" y="1258" type="line"/>
      <point x="769" y="1003" type="line"/>
    </contour>
  </outline>
</glyph>
<glyph name="yen" format="2">
  <advance width="1208"/>
  <unicode hex="00A5"/>
  <anchor x="534" y="0" name="bottom"/>
  <anchor x="724" y="1346" name="top"/>
  <anchor x="140" y="1346" name="topleft"/>
  <outline>
    <contour>
      <point x="1042" y="380" type="line"/>
      <point x="1054" y="552" type="line"/>
      <point x="200" y="552" type="line"/>
      <point x="185" y="380" type="line"/>
    </contour>
    <contour>
      <point x="1007" y="128" type="line"/>
      <point x="1022" y="304" type="line"/>
      <point x="165" y="304" type="line"/>
      <point x="148" y="128" type="line"/>
    </contour>
    <component base="Y"/>
  </outline>
</glyph>
<glyph name="brokenbar" format="2">
  <advance width="601"/>
  <unicode hex="00A6"/>
  <outline>
    <contour>
      <point x="127" y="-244" type="line"/>
      <point x="423" y="-244" type="line"/>
      <point x="499.793" y="553" type="line"/>
      <point x="203.793" y="553" type="line"/>
    </contour>
    <contour>
      <point x="227.303" y="797" type="line"/>
      <point x="523.303" y="797" type="line"/>
      <point x="600" y="1593" type="line"/>
      <point x="304" y="1593" type="line"/>
    </contour>
  </outline>
</glyph>
<glyph name="section" format="2">
  <advance width="954"/>
  <unicode hex="00A7"/>
  <outline>
    <contour>
      <point x="500" y="168" type="line"/>
      <point x="775" y="174"/>
      <point x="937" y="343"/>
      <point x="950" y="501" type="curve" smooth="yes"/>
      <point x="960" y="624"/>
      <point x="879" y="703"/>
      <point x="777" y="751" type="curve" smooth="yes"/>
      <point x="536" y="864" type="line" smooth="yes"/>
      <point x="517" y="873"/>
      <point x="489" y="887"/>
      <point x="492" y="915" type="curve" smooth="yes"/>
      <point x="495" y="950"/>
      <point x="538" y="973"/>
      <point x="595" y="973" type="curve" smooth="yes"/>
      <point x="660" y="973"/>
      <point x="688" y="943"/>
      <point x="685" y="901" type="curve"/>
      <point x="960" y="901" type="line"/>
      <point x="974" y="1089"/>
      <point x="869" y="1230"/>
      <point x="607" y="1230" type="curve" smooth="yes"/>
      <point x="377" y="1230"/>
      <point x="199" y="1121"/>
      <point x="180" y="936" type="curve" smooth="yes"/>
      <point x="167" y="811"/>
      <point x="233" y="710"/>
      <point x="349" y="659" type="curve" smooth="yes"/>
      <point x="559" y="566" type="line" smooth="yes"/>
      <point x="593" y="551"/>
      <point x="621" y="536"/>
      <point x="617" y="501" type="curve" smooth="yes"/>
      <point x="613" y="467"/>
      <point x="581" y="435"/>
      <point x="496" y="428" type="curve"/>
    </contour>
    <contour>
      <point x="446" y="-225" type="curve" smooth="yes"/>
      <point x="713" y="-225"/>
      <point x="877" y="-57"/>
      <point x="890" y="101" type="curve" smooth="yes"/>
      <point x="900" y="224"/>
      <point x="819" y="303"/>
      <point x="717" y="351" type="curve" smooth="yes"/>
      <point x="476" y="464" type="line" smooth="yes"/>
      <point x="457" y="473"/>
      <point x="429" y="487"/>
      <point x="432" y="515" type="curve" smooth="yes"/>
      <point x="436" y="553"/>
      <point x="483" y="574"/>
      <point x="541" y="577" type="curve"/>
      <point x="548" y="834" type="line"/>
      <point x="315" y="830"/>
      <point x="139" y="720"/>
      <point x="120" y="536" type="curve" smooth="yes"/>
      <point x="107" y="411"/>
      <point x="173" y="310"/>
      <point x="289" y="259" type="curve" smooth="yes"/>
      <point x="499" y="166" type="line" smooth="yes"/>
      <point x="526" y="154"/>
      <point x="562" y="138"/>
      <point x="557" y="101" type="curve" smooth="yes"/>
      <point x="553" y="70"/>
      <point x="523" y="35"/>
      <point x="438" y="35" type="curve" smooth="yes"/>
      <point x="364" y="35"/>
      <point x="329" y="62"/>
      <point x="340" y="123" type="curve"/>
      <point x="67" y="123" type="line"/>
      <point x="36" y="-120"/>
      <point x="235" y="-225"/>
    </contour>
  </outline>
</glyph>
<glyph name="dieresis" format="2">
  <advance width="815"/>
  <unicode hex="00A8"/>
  <anchor x="290" y="1360" name="_above"/>
  <outline>
    <contour>
      <point x="200" y="1687" type="curve" smooth="yes"/>
      <point x="190" y="1589"/>
      <point x="254" y="1518"/>
      <point x="352" y="1518" type="curve" smooth="yes"/>
      <point x="444" y="1518"/>
      <point x="518" y="1589"/>
      <point x="531" y="1687" type="curve" smooth="yes"/>
      <point x="537" y="1789"/>
      <point x="477" y="1859"/>
      <point x="381" y="1859" type="curve" smooth="yes"/>
      <point x="283" y="1859"/>
      <point x="206" y="1789"/>
    </contour>
    <contour>
      <point x="603" y="1691" type="curve" smooth="yes"/>
      <point x="593" y="1589"/>
      <point x="660" y="1523"/>
      <point x="756" y="1523" type="curve" smooth="yes"/>
      <point x="851" y="1523"/>
      <point x="921" y="1589"/>
      <point x="930" y="1691" type="curve" smooth="yes"/>
      <point x="940" y="1789"/>
      <point x="880" y="1864"/>
      <point x="784" y="1864" type="curve" smooth="yes"/>
      <point x="688" y="1864"/>
      <point x="609" y="1789"/>
    </contour>
  </outline>
</glyph>
<glyph name="copyright" format="2">
  <advance width="1466"/>
  <unicode hex="00A9"/>
  <anchor x="752.0032" y="276.0" name="bottom"/>
  <anchor x="772.0033599999999" y="1067.77104" name="top"/>
  <outline>
    <contour>
      <point x="686" y="-13" type="curve" smooth="yes"/>
      <point x="1062" y="-13"/>
      <point x="1402" y="293"/>
      <point x="1442" y="672" type="curve" smooth="yes"/>
      <point x="1482" y="1049"/>
      <point x="1207" y="1356"/>
      <point x="830" y="1356" type="curve" smooth="yes"/>
      <point x="452" y="1356"/>
      <point x="113" y="1049"/>
      <point x="73" y="672" type="curve" smooth="yes"/>
      <point x="33" y="294"/>
      <point x="308" y="-13"/>
    </contour>
    <contour>
      <point x="703" y="142" type="curve" smooth="yes"/>
      <point x="411" y="142"/>
      <point x="197" y="380"/>
      <point x="228" y="672" type="curve" smooth="yes"/>
      <point x="259" y="965"/>
      <point x="522" y="1201"/>
      <point x="813" y="1201" type="curve" smooth="yes"/>
      <point x="1105" y="1201"/>
      <point x="1318" y="964"/>
      <point x="1287" y="672" type="curve" smooth="yes"/>
      <point x="1256" y="379"/>
      <point x="994" y="142"/>
    </contour>
    <component base="C" xScale="0.58824" yScale="0.58824" xOffset="352" yOffset="276"/>
  </outline>
</glyph>
<glyph name="logicalnot" format="2">
  <advance width="1200"/>
  <unicode hex="00AC"/>
  <outline>
    <contour>
      <point x="237" y="719" type="line"/>
      <point x="204" y="480" type="line"/>
      <point x="800" y="480" type="line"/>
      <point x="750" y="540" type="line"/>
      <point x="717" y="302" type="line"/>
      <point x="917" y="302" type="line"/>
      <point x="975" y="719" type="line"/>
    </contour>
  </outline>
</glyph>
<glyph name="degree" format="2">
  <advance width="794"/>
  <unicode hex="00B0"/>
  <outline>
    <contour>
      <point x="487" y="1013" type="curve" smooth="yes"/>
      <point x="654" y="1013"/>
      <point x="803" y="1150"/>
      <point x="818" y="1319" type="curve" smooth="yes"/>
      <point x="833" y="1487"/>
      <point x="707" y="1624"/>
      <point x="539" y="1624" type="curve" smooth="yes"/>
      <point x="371" y="1624"/>
      <point x="222" y="1487"/>
      <point x="207" y="1319" type="curve" smooth="yes"/>
      <point x="192" y="1150"/>
      <point x="318" y="1013"/>
    </contour>
    <contour>
      <point x="502" y="1196" type="curve" smooth="yes"/>
      <point x="434" y="1196"/>
      <point x="383" y="1250"/>
      <point x="390" y="1319" type="curve" smooth="yes"/>
      <point x="397" y="1384"/>
      <point x="452" y="1441"/>
      <point x="523" y="1441" type="curve" smooth="yes"/>
      <point x="591" y="1441"/>
      <point x="641" y="1389"/>
      <point x="635" y="1319" type="curve" smooth="yes"/>
      <point x="629" y="1247"/>
      <point x="568" y="1196"/>
    </contour>
  </outline>
</glyph>
<glyph name="plusminus" format="2">
  <advance width="1290"/>
  <unicode hex="00B1"/>
  <outline>
    <contour>
      <point x="608" y="1208" type="line"/>
      <point x="587" y="1001" type="line"/>
      <point x="360" y="1001" type="line"/>
      <point x="331" y="709" type="line"/>
      <point x="562" y="709" type="line"/>
      <point x="538" y="499" type="line"/>
      <point x="835" y="499" type="line"/>
      <point x="854" y="709" type="line"/>
      <point x="1073" y="709" type="line"/>
      <point x="1102" y="1001" type="line"/>
      <point x="884" y="1001" type="line"/>
      <point x="904" y="1208" type="line"/>
    </contour>
    <component base="minus" xOffset="142" yOffset="-336"/>
  </outline>
</glyph>
<glyph name="paragraph" format="2">
  <advance width="1200"/>
  <unicode hex="00B6"/>
  <outline>
    <contour>
      <point x="526" y="459" type="curve" smooth="yes"/>
      <point x="690" y="459" type="line"/>
      <point x="752" y="1053" type="line"/>
      <point x="1110" y="1053" type="line"/>
      <point x="1140" y="1342" type="line"/>
      <point x="618" y="1342" type="line" smooth="yes"/>
      <point x="317" y="1342"/>
      <point x="99" y="1198"/>
      <point x="68" y="902" type="curve" smooth="yes"/>
      <point x="38" y="611"/>
      <point x="218" y="459"/>
    </contour>
    <contour>
      <point x="445" y="-252" type="line"/>
      <point x="677" y="-252" type="line"/>
      <point x="843" y="1342" type="line"/>
      <point x="611" y="1342" type="line"/>
    </contour>
    <contour>
      <point x="775" y="-252" type="line"/>
      <point x="1007" y="-252" type="line"/>
      <point x="1173" y="1342" type="line"/>
      <point x="941" y="1342" type="line"/>
    </contour>
  </outline>
</glyph>
<glyph name="AE" format="2">
  <advance width="1645"/>
  <unicode hex="00C6"/>
  <guideline x="1041" y="288" angle="264.6183"/>
  <guideline x="-392" y="232" angle="0"/>
  <outline>
    <contour>
      <point x="33" y="0" type="line"/>
      <point x="346" y="0" type="line"/>
      <point x="470" y="318" type="line"/>
      <point x="399" y="292" type="line"/>
      <point x="823" y="292" type="line"/>
      <point x="782" y="321" type="line"/>
      <point x="752" y="0" type="line"/>
      <point x="1510" y="0" type="line"/>
      <point x="1537" y="288" type="line"/>
      <point x="944" y="288" type="line"/>
      <point x="1070" y="167" type="line"/>
      <point x="1110" y="591" type="line"/>
      <point x="976" y="526" type="line"/>
      <point x="1525" y="526" type="line"/>
      <point x="1548" y="814" type="line"/>
      <point x="997" y="814" type="line"/>
      <point x="1121" y="713" type="line"/>
      <point x="1161" y="1137" type="line"/>
      <point x="1029" y="1061" type="line"/>
      <point x="1612" y="1061" type="line"/>
      <point x="1632" y="1346" type="line"/>
      <point x="579" y="1346" type="line"/>
    </contour>
    <contour>
      <point x="791" y="415" type="line"/>
      <point x="839" y="535" type="line"/>
      <point x="471" y="535" type="line"/>
      <point x="510" y="418" type="line"/>
      <point x="788" y="1134" type="line"/>
      <point x="717" y="1061" type="line"/>
      <point x="899" y="1061" type="line"/>
      <point x="859" y="1132" type="line"/>
    </contour>
  </outline>
</glyph>
<glyph name="Eth" format="2">
  <advance width="1287"/>
  <unicode hex="00D0"/>
  <anchor x="574" y="0" name="bottom"/>
  <anchor x="669" y="673" name="center"/>
  <anchor x="764" y="1346" name="top"/>
  <outline>
    <contour>
      <point x="114" y="826" type="line"/>
      <point x="77" y="523" type="line"/>
      <point x="653" y="523" type="line"/>
      <point x="690" y="826" type="line"/>
    </contour>
    <component base="D"/>
  </outline>
</glyph>
<glyph name="multiply" format="2">
  <advance width="980"/>
  <unicode hex="00D7"/>
  <outline>
    <contour>
      <point x="210" y="69" type="line"/>
      <point x="514" y="321" type="line"/>
      <point x="449" y="326" type="line"/>
      <point x="712" y="63" type="line"/>
      <point x="936" y="247" type="line"/>
      <point x="673" y="510" type="line"/>
      <point x="671" y="451" type="line"/>
      <point x="973" y="701" type="line"/>
      <point x="765" y="909" type="line"/>
      <point x="461" y="661" type="line"/>
      <point x="527" y="656" type="line"/>
      <point x="264" y="919" type="line"/>
      <point x="40" y="735" type="line"/>
      <point x="303" y="472" type="line"/>
      <point x="302" y="531" type="line"/>
      <point x="7" y="279" type="line"/>
    </contour>
  </outline>
</glyph>
<glyph name="Thorn" format="2">
  <advance width="1104"/>
  <unicode hex="00DE"/>
  <guideline x="493" y="531" angle="84.6157"/>
  <outline>
    <contour>
      <point x="143" y="0" type="line"/>
      <point x="443" y="0" type="line"/>
      <point x="472" y="304" type="line"/>
      <point x="440" y="255" type="line"/>
      <point x="654" y="255" type="line" smooth="yes"/>
      <point x="933" y="255"/>
      <point x="1131" y="408"/>
      <point x="1158" y="703" type="curve" smooth="yes"/>
      <point x="1185" y="1003"/>
      <point x="1020" y="1146"/>
      <point x="737" y="1146" type="curve" smooth="yes"/>
      <point x="506" y="1146" type="line"/>
      <point x="547" y="1101" type="line"/>
      <point x="570" y="1346" type="line"/>
      <point x="270" y="1346" type="line"/>
    </contour>
    <contour>
      <point x="487" y="470" type="line"/>
      <point x="532" y="946" type="line"/>
      <point x="468" y="861" type="line"/>
      <point x="709" y="861" type="line" smooth="yes"/>
      <point x="815" y="861"/>
      <point x="858" y="787"/>
      <point x="849" y="703" type="curve" smooth="yes"/>
      <point x="840" y="619"/>
      <point x="782" y="545"/>
      <point x="681" y="545" type="curve" smooth="yes"/>
      <point x="439" y="545" type="line"/>
    </contour>
  </outline>
</glyph>
<glyph name="germandbls" format="2">
  <advance width="1281"/>
  <unicode hex="00DF"/>
  <guideline x="417" y="0" angle="84.1019"/>
  <outline>
    <contour>
      <point x="807" y="-28" type="curve" smooth="yes"/>
      <point x="1091" y="-28"/>
      <point x="1249" y="122"/>
      <point x="1249" y="325" type="curve" smooth="yes"/>
      <point x="1249" y="586"/>
      <point x="990" y="593"/>
      <point x="990" y="697" type="curve" smooth="yes"/>
      <point x="990" y="791"/>
      <point x="1199" y="848"/>
      <point x="1199" y="1057" type="curve" smooth="yes"/>
      <point x="1199" y="1206"/>
      <point x="1094" y="1400"/>
      <point x="754" y="1400" type="curve" smooth="yes"/>
      <point x="475" y="1400"/>
      <point x="249" y="1237"/>
      <point x="221" y="968" type="curve" smooth="yes"/>
      <point x="121" y="0" type="line"/>
      <point x="417" y="0" type="line"/>
      <point x="509" y="894" type="line" smooth="yes"/>
      <point x="525" y="1049"/>
      <point x="584" y="1106"/>
      <point x="728" y="1106" type="curve" smooth="yes"/>
      <point x="856" y="1106"/>
      <point x="903" y="1052"/>
      <point x="903" y="988" type="curve" smooth="yes"/>
      <point x="903" y="852"/>
      <point x="693" y="809"/>
      <point x="693" y="671" type="curve" smooth="yes"/>
      <point x="693" y="516"/>
      <point x="955" y="498"/>
      <point x="955" y="363" type="curve" smooth="yes"/>
      <point x="955" y="292"/>
      <point x="882" y="258"/>
      <point x="779" y="258" type="curve" smooth="yes"/>
      <point x="695" y="258"/>
      <point x="638" y="280"/>
      <point x="575" y="312" type="curve"/>
      <point x="555" y="26" type="line"/>
      <point x="638" y="-15"/>
      <point x="723" y="-28"/>
    </contour>
  </outline>
</glyph>
<glyph name="ae" format="2">
  <advance width="1604"/>
  <unicode hex="00E6"/>
  <outline>
    <contour>
      <point x="90" y="303" type="curve" smooth="yes"/>
      <point x="73" y="118"/>
      <point x="202" y="-35"/>
      <point x="436" y="-35" type="curve" smooth="yes"/>
      <point x="592" y="-35"/>
      <point x="751" y="33"/>
      <point x="820" y="191" type="curve"/>
      <point x="790" y="190" type="line"/>
      <point x="862" y="46"/>
      <point x="982" y="-35"/>
      <point x="1132" y="-35" type="curve" smooth="yes"/>
      <point x="1339" y="-35"/>
      <point x="1511" y="120"/>
      <point x="1551" y="302" type="curve"/>
      <point x="1255" y="302" type="line"/>
      <point x="1235" y="252"/>
      <point x="1195" y="229"/>
      <point x="1145" y="229" type="curve" smooth="yes"/>
      <point x="1046" y="229"/>
      <point x="1002" y="321"/>
      <point x="1025" y="449" type="curve"/>
      <point x="975" y="409" type="line"/>
      <point x="1559" y="409" type="line"/>
      <point x="1564" y="433"/>
      <point x="1570" y="448"/>
      <point x="1577" y="478" type="curve" smooth="yes"/>
      <point x="1639" y="742"/>
      <point x="1516" y="1020"/>
      <point x="1247" y="1020" type="curve" smooth="yes"/>
      <point x="1124" y="1020"/>
      <point x="995" y="962"/>
      <point x="897" y="859" type="curve"/>
      <point x="929" y="857" type="line"/>
      <point x="894" y="969"/>
      <point x="803" y="1020"/>
      <point x="626" y="1020" type="curve" smooth="yes"/>
      <point x="368" y="1020"/>
      <point x="184" y="911"/>
      <point x="163" y="674" type="curve"/>
      <point x="484" y="674" type="line"/>
      <point x="494" y="731"/>
      <point x="536" y="783"/>
      <point x="630" y="783" type="curve" smooth="yes"/>
      <point x="729" y="783"/>
      <point x="745" y="726"/>
      <point x="735" y="633" type="curve" smooth="yes"/>
      <point x="723" y="523" type="line"/>
      <point x="757" y="565" type="line"/>
      <point x="673" y="573"/>
      <point x="606" y="590"/>
      <point x="505" y="590" type="curve" smooth="yes"/>
      <point x="243" y="590"/>
      <point x="106" y="475"/>
    </contour>
    <contour>
      <point x="411" y="303" type="curve" smooth="yes"/>
      <point x="414" y="354"/>
      <point x="477" y="381"/>
      <point x="552" y="381" type="curve" smooth="yes"/>
      <point x="611" y="381"/>
      <point x="696" y="364"/>
      <point x="728" y="352" type="curve"/>
      <point x="720" y="385" type="line"/>
      <point x="689" y="308"/>
      <point x="658" y="214"/>
      <point x="544" y="214" type="curve" smooth="yes"/>
      <point x="476" y="214"/>
      <point x="408" y="248"/>
    </contour>
    <contour>
      <point x="1037" y="569" type="line"/>
      <point x="1048" y="686"/>
      <point x="1111" y="757"/>
      <point x="1200" y="757" type="curve" smooth="yes"/>
      <point x="1293" y="757"/>
      <point x="1315" y="680"/>
      <point x="1311" y="607" type="curve"/>
      <point x="998" y="607" type="line"/>
    </contour>
  </outline>
</glyph>
<glyph name="eth" format="2">
  <advance width="1148"/>
  <unicode hex="00F0"/>
  <outline>
    <contour>
      <point x="536" y="-28" type="curve" smooth="yes"/>
      <point x="843" y="-28"/>
      <point x="1131" y="226"/>
      <point x="1131" y="767" type="curve" smooth="yes"/>
      <point x="1131" y="1051"/>
      <point x="1052" y="1374"/>
      <point x="765" y="1680" type="curve"/>
      <point x="487" y="1538" type="line"/>
      <point x="727" y="1298"/>
      <point x="911" y="1066"/>
      <point x="917" y="636" type="curve"/>
      <point x="930" y="631" type="line"/>
      <point x="930" y="926"/>
      <point x="741" y="998"/>
      <point x="609" y="998" type="curve" smooth="yes"/>
      <point x="381" y="998"/>
      <point x="109" y="783"/>
      <point x="109" y="420" type="curve" smooth="yes"/>
      <point x="109" y="107"/>
      <point x="312" y="-28"/>
    </contour>
    <contour>
      <point x="549" y="216" type="curve" smooth="yes"/>
      <point x="459" y="216"/>
      <point x="417" y="284"/>
      <point x="417" y="422" type="curve" smooth="yes"/>
      <point x="417" y="625"/>
      <point x="507" y="744"/>
      <point x="614" y="744" type="curve" smooth="yes"/>
      <point x="687" y="744"/>
      <point x="755" y="688"/>
      <point x="755" y="533" type="curve" smooth="yes"/>
      <point x="755" y="380"/>
      <point x="689" y="216"/>
    </contour>
    <contour>
      <point x="563" y="1096" type="line"/>
      <point x="1181" y="1436" type="line"/>
      <point x="1079" y="1618" type="line"/>
      <point x="463" y="1278" type="line"/>
    </contour>
  </outline>
</glyph>
<glyph name="thorn" format="2">
  <advance width="1132"/>
  <unicode hex="00FE"/>
  <guideline x="432" y="1298" angle="0"/>
  <guideline x="401" y="-479" angle="84.5353"/>
  <outline>
    <contour>
      <point x="105" y="-479" type="line"/>
      <point x="401" y="-479" type="line"/>
      <point x="448" y="32" type="line"/>
      <point x="492" y="-18"/>
      <point x="553" y="-35"/>
      <point x="643" y="-35" type="curve" smooth="yes"/>
      <point x="866" y="-35"/>
      <point x="1090" y="157"/>
      <point x="1121" y="493" type="curve" smooth="yes"/>
      <point x="1152" y="827"/>
      <point x="967" y="1020"/>
      <point x="754" y="1020" type="curve" smooth="yes"/>
      <point x="650" y="1020"/>
      <point x="550" y="970"/>
      <point x="486" y="843" type="curve"/>
      <point x="527" y="843" type="line"/>
      <point x="575" y="1346" type="line"/>
      <point x="279" y="1346" type="line"/>
    </contour>
    <contour>
      <point x="617" y="268" type="curve" smooth="yes"/>
      <point x="504" y="268"/>
      <point x="477" y="324"/>
      <point x="485" y="397" type="curve" smooth="yes"/>
      <point x="501" y="556" type="line" smooth="yes"/>
      <point x="509" y="655"/>
      <point x="578" y="721"/>
      <point x="670" y="721" type="curve" smooth="yes"/>
      <point x="780" y="721"/>
      <point x="838" y="630"/>
      <point x="825" y="493" type="curve" smooth="yes"/>
      <point x="809" y="335"/>
      <point x="696" y="268"/>
    </contour>
  </outline>
</glyph>
<glyph name="Hbar" format="2">
  <advance width="1349"/>
  <unicode hex="0126"/>
  <guideline x="511" y="673" angle="84.6099"/>
  <guideline x="1029" y="1346" angle="84.6099"/>
  <anchor x="743" y="739" name="_top"/>
  <anchor x="605" y="0" name="bottom"/>
  <anchor x="700" y="673" name="center"/>
  <anchor x="795" y="1346" name="top"/>
  <anchor x="140" y="1346" name="topleft"/>
  <outline>
    <contour>
      <point x="151" y="0" type="line"/>
      <point x="447" y="0" type="line"/>
      <point x="491" y="463" type="line"/>
      <point x="442" y="438" type="line"/>
      <point x="987" y="438" type="line"/>
      <point x="946" y="463" type="line"/>
      <point x="902" y="0" type="line"/>
      <point x="1198" y="0" type="line"/>
      <point x="1322" y="1346" type="line"/>
      <point x="1029" y="1346" type="line"/>
      <point x="965" y="668" type="line"/>
      <point x="1016" y="678" type="line"/>
      <point x="471" y="678" type="line"/>
      <point x="510" y="663" type="line"/>
      <point x="574" y="1346" type="line"/>
      <point x="278" y="1346" type="line"/>
    </contour>
    <contour>
      <point x="409" y="807" type="line"/>
      <point x="1171" y="807" type="line"/>
      <point x="1207" y="1046" type="line"/>
      <point x="445" y="1046" type="line"/>
    </contour>
  </outline>
</glyph>
<glyph name="idotless" format="2">
  <advance width="652"/>
  <unicode hex="0131"/>
  <anchor x="256" y="0" name="bottom"/>
  <anchor x="340" y="5" name="ogonek"/>
  <anchor x="396" y="991" name="top"/>
  <outline>
    <contour>
      <point x="181" y="0" type="line"/>
      <point x="477" y="0" type="line"/>
      <point x="572" y="993" type="line"/>
      <point x="276" y="993" type="line"/>
    </contour>
  </outline>
</glyph>
<glyph name="Eng" format="2">
  <advance width="1370"/>
  <unicode hex="014A"/>
  <anchor x="1733" y="0" name="bottom"/>
  <anchor x="1923" y="1346" name="top"/>
  <outline>
    <contour>
      <point x="466" y="-409" type="line"/>
      <point x="556" y="-457"/>
      <point x="664" y="-488"/>
      <point x="778" y="-488" type="curve" smooth="yes"/>
      <point x="997" y="-488"/>
      <point x="1176" y="-362"/>
      <point x="1210" y="0" type="curve" smooth="yes"/>
      <point x="1293" y="893" type="line"/>
      <point x="999" y="893" type="line"/>
      <point x="915" y="-1" type="line" smooth="yes"/>
      <point x="904" y="-120"/>
      <point x="855" y="-165"/>
      <point x="777" y="-165" type="curve" smooth="yes"/>
      <point x="704" y="-165"/>
      <point x="600" y="-146"/>
      <point x="502" y="-86" type="curve"/>
    </contour>
    <contour>
      <point x="147" y="0" type="line"/>
      <point x="441" y="0" type="line"/>
      <point x="528" y="908" type="line"/>
      <point x="471" y="911" type="line"/>
      <point x="923" y="0" type="line"/>
      <point x="1210" y="0" type="line"/>
      <point x="1337" y="1346" type="line"/>
      <point x="1041" y="1346" type="line"/>
      <point x="959" y="473" type="line"/>
      <point x="1012" y="470" type="line"/>
      <point x="584" y="1346" type="line"/>
      <point x="274" y="1346" type="line"/>
    </contour>
  </outline>
</glyph>
<glyph name="eng" format="2">
  <advance width="1212"/>
  <unicode hex="014B"/>
  <anchor x="1347" y="-504" name="bottom"/>
  <anchor x="1557" y="991" name="top"/>
  <outline>
    <contour>
      <point x="657" y="-514" type="curve" smooth="yes"/>
      <point x="880" y="-514"/>
      <point x="998" y="-397"/>
      <point x="1027" y="-94" type="curve" smooth="yes"/>
      <point x="1090" y="575" type="line" smooth="yes"/>
      <point x="1114" y="832"/>
      <point x="1029" y="1020"/>
      <point x="808" y="1020" type="curve" smooth="yes"/>
      <point x="701" y="1020"/>
      <point x="606" y="976"/>
      <point x="522" y="849" type="curve"/>
      <point x="506" y="991" type="line"/>
      <point x="248" y="991" type="line"/>
      <point x="154" y="0" type="line"/>
      <point x="450" y="0" type="line"/>
      <point x="487" y="412" type="line" smooth="yes"/>
      <point x="508" y="643"/>
      <point x="608" y="721"/>
      <point x="692" y="721" type="curve" smooth="yes"/>
      <point x="761" y="721"/>
      <point x="795" y="669"/>
      <point x="787" y="575" type="curve" smooth="yes"/>
      <point x="730" y="-86" type="line" smooth="yes"/>
      <point x="721" y="-195"/>
      <point x="680" y="-226"/>
      <point x="613" y="-226" type="curve" smooth="yes"/>
      <point x="556" y="-226"/>
      <point x="479" y="-203"/>
      <point x="433" y="-183" type="curve"/>
      <point x="404" y="-466" type="line"/>
      <point x="484" y="-492"/>
      <point x="560" y="-514"/>
    </contour>
  </outline>
</glyph>
<glyph name="OE" format="2">
  <advance width="1880"/>
  <unicode hex="0152"/>
  <anchor x="1306" y="1270" name="above"/>
  <anchor x="587" y="0" name="bottom"/>
  <anchor x="682" y="687" name="center"/>
  <anchor x="1114" y="10" name="ogonek"/>
  <anchor x="777" y="1346" name="top"/>
  <anchor x="141" y="1346" name="topleft"/>
  <anchor x="1413" y="1346" name="topright"/>
  <outline>
    <contour>
      <point x="930" y="1" type="curve"/>
      <point x="960" y="287" type="line"/>
      <point x="894" y="245"/>
      <point x="768" y="223"/>
      <point x="696" y="223" type="curve" smooth="yes"/>
      <point x="485" y="223"/>
      <point x="420" y="415"/>
      <point x="449" y="676" type="curve" smooth="yes"/>
      <point x="478" y="939"/>
      <point x="581" y="1081"/>
      <point x="789" y="1081" type="curve" smooth="yes"/>
      <point x="852" y="1081"/>
      <point x="955" y="1068"/>
      <point x="1027" y="1037" type="curve"/>
      <point x="1055" y="1345" type="line"/>
      <point x="1032" y="1353"/>
      <point x="878" y="1377"/>
      <point x="769" y="1377" type="curve" smooth="yes"/>
      <point x="437" y="1377"/>
      <point x="185" y="1154"/>
      <point x="139" y="676" type="curve" smooth="yes"/>
      <point x="95" y="217"/>
      <point x="283" y="-35"/>
      <point x="640" y="-35" type="curve" smooth="yes"/>
      <point x="743" y="-35"/>
      <point x="869" y="-14"/>
    </contour>
    <contour>
      <point x="925" y="0" type="line"/>
      <point x="1745" y="0" type="line"/>
      <point x="1767" y="288" type="line"/>
      <point x="1246" y="288" type="line"/>
      <point x="1269" y="526" type="line"/>
      <point x="1756" y="526" type="line"/>
      <point x="1785" y="814" type="line"/>
      <point x="1298" y="814" type="line"/>
      <point x="1321" y="1061" type="line"/>
      <point x="1844" y="1061" type="line"/>
      <point x="1869" y="1346" type="line"/>
      <point x="1052" y="1346" type="line"/>
    </contour>
  </outline>
</glyph>
<glyph name="florin" format="2">
  <advance width="617"/>
  <unicode hex="0192"/>
  <outline>
    <contour>
      <point x="46" y="-481" type="curve" smooth="yes"/>
      <point x="195" y="-481"/>
      <point x="344" y="-385"/>
      <point x="367" y="-148" type="curve" smooth="yes"/>
      <point x="478" y="1065" type="line" smooth="yes"/>
      <point x="483" y="1115"/>
      <point x="521" y="1140"/>
      <point x="562" y="1140" type="curve" smooth="yes"/>
      <point x="588" y="1140"/>
      <point x="613" y="1134"/>
      <point x="638" y="1127" type="curve"/>
      <point x="720" y="1378" type="line"/>
      <point x="653" y="1388"/>
      <point x="572" y="1400"/>
      <point x="503" y="1400" type="curve" smooth="yes"/>
      <point x="354" y="1400"/>
      <point x="203" y="1304"/>
      <point x="182" y="1067" type="curve" smooth="yes"/>
      <point x="71" y="-146" type="line" smooth="yes"/>
      <point x="66" y="-196"/>
      <point x="28" y="-221"/>
      <point x="-13" y="-221" type="curve" smooth="yes"/>
      <point x="-39" y="-221"/>
      <point x="-64" y="-215"/>
      <point x="-89" y="-208" type="curve"/>
      <point x="-171" y="-459" type="line"/>
      <point x="-104" y="-469"/>
      <point x="-23" y="-481"/>
    </contour>
    <contour>
      <point x="35" y="773" type="line"/>
      <point x="592" y="773" type="line"/>
      <point x="615" y="991" type="line"/>
      <point x="58" y="991" type="line"/>
    </contour>
  </outline>
</glyph>
<glyph name="jdotless" format="2">
  <advance width="645"/>
  <unicode hex="0237"/>
  <anchor x="183" y="-504" name="bottom"/>
  <anchor x="393" y="991" name="top"/>
  <outline>
    <contour>
      <point x="97" y="-514" type="curve" smooth="yes"/>
      <point x="313" y="-514"/>
      <point x="432" y="-397"/>
      <point x="460" y="-94" type="curve" smooth="yes"/>
      <point x="564" y="995" type="line"/>
      <point x="268" y="995" type="line"/>
      <point x="169" y="-86" type="line"/>
      <point x="158" y="-195"/>
      <point x="116" y="-226"/>
      <point x="45" y="-226" type="curve" smooth="yes"/>
      <point x="-7" y="-226"/>
      <point x="-86" y="-203"/>
      <point x="-132" y="-183" type="curve"/>
      <point x="-161" y="-466" type="line"/>
      <point x="-81" y="-492"/>
      <point x="-7" y="-514"/>
    </contour>
  </outline>
</glyph>
<glyph name="apostrophe" format="2">
  <advance width="539"/>
  <unicode hex="02BC"/>
  <outline>
    <contour>
      <point x="345" y="684" type="line"/>
      <point x="505" y="768"/>
      <point x="626" y="941"/>
      <point x="643" y="1103" type="curve"/>
      <point x="657" y="1257"/>
      <point x="587" y="1386"/>
      <point x="443" y="1386" type="curve" smooth="yes"/>
      <point x="328" y="1386"/>
      <point x="234" y="1301"/>
      <point x="223" y="1192" type="curve" smooth="yes"/>
      <point x="215" y="1097"/>
      <point x="279" y="1034"/>
      <point x="355" y="1011" type="curve"/>
      <point x="324" y="927"/>
      <point x="233" y="862"/>
      <point x="139" y="808" type="curve"/>
    </contour>
  </outline>
</glyph>
<glyph name="circumflex" format="2">
  <advance width="961"/>
  <unicode hex="02C6"/>
  <anchor x="368" y="1270" name="_above"/>
  <outline>
    <contour>
      <point x="662" y="1924" type="line"/>
      <point x="196" y="1590" type="line"/>
      <point x="366" y="1424" type="line"/>
      <point x="633" y="1610" type="line"/>
      <point x="860" y="1424" type="line"/>
      <point x="1071" y="1590" type="line"/>
    </contour>
  </outline>
</glyph>
<glyph name="tilde" format="2">
  <advance width="772"/>
  <unicode hex="02DC"/>
  <anchor x="326" y="1270" name="_above"/>
  <outline>
    <contour>
      <point x="295" y="1491" type="line"/>
      <point x="340" y="1569"/>
      <point x="380" y="1588"/>
      <point x="425" y="1588" type="curve" smooth="yes"/>
      <point x="449" y="1588"/>
      <point x="470" y="1576"/>
      <point x="511" y="1544" type="curve"/>
      <point x="568" y="1516"/>
      <point x="607" y="1491"/>
      <point x="656" y="1491" type="curve" smooth="yes"/>
      <point x="747" y="1491"/>
      <point x="858" y="1626"/>
      <point x="896" y="1792" type="curve"/>
      <point x="785" y="1882" type="line"/>
      <point x="753" y="1819"/>
      <point x="713" y="1791"/>
      <point x="681" y="1791" type="curve" smooth="yes"/>
      <point x="649" y="1791"/>
      <point x="617" y="1814"/>
      <point x="579" y="1839" type="curve" smooth="yes"/>
      <point x="528" y="1868"/>
      <point x="491" y="1882"/>
      <point x="453" y="1882" type="curve" smooth="yes"/>
      <point x="339" y="1882"/>
      <point x="235" y="1762"/>
      <point x="189" y="1569" type="curve"/>
    </contour>
  </outline>
</glyph>
<glyph name="gravecomb" format="2">
  <unicode hex="0300"/>
  <anchor x="537" y="991" name="_top"/>
  <anchor x="590" y="1546" name="top"/>
  <outline>
    <contour>
      <point x="788" y="1079" type="line"/>
      <point x="882" y="1284" type="line"/>
      <point x="357" y="1546" type="line"/>
      <point x="232" y="1265" type="line"/>
    </contour>
  </outline>
</glyph>
<glyph name="acutecomb" format="2">
  <unicode hex="0301"/>
  <anchor x="466" y="991" name="_top"/>
  <anchor x="499" y="1556" name="top"/>
  <outline>
    <contour>
      <point x="292" y="1159" type="line"/>
      <point x="886" y="1345" type="line"/>
      <point x="822" y="1626" type="line"/>
      <point x="246" y="1364" type="line"/>
    </contour>
  </outline>
</glyph>
<glyph name="circumflexcomb" format="2">
  <unicode hex="0302"/>
  <anchor x="619" y="991" name="_top"/>
  <anchor x="710" y="1635" name="top"/>
  <outline>
    <contour>
      <point x="407" y="1135" type="line"/>
      <point x="674" y="1321" type="line"/>
      <point x="901" y="1135" type="line"/>
      <point x="1112" y="1301" type="line"/>
      <point x="703" y="1635" type="line"/>
      <point x="237" y="1301" type="line"/>
    </contour>
  </outline>
</glyph>
<glyph name="tildecomb" format="2">
  <unicode hex="0303"/>
  <anchor x="530" y="991" name="_top"/>
  <anchor x="615" y="1593" name="top"/>
  <outline>
    <contour>
      <point x="341" y="1202" type="line"/>
      <point x="385" y="1281"/>
      <point x="429" y="1300"/>
      <point x="466" y="1300" type="curve" smooth="yes"/>
      <point x="496" y="1300"/>
      <point x="513" y="1288"/>
      <point x="557" y="1256" type="curve" smooth="yes"/>
      <point x="608" y="1219"/>
      <point x="656" y="1202"/>
      <point x="693" y="1202" type="curve" smooth="yes"/>
      <point x="795" y="1202"/>
      <point x="900" y="1333"/>
      <point x="941" y="1503" type="curve"/>
      <point x="830" y="1593" type="line"/>
      <point x="798" y="1530"/>
      <point x="758" y="1502"/>
      <point x="725" y="1502" type="curve" smooth="yes"/>
      <point x="694" y="1502"/>
      <point x="663" y="1526"/>
      <point x="623" y="1550" type="curve" smooth="yes"/>
      <point x="574" y="1579"/>
      <point x="536" y="1593"/>
      <point x="497" y="1593" type="curve" smooth="yes"/>
      <point x="384" y="1593"/>
      <point x="280" y="1473"/>
      <point x="234" y="1279" type="curve"/>
    </contour>
  </outline>
</glyph>
<glyph name="macroncomb" format="2">
  <unicode hex="0304"/>
  <anchor x="575" y="991" name="_top"/>
  <anchor x="636" y="1428" name="top"/>
  <outline>
    <contour>
      <point x="255" y="1428" type="line"/>
      <point x="219" y="1169" type="line"/>
      <point x="981" y="1169" type="line"/>
      <point x="1017" y="1428" type="line"/>
    </contour>
  </outline>
</glyph>
<glyph name="brevecomb" format="2">
  <unicode hex="0306"/>
  <anchor x="573" y="991" name="_top"/>
  <anchor x="650" y="1543" name="top"/>
  <outline>
    <contour>
      <point x="575" y="1171" type="curve" smooth="yes"/>
      <point x="800" y="1171"/>
      <point x="949" y="1298"/>
      <point x="983" y="1543" type="curve"/>
      <point x="739" y="1543" type="line"/>
      <point x="723" y="1428"/>
      <point x="677" y="1375"/>
      <point x="604" y="1375" type="curve" smooth="yes"/>
      <point x="531" y="1375"/>
      <point x="499" y="1428"/>
      <point x="515" y="1543" type="curve"/>
      <point x="271" y="1543" type="line"/>
      <point x="237" y="1298"/>
      <point x="350" y="1171"/>
    </contour>
  </outline>
</glyph>
<glyph name="dotaccentcomb" format="2">
  <unicode hex="0307"/>
  <anchor x="356" y="991" name="_top"/>
  <anchor x="441" y="1590" name="top"/>
  <outline>
    <contour>
      <point x="406" y="1250" type="curve" smooth="yes"/>
      <point x="502" y="1250"/>
      <point x="567" y="1315"/>
      <point x="580" y="1418" type="curve" smooth="yes"/>
      <point x="586" y="1516"/>
      <point x="531" y="1590"/>
      <point x="435" y="1590" type="curve" smooth="yes"/>
      <point x="339" y="1590"/>
      <point x="260" y="1516"/>
      <point x="254" y="1418" type="curve" smooth="yes"/>
      <point x="243" y="1315"/>
      <point x="310" y="1250"/>
    </contour>
  </outline>
</glyph>
<glyph name="dieresiscomb" format="2">
  <unicode hex="0308"/>
  <anchor x="558" y="991" name="_top"/>
  <anchor x="642" y="1590" name="top"/>
  <outline>
    <contour>
      <point x="406" y="1245" type="curve" smooth="yes"/>
      <point x="493" y="1245"/>
      <point x="572" y="1315"/>
      <point x="585" y="1414" type="curve" smooth="yes"/>
      <point x="591" y="1516"/>
      <point x="526" y="1586"/>
      <point x="435" y="1586" type="curve" smooth="yes"/>
      <point x="337" y="1586"/>
      <point x="260" y="1516"/>
      <point x="254" y="1414" type="curve" smooth="yes"/>
      <point x="243" y="1315"/>
      <point x="308" y="1245"/>
    </contour>
    <contour>
      <point x="809" y="1250" type="curve" smooth="yes"/>
      <point x="905" y="1250"/>
      <point x="970" y="1315"/>
      <point x="983" y="1418" type="curve" smooth="yes"/>
      <point x="989" y="1516"/>
      <point x="934" y="1590"/>
      <point x="838" y="1590" type="curve" smooth="yes"/>
      <point x="742" y="1590"/>
      <point x="663" y="1516"/>
      <point x="657" y="1418" type="curve" smooth="yes"/>
      <point x="646" y="1315"/>
      <point x="713" y="1250"/>
    </contour>
  </outline>
</glyph>
<glyph name="ringcomb" format="2">
  <unicode hex="030A"/>
  <anchor x="492" y="991" name="_top"/>
  <anchor x="581" y="1624" name="top"/>
  <outline>
    <contour>
      <point x="526" y="1088" type="curve" smooth="yes"/>
      <point x="678" y="1088"/>
      <point x="803" y="1213"/>
      <point x="803" y="1365" type="curve" smooth="yes"/>
      <point x="803" y="1517"/>
      <point x="678" y="1642"/>
      <point x="526" y="1642" type="curve" smooth="yes"/>
      <point x="374" y="1642"/>
      <point x="249" y="1517"/>
      <point x="249" y="1365" type="curve" smooth="yes"/>
      <point x="249" y="1213"/>
      <point x="374" y="1088"/>
    </contour>
    <contour>
      <point x="526" y="1293" type="curve" smooth="yes"/>
      <point x="486" y="1293"/>
      <point x="454" y="1325"/>
      <point x="454" y="1365" type="curve" smooth="yes"/>
      <point x="454" y="1405"/>
      <point x="486" y="1437"/>
      <point x="526" y="1437" type="curve" smooth="yes"/>
      <point x="566" y="1437"/>
      <point x="598" y="1405"/>
      <point x="598" y="1365" type="curve" smooth="yes"/>
      <point x="598" y="1325"/>
      <point x="566" y="1293"/>
    </contour>
  </outline>
</glyph>
<glyph name="hungarumlautcomb" format="2">
  <unicode hex="030B"/>
  <anchor x="496" y="991" name="_top"/>
  <anchor x="572" y="1528" name="top"/>
  <outline>
    <contour>
      <point x="725" y="1123" type="line"/>
      <point x="825" y="1449" type="line"/>
      <point x="614" y="1505" type="line"/>
      <point x="572" y="1154" type="line"/>
    </contour>
    <contour>
      <point x="419" y="1147" type="line"/>
      <point x="484" y="1486" type="line"/>
      <point x="269" y="1528" type="line"/>
      <point x="262" y="1170" type="line"/>
    </contour>
  </outline>
</glyph>
<glyph name="caroncomb" format="2">
  <unicode hex="030C"/>
  <anchor x="600" y="991" name="_top"/>
  <anchor x="642" y="1449" name="top"/>
  <outline>
    <contour>
      <point x="969" y="1655" type="line"/>
      <point x="702" y="1469" type="line"/>
      <point x="475" y="1655" type="line"/>
      <point x="264" y="1489" type="line"/>
      <point x="673" y="1155" type="line"/>
      <point x="1139" y="1489" type="line"/>
    </contour>
  </outline>
</glyph>
<glyph name="cedillacomb" format="2">
  <unicode hex="0327"/>
  <anchor x="250" y="0" name="_bottom"/>
  <anchor x="190" y="-427" name="bottom"/>
  <outline>
    <contour>
      <point x="1" y="-379" type="line"/>
      <point x="186" y="-470"/>
      <point x="453" y="-428"/>
      <point x="453" y="-273" type="curve" smooth="yes"/>
      <point x="453" y="-194"/>
      <point x="383" y="-101"/>
      <point x="174" y="-80" type="curve"/>
      <point x="205" y="-144" type="line"/>
      <point x="263" y="81" type="line"/>
      <point x="142" y="103" type="line"/>
      <point x="74" y="-151" type="line"/>
      <point x="201" y="-179"/>
      <point x="243" y="-210"/>
      <point x="242" y="-251" type="curve" smooth="yes"/>
      <point x="240" y="-307"/>
      <point x="158" y="-328"/>
      <point x="33" y="-278" type="curve"/>
    </contour>
  </outline>
</glyph>
<glyph name="ogonekcomb" format="2">
  <unicode hex="0328"/>
  <anchor x="306" y="10" name="_ogonek"/>
  <outline>
    <contour>
      <point x="576" y="-313" type="curve"/>
      <point x="504" y="-124" type="line"/>
      <point x="424" y="-164"/>
      <point x="379" y="-179"/>
      <point x="326" y="-179" type="curve" smooth="yes"/>
      <point x="287" y="-179"/>
      <point x="238" y="-171"/>
      <point x="238" y="-127" type="curve" smooth="yes"/>
      <point x="238" y="-70"/>
      <point x="317" y="-29"/>
      <point x="443" y="5" type="curve"/>
      <point x="180" y="44" type="line"/>
      <point x="84" y="-1"/>
      <point x="31" y="-92"/>
      <point x="31" y="-179" type="curve" smooth="yes"/>
      <point x="31" y="-312"/>
      <point x="154" y="-382"/>
      <point x="308" y="-382" type="curve" smooth="yes"/>
      <point x="398" y="-382"/>
      <point x="486" y="-358"/>
    </contour>
  </outline>
</glyph>
<glyph name="Delta" format="2">
  <advance width="1347"/>
  <unicode hex="0394"/>
  <outline>
    <contour>
      <point x="33" y="0" type="line"/>
      <point x="373" y="0" type="line"/>
      <point x="751" y="964" type="line"/>
      <point x="982" y="0" type="line"/>
      <point x="1319" y="0" type="line"/>
      <point x="986" y="1342" type="line"/>
      <point x="579" y="1342" type="line"/>
    </contour>
    <contour>
      <point x="201" y="0" type="line"/>
      <point x="1098" y="0" type="line"/>
      <point x="1118" y="282" type="line"/>
      <point x="221" y="282" type="line"/>
    </contour>
  </outline>
</glyph>
<glyph name="Omega" format="2">
  <advance width="1474"/>
  <unicode hex="03A9"/>
  <outline>
    <contour>
      <point x="633" y="64" type="curve"/>
      <point x="642" y="201" type="line"/>
      <point x="562" y="201"/>
      <point x="449" y="400"/>
      <point x="472" y="675" type="curve" smooth="yes"/>
      <point x="493" y="931"/>
      <point x="620" y="1085"/>
      <point x="807" y="1085" type="curve" smooth="yes"/>
      <point x="987" y="1085"/>
      <point x="1098" y="943"/>
      <point x="1084" y="677" type="curve" smooth="yes"/>
      <point x="1069" y="401"/>
      <point x="930" y="201"/>
      <point x="844" y="201" type="curve"/>
      <point x="835" y="64" type="line"/>
      <point x="1116" y="64"/>
      <point x="1376" y="248"/>
      <point x="1414" y="675" type="curve" smooth="yes"/>
      <point x="1453" y="1112"/>
      <point x="1218" y="1372"/>
      <point x="824" y="1372" type="curve" smooth="yes"/>
      <point x="441" y="1372"/>
      <point x="161" y="1126"/>
      <point x="142" y="675" type="curve" smooth="yes"/>
      <point x="124" y="242"/>
      <point x="364" y="64"/>
    </contour>
    <contour>
      <point x="95" y="0" type="line"/>
      <point x="628" y="0" type="line"/>
      <point x="642" y="201" type="line"/>
      <point x="109" y="201" type="line"/>
    </contour>
    <contour>
      <point x="830" y="0" type="line"/>
      <point x="1363" y="0" type="line"/>
      <point x="1377" y="201" type="line"/>
      <point x="844" y="201" type="line"/>
    </contour>
  </outline>
</glyph>
<glyph name="pi" format="2">
  <advance width="1321"/>
  <unicode hex="03C0"/>
  <outline>
    <contour>
      <point x="1152" y="0" type="curve"/>
      <point x="1261" y="290" type="line"/>
      <point x="1189" y="290"/>
      <point x="1134" y="339"/>
      <point x="1141" y="443" type="curve" smooth="yes"/>
      <point x="1179" y="987" type="line"/>
      <point x="857" y="987" type="line"/>
      <point x="819" y="443" type="line" smooth="yes"/>
      <point x="801" y="185"/>
      <point x="898" y="0"/>
    </contour>
    <contour>
      <point x="276" y="0" type="line"/>
      <point x="596" y="0" type="line"/>
      <point x="665" y="985" type="line"/>
      <point x="345" y="985" type="line"/>
    </contour>
    <contour>
      <point x="127" y="707" type="line"/>
      <point x="1362" y="707" type="line"/>
      <point x="1382" y="989" type="line"/>
      <point x="147" y="989" type="line"/>
    </contour>
  </outline>
</glyph>
<glyph name="endash" format="2">
  <advance width="1052"/>
  <unicode hex="2013"/>
  <outline>
    <contour>
      <point x="144" y="483" type="line"/>
      <point x="1000" y="483" type="line"/>
      <point x="1027" y="773" type="line"/>
      <point x="173" y="773" type="line"/>
    </contour>
  </outline>
</glyph>
<glyph name="emdash" format="2">
  <advance width="1473"/>
  <unicode hex="2014"/>
  <outline>
    <contour>
      <point x="144" y="483" type="line"/>
      <point x="1423" y="483" type="line"/>
      <point x="1453" y="773" type="line"/>
      <point x="173" y="773" type="line"/>
    </contour>
  </outline>
</glyph>
<glyph name="quoteleft" format="2">
  <advance width="610"/>
  <unicode hex="2018"/>
  <outline>
    <contour>
      <point x="354" y="664" type="curve" smooth="yes"/>
      <point x="469" y="664"/>
      <point x="559" y="748"/>
      <point x="569" y="858" type="curve" smooth="yes"/>
      <point x="580" y="952"/>
      <point x="511" y="1014"/>
      <point x="435" y="1033" type="curve"/>
      <point x="470" y="1124"/>
      <point x="564" y="1189"/>
      <point x="662" y="1234" type="curve"/>
      <point x="467" y="1366" type="line"/>
      <point x="302" y="1278"/>
      <point x="168" y="1112"/>
      <point x="154" y="950" type="curve" smooth="yes"/>
      <point x="137" y="792"/>
      <point x="212" y="664"/>
    </contour>
  </outline>
</glyph>
<glyph name="quoteright" format="2">
  <advance width="610"/>
  <unicode hex="2019"/>
  <outline>
    <contour>
      <point x="347" y="664" type="line"/>
      <point x="510" y="748"/>
      <point x="646" y="912"/>
      <point x="662" y="1081" type="curve"/>
      <point x="677" y="1234"/>
      <point x="602" y="1366"/>
      <point x="466" y="1366" type="curve" smooth="yes"/>
      <point x="347" y="1366"/>
      <point x="257" y="1285"/>
      <point x="247" y="1174" type="curve" smooth="yes"/>
      <point x="234" y="1077"/>
      <point x="294" y="1014"/>
      <point x="379" y="995" type="curve"/>
      <point x="344" y="909"/>
      <point x="254" y="839"/>
      <point x="156" y="790" type="curve"/>
    </contour>
  </outline>
</glyph>
<glyph name="dagger" format="2">
  <advance width="1200"/>
  <unicode hex="2020"/>
  <outline>
    <contour>
      <point x="375" y="-252" type="line"/>
      <point x="696" y="-252" type="line"/>
      <point x="956" y="1342" type="line"/>
      <point x="562" y="1342" type="line"/>
    </contour>
    <contour>
      <point x="230" y="758" type="line"/>
      <point x="675" y="738" type="line"/>
      <point x="1126" y="758" type="line"/>
      <point x="1158" y="987" type="line"/>
      <point x="712" y="1005" type="line"/>
      <point x="262" y="987" type="line"/>
    </contour>
  </outline>
</glyph>
<glyph name="daggerdbl" format="2">
  <advance width="1200"/>
  <unicode hex="2021"/>
  <outline>
    <contour>
      <point x="375" y="-252" type="line"/>
      <point x="696" y="-252" type="line"/>
      <point x="956" y="1342" type="line"/>
      <point x="562" y="1342" type="line"/>
    </contour>
    <contour>
      <point x="230" y="758" type="line"/>
      <point x="675" y="738" type="line"/>
      <point x="1126" y="758" type="line"/>
      <point x="1158" y="987" type="line"/>
      <point x="712" y="1005" type="line"/>
      <point x="262" y="987" type="line"/>
    </contour>
    <contour>
      <point x="150" y="342" type="line"/>
      <point x="595" y="322" type="line"/>
      <point x="1046" y="342" type="line"/>
      <point x="1078" y="571" type="line"/>
      <point x="632" y="589" type="line"/>
      <point x="182" y="571" type="line"/>
    </contour>
  </outline>
</glyph>
<glyph name="perthousand" format="2">
  <advance width="2058"/>
  <unicode hex="2030"/>
  <outline>
    <contour>
      <point x="500" y="1377" type="curve" smooth="yes"/>
      <point x="364" y="1377"/>
      <point x="226" y="1277"/>
      <point x="208" y="1058" type="curve" smooth="yes"/>
      <point x="186" y="835"/>
      <point x="302" y="732"/>
      <point x="441" y="732" type="curve" smooth="yes"/>
      <point x="585" y="732"/>
      <point x="716" y="835"/>
      <point x="739" y="1058" type="curve" smooth="yes"/>
      <point x="761" y="1277"/>
      <point x="648" y="1377"/>
    </contour>
    <contour>
      <point x="481" y="1174" type="curve" smooth="yes"/>
      <point x="516" y="1174"/>
      <point x="534" y="1151"/>
      <point x="526" y="1058" type="curve" smooth="yes"/>
      <point x="518" y="961"/>
      <point x="495" y="933"/>
      <point x="460" y="933" type="curve" smooth="yes"/>
      <point x="432" y="933"/>
      <point x="412" y="961"/>
      <point x="424" y="1058" type="curve" smooth="yes"/>
      <point x="432" y="1151"/>
      <point x="453" y="1174"/>
    </contour>
    <contour>
      <point x="176" y="0" type="line"/>
      <point x="476" y="0" type="line"/>
      <point x="1430" y="1346" type="line"/>
      <point x="1137" y="1346" type="line"/>
    </contour>
    <contour>
      <point x="1165" y="613" type="curve" smooth="yes"/>
      <point x="1019" y="613"/>
      <point x="888" y="511"/>
      <point x="865" y="295" type="curve" smooth="yes"/>
      <point x="843" y="67"/>
      <point x="958" y="-35"/>
      <point x="1105" y="-35" type="curve" smooth="yes"/>
      <point x="1246" y="-35"/>
      <point x="1378" y="67"/>
      <point x="1400" y="295" type="curve" smooth="yes"/>
      <point x="1418" y="511"/>
      <point x="1305" y="613"/>
    </contour>
    <contour>
      <point x="1142" y="411" type="curve" smooth="yes"/>
      <point x="1175" y="411"/>
      <point x="1197" y="384"/>
      <point x="1187" y="295" type="curve" smooth="yes"/>
      <point x="1177" y="197"/>
      <point x="1150" y="170"/>
      <point x="1121" y="170" type="curve" smooth="yes"/>
      <point x="1091" y="170"/>
      <point x="1075" y="197"/>
      <point x="1085" y="295" type="curve" smooth="yes"/>
      <point x="1090" y="384"/>
      <point x="1112" y="411"/>
    </contour>
    <contour>
      <point x="1765" y="613" type="curve" smooth="yes"/>
      <point x="1619" y="613"/>
      <point x="1488" y="511"/>
      <point x="1465" y="295" type="curve" smooth="yes"/>
      <point x="1441" y="67"/>
      <point x="1558" y="-35"/>
      <point x="1705" y="-35" type="curve" smooth="yes"/>
      <point x="1846" y="-35"/>
      <point x="1978" y="67"/>
      <point x="2000" y="295" type="curve" smooth="yes"/>
      <point x="2021" y="511"/>
      <point x="1905" y="613"/>
    </contour>
    <contour>
      <point x="1742" y="411" type="curve" smooth="yes"/>
      <point x="1775" y="411"/>
      <point x="1797" y="384"/>
      <point x="1787" y="295" type="curve" smooth="yes"/>
      <point x="1776" y="197"/>
      <point x="1750" y="170"/>
      <point x="1721" y="170" type="curve" smooth="yes"/>
      <point x="1691" y="170"/>
      <point x="1675" y="197"/>
      <point x="1685" y="295" type="curve" smooth="yes"/>
      <point x="1694" y="384"/>
      <point x="1712" y="411"/>
    </contour>
  </outline>
</glyph>
<glyph name="guilsinglleft" format="2">
  <advance width="774"/>
  <unicode hex="2039"/>
  <outline>
    <contour>
      <point x="489" y="116" type="line"/>
      <point x="715" y="283" type="line"/>
      <point x="435" y="584" type="line"/>
      <point x="425" y="506" type="line"/>
      <point x="789" y="807" type="line"/>
      <point x="611" y="984" type="line"/>
      <point x="132" y="550" type="line"/>
    </contour>
  </outline>
</glyph>
<glyph name="guilsinglright" format="2">
  <advance width="773"/>
  <unicode hex="203A"/>
  <outline>
    <contour>
      <point x="273" y="116" type="line"/>
      <point x="752" y="550" type="line"/>
      <point x="395" y="984" type="line"/>
      <point x="169" y="817" type="line"/>
      <point x="449" y="516" type="line"/>
      <point x="459" y="584" type="line"/>
      <point x="95" y="283" type="line"/>
    </contour>
  </outline>
</glyph>
<glyph name="rupee" format="2">
  <advance width="1138"/>
  <unicode hex="20A8"/>
  <outline>
    <contour>
      <point x="243" y="1173" type="line"/>
      <point x="384" y="1173" type="line" smooth="yes"/>
      <point x="535" y="1173"/>
      <point x="616" y="1102"/>
      <point x="632" y="1007" type="curve"/>
      <point x="225" y="1007" type="line"/>
      <point x="206" y="827" type="line"/>
      <point x="617" y="827" type="line"/>
      <point x="576" y="728"/>
      <point x="490" y="667"/>
      <point x="332" y="667" type="curve" smooth="yes"/>
      <point x="187" y="667" type="line"/>
      <point x="172" y="487" type="line"/>
      <point x="555" y="0" type="line"/>
      <point x="973" y="0" type="line"/>
      <point x="575" y="509" type="line"/>
      <point x="782" y="566"/>
      <point x="895" y="674"/>
      <point x="943" y="827" type="curve"/>
      <point x="1146" y="827" type="line"/>
      <point x="1162" y="1007" type="line"/>
      <point x="954" y="1007" type="line"/>
      <point x="939" y="1071"/>
      <point x="906" y="1128"/>
      <point x="857" y="1173" type="curve"/>
      <point x="1180" y="1173" type="line"/>
      <point x="1192" y="1346" type="line"/>
      <point x="258" y="1346" type="line"/>
    </contour>
  </outline>
</glyph>
<glyph name="euro" format="2">
  <advance width="1188"/>
  <unicode hex="20AC"/>
  <outline>
    <contour>
      <point x="610" y="-35" type="curve" smooth="yes"/>
      <point x="929" y="-35"/>
      <point x="1120" y="138"/>
      <point x="1153" y="452" type="curve"/>
      <point x="834" y="452" type="line"/>
      <point x="822" y="350"/>
      <point x="755" y="270"/>
      <point x="637" y="270" type="curve" smooth="yes"/>
      <point x="509" y="270"/>
      <point x="434" y="397"/>
      <point x="458" y="671" type="curve" smooth="yes"/>
      <point x="488" y="948"/>
      <point x="590" y="1077"/>
      <point x="715" y="1077" type="curve" smooth="yes"/>
      <point x="816" y="1077"/>
      <point x="859" y="994"/>
      <point x="873" y="882" type="curve"/>
      <point x="1190" y="942" type="line"/>
      <point x="1189" y="1198"/>
      <point x="1050" y="1377"/>
      <point x="742" y="1377" type="curve" smooth="yes"/>
      <point x="422" y="1377"/>
      <point x="186" y="1138"/>
      <point x="139" y="671" type="curve" smooth="yes"/>
      <point x="92" y="204"/>
      <point x="292" y="-35"/>
    </contour>
    <contour>
      <point x="0" y="437" type="line"/>
      <point x="751" y="437" type="line"/>
      <point x="768" y="617" type="line"/>
      <point x="18" y="617" type="line"/>
    </contour>
    <contour>
      <point x="31" y="683" type="line"/>
      <point x="781" y="683" type="line"/>
      <point x="793" y="856" type="line"/>
      <point x="46" y="856" type="line"/>
    </contour>
  </outline>
</glyph>
<glyph name="emptyset" format="2">
  <advance width="1200"/>
  <unicode hex="2205"/>
  <outline>
    <contour>
      <point x="577" y="87" type="curve" smooth="yes"/>
      <point x="838" y="87"/>
      <point x="1065" y="298"/>
      <point x="1084" y="562" type="curve" smooth="yes"/>
      <point x="1102" y="824"/>
      <point x="905" y="1036"/>
      <point x="643" y="1036" type="curve" smooth="yes"/>
      <point x="380" y="1036"/>
      <point x="153" y="824"/>
      <point x="135" y="562" type="curve" smooth="yes"/>
      <point x="116" y="299"/>
      <point x="314" y="87"/>
    </contour>
    <contour>
      <point x="590" y="275" type="curve" smooth="yes"/>
      <point x="432" y="275"/>
      <point x="312" y="404"/>
      <point x="323" y="562" type="curve" smooth="yes"/>
      <point x="334" y="719"/>
      <point x="472" y="848"/>
      <point x="630" y="848" type="curve" smooth="yes"/>
      <point x="787" y="848"/>
      <point x="907" y="719"/>
      <point x="896" y="562" type="curve" smooth="yes"/>
      <point x="885" y="404"/>
      <point x="747" y="275"/>
    </contour>
    <contour>
      <point x="1066" y="1090" type="line"/>
      <point x="50" y="141" type="line"/>
      <point x="152" y="32" type="line"/>
      <point x="1168" y="981" type="line"/>
    </contour>
  </outline>
</glyph>
<glyph name="product" format="2">
  <advance width="1200"/>
  <unicode hex="220F"/>
  <outline>
    <contour>
      <point x="-20" y="-478" type="line"/>
      <point x="300" y="-478" type="line"/>
      <point x="525" y="1132" type="line"/>
      <point x="443" y="1060" type="line"/>
      <point x="917" y="1060" type="line"/>
      <point x="855" y="1132" type="line"/>
      <point x="630" y="-478" type="line"/>
      <point x="950" y="-478" type="line"/>
      <point x="1204" y="1342" type="line"/>
      <point x="234" y="1342" type="line"/>
    </contour>
  </outline>
</glyph>
<glyph name="summation" format="2">
  <advance width="1200"/>
  <unicode hex="2211"/>
  <outline>
    <contour>
      <point x="586" y="432" type="line"/>
      <point x="936" y="432" type="line"/>
      <point x="474" y="1132" type="line"/>
      <point x="262" y="1060" type="line"/>
      <point x="1144" y="1060" type="line"/>
      <point x="1183" y="1342" type="line"/>
      <point x="213" y="1342" type="line"/>
      <point x="174" y="1060" type="line"/>
    </contour>
    <contour>
      <point x="586" y="432" type="line"/>
      <point x="-2" y="-196" type="line"/>
      <point x="-41" y="-478" type="line"/>
      <point x="929" y="-478" type="line"/>
      <point x="968" y="-196" type="line"/>
      <point x="86" y="-196" type="line"/>
      <point x="278" y="-268" type="line"/>
      <point x="936" y="432" type="line"/>
    </contour>
  </outline>
</glyph>
<glyph name="minus" format="2">
  <advance width="1018"/>
  <unicode hex="2212"/>
  <outline>
    <contour>
      <point x="119" y="629" type="line"/>
      <point x="85" y="336" type="line"/>
      <point x="939" y="336" type="line"/>
      <point x="975" y="629" type="line"/>
    </contour>
  </outline>
</glyph>
<glyph name="radical" format="2">
  <advance width="1200"/>
  <unicode hex="221A"/>
  <outline>
    <contour>
      <point x="396" y="1" type="line"/>
      <point x="641" y="1" type="line"/>
      <point x="1381" y="1685" type="line"/>
      <point x="1126" y="1685" type="line"/>
      <point x="485" y="182" type="line"/>
      <point x="630" y="182" type="line"/>
      <point x="414" y="677" type="line"/>
      <point x="-8" y="437" type="line"/>
      <point x="69" y="254" type="line"/>
      <point x="285" y="372" type="line"/>
      <point x="179" y="506" type="line"/>
    </contour>
  </outline>
</glyph>
<glyph name="infinity" format="2">
  <advance width="1200"/>
  <unicode hex="221E"/>
  <outline>
    <contour>
      <point x="322" y="193" type="curve" smooth="yes"/>
      <point x="429" y="193"/>
      <point x="575" y="248"/>
      <point x="701" y="426" type="curve"/>
      <point x="624" y="426" type="line"/>
      <point x="698" y="248"/>
      <point x="828" y="193"/>
      <point x="935" y="193" type="curve" smooth="yes"/>
      <point x="1080" y="193"/>
      <point x="1281" y="293"/>
      <point x="1313" y="519" type="curve" smooth="yes"/>
      <point x="1345" y="745"/>
      <point x="1172" y="845"/>
      <point x="1027" y="845" type="curve" smooth="yes"/>
      <point x="920" y="845"/>
      <point x="774" y="790"/>
      <point x="648" y="612" type="curve"/>
      <point x="725" y="612" type="line"/>
      <point x="651" y="790"/>
      <point x="521" y="845"/>
      <point x="414" y="845" type="curve" smooth="yes"/>
      <point x="269" y="845"/>
      <point x="68" y="745"/>
      <point x="36" y="519" type="curve" smooth="yes"/>
      <point x="4" y="293"/>
      <point x="177" y="193"/>
    </contour>
    <contour>
      <point x="406" y="402" type="curve" smooth="yes"/>
      <point x="360" y="402"/>
      <point x="269" y="422"/>
      <point x="283" y="519" type="curve" smooth="yes"/>
      <point x="297" y="616"/>
      <point x="392" y="636"/>
      <point x="438" y="636" type="curve" smooth="yes"/>
      <point x="510" y="636"/>
      <point x="583" y="586"/>
      <point x="644" y="460" type="curve"/>
      <point x="660" y="578" type="line"/>
      <point x="565" y="452"/>
      <point x="478" y="402"/>
    </contour>
    <contour>
      <point x="911" y="402" type="curve" smooth="yes"/>
      <point x="839" y="402"/>
      <point x="766" y="452"/>
      <point x="705" y="578" type="curve"/>
      <point x="689" y="460" type="line"/>
      <point x="784" y="586"/>
      <point x="871" y="636"/>
      <point x="943" y="636" type="curve" smooth="yes"/>
      <point x="989" y="636"/>
      <point x="1080" y="616"/>
      <point x="1066" y="519" type="curve" smooth="yes"/>
      <point x="1052" y="422"/>
      <point x="957" y="402"/>
    </contour>
  </outline>
</glyph>
<glyph name="integral" format="2">
  <advance width="1200"/>
  <unicode hex="222B"/>
  <outline>
    <contour>
      <point x="135" y="-457" type="line"/>
      <point x="210" y="-468"/>
      <point x="296" y="-480"/>
      <point x="370" y="-480" type="curve" smooth="yes"/>
      <point x="535" y="-480"/>
      <point x="699" y="-384"/>
      <point x="715" y="-153" type="curve" smooth="yes"/>
      <point x="800" y="1065" type="line" smooth="yes"/>
      <point x="804" y="1119"/>
      <point x="838" y="1147"/>
      <point x="886" y="1147" type="curve" smooth="yes"/>
      <point x="918" y="1147"/>
      <point x="950" y="1139"/>
      <point x="976" y="1132" type="curve"/>
      <point x="1056" y="1375" type="line"/>
      <point x="981" y="1386"/>
      <point x="895" y="1398"/>
      <point x="821" y="1398" type="curve" smooth="yes"/>
      <point x="656" y="1398"/>
      <point x="492" y="1302"/>
      <point x="476" y="1071" type="curve" smooth="yes"/>
      <point x="391" y="-147" type="line" smooth="yes"/>
      <point x="387" y="-201"/>
      <point x="353" y="-229"/>
      <point x="305" y="-229" type="curve" smooth="yes"/>
      <point x="273" y="-229"/>
      <point x="241" y="-221"/>
      <point x="215" y="-214" type="curve"/>
    </contour>
  </outline>
</glyph>
<glyph name="approxequal" format="2">
  <advance width="1146"/>
  <unicode hex="2248"/>
  <anchor x="487" y="524" name="_above"/>
  <outline>
    <contour>
      <point x="295" y="536" type="line"/>
      <point x="352" y="645"/>
      <point x="378" y="663"/>
      <point x="437" y="663" type="curve" smooth="yes"/>
      <point x="457" y="663"/>
      <point x="472" y="661"/>
      <point x="578" y="618" type="curve" smooth="yes"/>
      <point x="662" y="584"/>
      <point x="701" y="565"/>
      <point x="763" y="565" type="curve" smooth="yes"/>
      <point x="907" y="565"/>
      <point x="1020" y="668"/>
      <point x="1094" y="869" type="curve"/>
      <point x="943" y="985" type="line"/>
      <point x="911" y="912"/>
      <point x="872" y="875"/>
      <point x="816" y="875" type="curve" smooth="yes"/>
      <point x="774" y="875"/>
      <point x="727" y="895"/>
      <point x="661" y="924" type="curve" smooth="yes"/>
      <point x="582" y="958"/>
      <point x="525" y="981"/>
      <point x="461" y="981" type="curve" smooth="yes"/>
      <point x="302" y="981"/>
      <point x="219" y="842"/>
      <point x="153" y="631" type="curve"/>
    </contour>
    <contour>
      <point x="259" y="32" type="line"/>
      <point x="316" y="141"/>
      <point x="342" y="159"/>
      <point x="401" y="159" type="curve" smooth="yes"/>
      <point x="421" y="159"/>
      <point x="436" y="157"/>
      <point x="542" y="114" type="curve" smooth="yes"/>
      <point x="626" y="80"/>
      <point x="665" y="61"/>
      <point x="727" y="61" type="curve" smooth="yes"/>
      <point x="871" y="61"/>
      <point x="984" y="164"/>
      <point x="1058" y="365" type="curve"/>
      <point x="907" y="481" type="line"/>
      <point x="875" y="408"/>
      <point x="836" y="371"/>
      <point x="780" y="371" type="curve" smooth="yes"/>
      <point x="738" y="371"/>
      <point x="691" y="391"/>
      <point x="625" y="420" type="curve" smooth="yes"/>
      <point x="546" y="454"/>
      <point x="489" y="477"/>
      <point x="425" y="477" type="curve" smooth="yes"/>
      <point x="266" y="477"/>
      <point x="183" y="338"/>
      <point x="117" y="127" type="curve"/>
    </contour>
  </outline>
</glyph>
<glyph name="notequal" format="2">
  <advance width="948"/>
  <unicode hex="2260"/>
  <outline>
    <contour>
      <point x="150" y="459" type="line"/>
      <point x="121" y="169" type="line"/>
      <point x="842" y="169" type="line"/>
      <point x="871" y="459" type="line"/>
    </contour>
    <contour>
      <point x="195" y="876" type="line"/>
      <point x="170" y="593" type="line"/>
      <point x="891" y="593" type="line"/>
      <point x="916" y="876" type="line"/>
    </contour>
    <contour>
      <point x="259" y="89" type="line"/>
      <point x="559" y="89" type="line"/>
      <point x="770" y="1001" type="line"/>
      <point x="477" y="1001" type="line"/>
    </contour>
  </outline>
</glyph>
<glyph name="lessequal" format="2">
  <advance width="948"/>
  <unicode hex="2264"/>
  <outline>
    <contour>
      <point x="831" y="440" type="line"/>
      <point x="900" y="682" type="line"/>
      <point x="302" y="791" type="line"/>
      <point x="350" y="718" type="line"/>
      <point x="921" y="935" type="line"/>
      <point x="787" y="1156" type="line"/>
      <point x="185" y="891" type="line"/>
      <point x="173" y="577" type="line"/>
    </contour>
    <component base="minus" xOffset="-10" yOffset="-336"/>
  </outline>
</glyph>
<glyph name="greaterequal" format="2">
  <advance width="1007"/>
  <unicode hex="2265"/>
  <outline>
    <contour>
      <point x="254" y="424" type="line"/>
      <point x="897" y="602" type="line"/>
      <point x="926" y="916" type="line"/>
      <point x="253" y="1187" type="line"/>
      <point x="182" y="902" type="line"/>
      <point x="765" y="742" type="line"/>
      <point x="765" y="818" type="line"/>
      <point x="172" y="672" type="line"/>
    </contour>
    <component base="minus" xOffset="20" yOffset="-336"/>
  </outline>
</glyph>
<glyph name="lozenge" format="2">
  <advance width="1305"/>
  <unicode hex="25CA"/>
  <outline>
    <contour>
      <point x="137" y="671" type="line"/>
      <point x="513" y="-1" type="line"/>
      <point x="775" y="-1" type="line"/>
      <point x="1289" y="671" type="line"/>
      <point x="915" y="1342" type="line"/>
      <point x="653" y="1342" type="line"/>
    </contour>
    <contour>
      <point x="443" y="611" type="line"/>
      <point x="796" y="1071" type="line"/>
      <point x="717" y="1071" type="line"/>
      <point x="970" y="611" type="line"/>
      <point x="982" y="731" type="line"/>
      <point x="633" y="270" type="line"/>
      <point x="712" y="270" type="line"/>
      <point x="455" y="731" type="line"/>
    </contour>
  </outline>
</glyph>
<glyph name=".notdef" format="2">
  <advance width="1031"/>
  <outline>
    <contour>
      <point x="10" y="1645" type="line"/>
      <point x="10" y="5" type="line"/>
      <point x="1021" y="5" type="line"/>
      <point x="1021" y="1645" type="line"/>
    </contour>
    <contour>
      <point x="0" y="1655" type="line"/>
      <point x="1031" y="1655" type="line"/>
      <point x="1031" y="-5" type="line"/>
      <point x="0" y="-5" type="line"/>
    </contour>
    <contour>
      <point x="1021" y="5" type="curve"/>
      <point x="700" y="331"/>
      <point x="380" y="1038"/>
      <point x="10" y="1645" type="curve"/>
      <point x="450" y="1067"/>
      <point x="719" y="341"/>
    </contour>
    <contour>
      <point x="10" y="5" type="curve"/>
      <point x="312" y="341"/>
      <point x="581" y="1067"/>
      <point x="1021" y="1645" type="curve"/>
      <point x="651" y="1038"/>
      <point x="331" y="331"/>
    </contour>
  </outline>
</glyph>
<glyph name="asterisk.tf" format="2">
  <advance width="729"/>
  <outline>
    <contour>
      <point x="300" y="811" type="line"/>
      <point x="446" y="1006" type="line"/>
      <point x="548" y="811" type="line"/>
      <point x="696" y="942" type="line"/>
      <point x="565" y="1089" type="line"/>
      <point x="755" y="1156" type="line"/>
      <point x="701" y="1339" type="line"/>
      <point x="530" y="1240" type="line"/>
      <point x="576" y="1456" type="line"/>
      <point x="394" y="1456" type="line"/>
      <point x="398" y="1240" type="line"/>
      <point x="240" y="1330" type="line"/>
      <point x="160" y="1152" type="line"/>
      <point x="340" y="1085" type="line"/>
      <point x="182" y="942" type="line"/>
    </contour>
  </outline>
</glyph>
<glyph name="backslash.tf" format="2">
  <advance width="1200"/>
  <outline>
    <contour>
      <point x="764" y="-177" type="line"/>
      <point x="1071" y="-177" type="line"/>
      <point x="434" y="1528" type="line"/>
      <point x="129" y="1528" type="line"/>
    </contour>
  </outline>
</glyph>
<glyph name="colon.tf" format="2">
  <advance width="535"/>
  <outline>
    <contour>
      <point x="271" y="552" type="curve" smooth="yes"/>
      <point x="389" y="552"/>
      <point x="485" y="638"/>
      <point x="495" y="766" type="curve" smooth="yes"/>
      <point x="504" y="883"/>
      <point x="427" y="977"/>
      <point x="313" y="977" type="curve" smooth="yes"/>
      <point x="199" y="977"/>
      <point x="101" y="886"/>
      <point x="94" y="766" type="curve" smooth="yes"/>
      <point x="86" y="637"/>
      <point x="152" y="552"/>
    </contour>
    <contour>
      <point x="213" y="-20" type="curve" smooth="yes"/>
      <point x="331" y="-20"/>
      <point x="427" y="65"/>
      <point x="437" y="193" type="curve" smooth="yes"/>
      <point x="446" y="310"/>
      <point x="369" y="404"/>
      <point x="255" y="404" type="curve" smooth="yes"/>
      <point x="139" y="404"/>
      <point x="43" y="311"/>
      <point x="36" y="193" type="curve" smooth="yes"/>
      <point x="28" y="64"/>
      <point x="95" y="-20"/>
    </contour>
  </outline>
</glyph>
<glyph name="comma.tf" format="2">
  <advance width="550"/>
  <outline>
    <contour>
      <point x="149" y="-337" type="line"/>
      <point x="310" y="-253"/>
      <point x="431" y="-80"/>
      <point x="448" y="82" type="curve" smooth="yes"/>
      <point x="464" y="236"/>
      <point x="392" y="366"/>
      <point x="247" y="366" type="curve" smooth="yes"/>
      <point x="132" y="366"/>
      <point x="38" y="280"/>
      <point x="27" y="171" type="curve" smooth="yes"/>
      <point x="17" y="76"/>
      <point x="84" y="14"/>
      <point x="160" y="-10" type="curve"/>
      <point x="129" y="-94"/>
      <point x="37" y="-159"/>
      <point x="-56" y="-213" type="curve"/>
    </contour>
  </outline>
</glyph>
<glyph name="eight.propold" format="2">
  <advance width="1234"/>
  <outline>
    <contour>
      <point x="614" y="-35" type="curve" smooth="yes"/>
      <point x="959" y="-35"/>
      <point x="1172" y="145"/>
      <point x="1192" y="380" type="curve" smooth="yes"/>
      <point x="1208" y="564"/>
      <point x="1115" y="648"/>
      <point x="944" y="727" type="curve" smooth="yes"/>
      <point x="962" y="721" type="line"/>
      <point x="1102" y="754"/>
      <point x="1198" y="855"/>
      <point x="1210" y="978" type="curve" smooth="yes"/>
      <point x="1230" y="1214"/>
      <point x="1022" y="1377"/>
      <point x="744" y="1377" type="curve" smooth="yes"/>
      <point x="428" y="1377"/>
      <point x="238" y="1246"/>
      <point x="211" y="999" type="curve" smooth="yes"/>
      <point x="199" y="821"/>
      <point x="307" y="706"/>
      <point x="420" y="640" type="curve"/>
      <point x="258" y="623"/>
      <point x="126" y="526"/>
      <point x="108" y="367" type="curve" smooth="yes"/>
      <point x="88" y="139"/>
      <point x="273" y="-35"/>
    </contour>
    <contour>
      <point x="639" y="272" type="curve" smooth="yes"/>
      <point x="513" y="272"/>
      <point x="414" y="323"/>
      <point x="419" y="403" type="curve" smooth="yes"/>
      <point x="424" y="478"/>
      <point x="530" y="534"/>
      <point x="656" y="530" type="curve"/>
      <point x="816" y="459" type="line"/>
      <point x="866" y="432"/>
      <point x="885" y="400"/>
      <point x="886" y="358" type="curve" smooth="yes"/>
      <point x="880" y="308"/>
      <point x="815" y="272"/>
    </contour>
    <contour>
      <point x="713" y="834" type="curve"/>
      <point x="582" y="894" type="line" smooth="yes"/>
      <point x="528" y="918"/>
      <point x="507" y="947"/>
      <point x="515" y="984" type="curve" smooth="yes"/>
      <point x="514" y="1044"/>
      <point x="612" y="1079"/>
      <point x="719" y="1079" type="curve" smooth="yes"/>
      <point x="831" y="1079"/>
      <point x="905" y="1035"/>
      <point x="902" y="953" type="curve" smooth="yes"/>
      <point x="892" y="880"/>
      <point x="800" y="833"/>
    </contour>
  </outline>
</glyph>
<glyph name="eight.tf" format="2">
  <advance width="1200"/>
  <outline>
    <contour>
      <point x="554" y="-35" type="curve" smooth="yes"/>
      <point x="899" y="-35"/>
      <point x="1112" y="145"/>
      <point x="1132" y="380" type="curve" smooth="yes"/>
      <point x="1148" y="564"/>
      <point x="1043" y="627"/>
      <point x="883" y="727" type="curve" smooth="yes"/>
      <point x="902" y="721" type="line"/>
      <point x="1042" y="754"/>
      <point x="1138" y="855"/>
      <point x="1150" y="978" type="curve" smooth="yes"/>
      <point x="1173" y="1214"/>
      <point x="962" y="1377"/>
      <point x="684" y="1377" type="curve" smooth="yes"/>
      <point x="367" y="1377"/>
      <point x="175" y="1246"/>
      <point x="150" y="999" type="curve" smooth="yes"/>
      <point x="132" y="821"/>
      <point x="246" y="706"/>
      <point x="360" y="640" type="curve"/>
      <point x="197" y="623"/>
      <point x="66" y="526"/>
      <point x="47" y="367" type="curve" smooth="yes"/>
      <point x="21" y="139"/>
      <point x="213" y="-35"/>
    </contour>
    <contour>
      <point x="578" y="272" type="curve" smooth="yes"/>
      <point x="453" y="272"/>
      <point x="353" y="323"/>
      <point x="358" y="403" type="curve" smooth="yes"/>
      <point x="364" y="478"/>
      <point x="469" y="534"/>
      <point x="595" y="530" type="curve"/>
      <point x="756" y="459" type="line" smooth="yes"/>
      <point x="806" y="432"/>
      <point x="824" y="400"/>
      <point x="825" y="358" type="curve" smooth="yes"/>
      <point x="824" y="308"/>
      <point x="755" y="272"/>
    </contour>
    <contour>
      <point x="652" y="834" type="curve"/>
      <point x="522" y="894" type="line" smooth="yes"/>
      <point x="468" y="918"/>
      <point x="446" y="947"/>
      <point x="454" y="984" type="curve" smooth="yes"/>
      <point x="453" y="1044"/>
      <point x="551" y="1079"/>
      <point x="659" y="1079" type="curve" smooth="yes"/>
      <point x="771" y="1079"/>
      <point x="844" y="1035"/>
      <point x="841" y="953" type="curve" smooth="yes"/>
      <point x="838" y="880"/>
      <point x="740" y="833"/>
    </contour>
  </outline>
</glyph>
<glyph name="exclam.tf" format="2">
  <advance width="535"/>
  <outline>
    <contour>
      <point x="137" y="541" type="line"/>
      <point x="398" y="541" type="line"/>
      <point x="516" y="1417" type="line"/>
      <point x="183" y="1417" type="line"/>
    </contour>
    <contour>
      <point x="216" y="-18" type="curve" smooth="yes"/>
      <point x="331" y="-18"/>
      <point x="425" y="67"/>
      <point x="440" y="195" type="curve" smooth="yes"/>
      <point x="454" y="311"/>
      <point x="373" y="406"/>
      <point x="254" y="406" type="curve" smooth="yes"/>
      <point x="138" y="406"/>
      <point x="46" y="315"/>
      <point x="36" y="195" type="curve" smooth="yes"/>
      <point x="25" y="68"/>
      <point x="99" y="-18"/>
    </contour>
  </outline>
</glyph>
<glyph name="five.propold" format="2">
  <advance width="1103"/>
  <outline>
    <contour>
      <point x="519" y="-250" type="curve" smooth="yes"/>
      <point x="789" y="-250"/>
      <point x="1029" y="-42"/>
      <point x="1058" y="252" type="curve" smooth="yes"/>
      <point x="1082" y="521"/>
      <point x="933" y="713"/>
      <point x="683" y="713" type="curve" smooth="yes"/>
      <point x="609" y="713"/>
      <point x="564" y="699"/>
      <point x="506" y="680" type="curve"/>
      <point x="555" y="944" type="line"/>
      <point x="1052" y="944" type="line"/>
      <point x="1081" y="1248" type="line"/>
      <point x="318" y="1248" type="line"/>
      <point x="175" y="447" type="line"/>
      <point x="555" y="447" type="line" smooth="yes"/>
      <point x="712" y="447"/>
      <point x="774" y="378"/>
      <point x="764" y="252" type="curve" smooth="yes"/>
      <point x="752" y="126"/>
      <point x="658" y="52"/>
      <point x="555" y="52" type="curve" smooth="yes"/>
      <point x="452" y="52"/>
      <point x="390" y="108"/>
      <point x="404" y="225" type="curve"/>
      <point x="104" y="225" type="line"/>
      <point x="80" y="-83"/>
      <point x="284" y="-250"/>
    </contour>
  </outline>
</glyph>
<glyph name="five.tf" format="2">
  <advance width="1200"/>
  <outline>
    <contour>
      <point x="546" y="-35" type="curve" smooth="yes"/>
      <point x="836" y="-35"/>
      <point x="1059" y="188"/>
      <point x="1078" y="461" type="curve" smooth="yes"/>
      <point x="1093" y="707"/>
      <point x="956" y="854"/>
      <point x="723" y="854" type="curve" smooth="yes"/>
      <point x="671" y="854"/>
      <point x="588" y="846"/>
      <point x="525" y="836" type="curve"/>
      <point x="565" y="1044" type="line"/>
      <point x="1063" y="1044" type="line"/>
      <point x="1091" y="1346" type="line"/>
      <point x="304" y="1346" type="line"/>
      <point x="179" y="611" type="line"/>
      <point x="597" y="611" type="line" smooth="yes"/>
      <point x="731" y="611"/>
      <point x="786" y="560"/>
      <point x="776" y="461" type="curve" smooth="yes"/>
      <point x="767" y="354"/>
      <point x="672" y="272"/>
      <point x="574" y="272" type="curve" smooth="yes"/>
      <point x="473" y="272"/>
      <point x="411" y="319"/>
      <point x="421" y="434" type="curve"/>
      <point x="111" y="434" type="line"/>
      <point x="94" y="139"/>
      <point x="249" y="-35"/>
    </contour>
  </outline>
</glyph>
<glyph name="four.propold" format="2">
  <advance width="1149"/>
  <outline>
    <contour>
      <point x="597" y="-223" type="line"/>
      <point x="904" y="-223" type="line"/>
      <point x="932" y="86" type="line"/>
      <point x="1141" y="86" type="line"/>
      <point x="1166" y="374" type="line"/>
      <point x="957" y="374" type="line"/>
      <point x="1035" y="1215" type="line"/>
      <point x="738" y="1215" type="line"/>
      <point x="51" y="331" type="line"/>
      <point x="30" y="86" type="line"/>
      <point x="629" y="86" type="line"/>
    </contour>
    <contour>
      <point x="374" y="331" type="line"/>
      <point x="710" y="751" type="line"/>
      <point x="667" y="331" type="line"/>
    </contour>
  </outline>
</glyph>
<glyph name="four.tf" format="2">
  <advance width="1200"/>
  <outline>
    <contour>
      <point x="739" y="1355" type="line"/>
      <point x="56" y="514" type="line"/>
      <point x="35" y="269" type="line"/>
      <point x="637" y="269" type="line"/>
      <point x="611" y="0" type="line"/>
      <point x="907" y="0" type="line"/>
      <point x="935" y="269" type="line"/>
      <point x="1145" y="269" type="line"/>
      <point x="1167" y="550" type="line"/>
      <point x="958" y="550" type="line"/>
      <point x="1032" y="1355" type="line"/>
    </contour>
    <contour>
      <point x="713" y="885" type="line"/>
      <point x="679" y="514" type="line"/>
      <point x="407" y="514" type="line"/>
    </contour>
  </outline>
</glyph>
<glyph name="nine.propold" format="2">
  <advance width="1158"/>
  <outline>
    <contour>
      <point x="524" y="-250" type="curve" smooth="yes"/>
      <point x="822" y="-250"/>
      <point x="1088" y="21"/>
      <point x="1128" y="498" type="curve" smooth="yes"/>
      <point x="1162" y="836"/>
      <point x="1035" y="1243"/>
      <point x="652" y="1243" type="curve" smooth="yes"/>
      <point x="378" y="1243"/>
      <point x="166" y="1046"/>
      <point x="138" y="783" type="curve" smooth="yes"/>
      <point x="116" y="526"/>
      <point x="281" y="343"/>
      <point x="518" y="343" type="curve" smooth="yes"/>
      <point x="660" y="343"/>
      <point x="798" y="436"/>
      <point x="849" y="632" type="curve"/>
      <point x="847" y="602"/>
      <point x="847" y="556"/>
      <point x="836" y="511" type="curve"/>
      <point x="818" y="236"/>
      <point x="717" y="52"/>
      <point x="553" y="52" type="curve" smooth="yes"/>
      <point x="469" y="52"/>
      <point x="428" y="93"/>
      <point x="422" y="179" type="curve"/>
      <point x="114" y="179" type="line"/>
      <point x="87" y="-84"/>
      <point x="271" y="-250"/>
    </contour>
    <contour>
      <point x="590" y="602" type="curve" smooth="yes"/>
      <point x="486" y="602"/>
      <point x="437" y="684"/>
      <point x="446" y="783" type="curve" smooth="yes"/>
      <point x="454" y="871"/>
      <point x="516" y="958"/>
      <point x="623" y="958" type="curve" smooth="yes"/>
      <point x="730" y="958"/>
      <point x="780" y="871"/>
      <point x="771" y="783" type="curve" smooth="yes"/>
      <point x="766" y="678"/>
      <point x="699" y="602"/>
    </contour>
  </outline>
</glyph>
<glyph name="nine.tf" format="2">
  <advance width="1200"/>
  <outline>
    <contour>
      <point x="516" y="-35" type="curve" smooth="yes"/>
      <point x="862" y="-35"/>
      <point x="1067" y="254"/>
      <point x="1112" y="692" type="curve" smooth="yes"/>
      <point x="1152" y="1095"/>
      <point x="925" y="1377"/>
      <point x="621" y="1377" type="curve" smooth="yes"/>
      <point x="347" y="1377"/>
      <point x="139" y="1201"/>
      <point x="113" y="934" type="curve" smooth="yes"/>
      <point x="86" y="682"/>
      <point x="226" y="504"/>
      <point x="457" y="504" type="curve" smooth="yes"/>
      <point x="605" y="504"/>
      <point x="751" y="566"/>
      <point x="822" y="791" type="curve"/>
      <point x="824" y="764"/>
      <point x="822" y="735"/>
      <point x="818" y="709" type="curve" smooth="yes"/>
      <point x="783" y="448"/>
      <point x="711" y="272"/>
      <point x="534" y="272" type="curve" smooth="yes"/>
      <point x="458" y="272"/>
      <point x="392" y="317"/>
      <point x="395" y="398" type="curve"/>
      <point x="86" y="398" type="line"/>
      <point x="60" y="135"/>
      <point x="259" y="-35"/>
    </contour>
    <contour>
      <point x="567" y="766" type="curve" smooth="yes"/>
      <point x="482" y="766"/>
      <point x="407" y="820"/>
      <point x="419" y="921" type="curve" smooth="yes"/>
      <point x="431" y="1014"/>
      <point x="512" y="1077"/>
      <point x="594" y="1077" type="curve" smooth="yes"/>
      <point x="677" y="1077"/>
      <point x="755" y="1014"/>
      <point x="746" y="921" type="curve" smooth="yes"/>
      <point x="734" y="821"/>
      <point x="647" y="766"/>
    </contour>
  </outline>
</glyph>
<glyph name="numbersign.tf" format="2">
  <advance width="1200"/>
  <outline>
    <contour>
      <point x="101" y="71" type="line"/>
      <point x="383" y="71" type="line"/>
      <point x="430" y="314" type="line"/>
      <point x="636" y="314" type="line"/>
      <point x="588" y="71" type="line"/>
      <point x="868" y="71" type="line"/>
      <point x="915" y="314" type="line"/>
      <point x="1068" y="314" type="line"/>
      <point x="1111" y="523" type="line"/>
      <point x="953" y="523" type="line"/>
      <point x="1003" y="791" type="line"/>
      <point x="1152" y="791" type="line"/>
      <point x="1203" y="1007" type="line"/>
      <point x="1045" y="1007" type="line"/>
      <point x="1093" y="1243" type="line"/>
      <point x="811" y="1243" type="line"/>
      <point x="764" y="1007" type="line"/>
      <point x="558" y="1007" type="line"/>
      <point x="606" y="1243" type="line"/>
      <point x="326" y="1243" type="line"/>
      <point x="279" y="1007" type="line"/>
      <point x="132" y="1007" type="line"/>
      <point x="90" y="791" type="line"/>
      <point x="237" y="791" type="line"/>
      <point x="186" y="523" type="line"/>
      <point x="37" y="523" type="line"/>
      <point x="4" y="314" type="line"/>
      <point x="149" y="314" type="line"/>
    </contour>
    <contour>
      <point x="466" y="523" type="line"/>
      <point x="516" y="791" type="line"/>
      <point x="722" y="791" type="line"/>
      <point x="671" y="523" type="line"/>
    </contour>
  </outline>
</glyph>
<glyph name="one.propold" format="2">
  <advance width="697"/>
  <outline>
    <contour>
      <point x="243" y="0" type="line"/>
      <point x="546" y="0" type="line"/>
      <point x="664" y="1214" type="line"/>
      <point x="448" y="1214" type="line"/>
      <point x="334" y="1139"/>
      <point x="252" y="1113"/>
      <point x="162" y="1106" type="curve"/>
      <point x="135" y="789" type="line"/>
      <point x="195" y="791"/>
      <point x="254" y="797"/>
      <point x="325" y="822" type="curve"/>
    </contour>
  </outline>
</glyph>
<glyph name="one.tf" format="2">
  <advance width="1200"/>
  <outline>
    <contour>
      <point x="241" y="0" type="line"/>
      <point x="1073" y="0" type="line"/>
      <point x="1102" y="300" type="line"/>
      <point x="837" y="300" type="line"/>
      <point x="937" y="1359" type="line"/>
      <point x="722" y="1359" type="line"/>
      <point x="616" y="1288"/>
      <point x="532" y="1263"/>
      <point x="442" y="1248" type="curve"/>
      <point x="415" y="938" type="line"/>
      <point x="475" y="933"/>
      <point x="532" y="939"/>
      <point x="598" y="964" type="curve"/>
      <point x="534" y="300" type="line"/>
      <point x="271" y="300" type="line"/>
    </contour>
  </outline>
</glyph>
<glyph name="period.tf" format="2">
  <advance width="463"/>
  <outline>
    <contour>
      <point x="168" y="-18" type="curve" smooth="yes"/>
      <point x="288" y="-18"/>
      <point x="384" y="72"/>
      <point x="392" y="195" type="curve" smooth="yes"/>
      <point x="400" y="315"/>
      <point x="322" y="406"/>
      <point x="208" y="406" type="curve" smooth="yes"/>
      <point x="102" y="406"/>
      <point x="2" y="327"/>
      <point x="-10" y="195" type="curve" smooth="yes"/>
      <point x="-20" y="78"/>
      <point x="44" y="-18"/>
    </contour>
  </outline>
</glyph>
<glyph name="plus.tf" format="2">
  <advance width="1200"/>
  <outline>
    <contour>
      <point x="405" y="0" type="line"/>
      <point x="701" y="0" type="line"/>
      <point x="734" y="345" type="line"/>
      <point x="1058" y="345" type="line"/>
      <point x="1088" y="637" type="line"/>
      <point x="762" y="637" type="line"/>
      <point x="793" y="982" type="line"/>
      <point x="499" y="982" type="line"/>
      <point x="466" y="637" type="line"/>
      <point x="138" y="637" type="line"/>
      <point x="108" y="345" type="line"/>
      <point x="438" y="345" type="line"/>
    </contour>
  </outline>
</glyph>
<glyph name="question.tf" format="2">
  <advance width="1000"/>
  <outline>
    <contour>
      <point x="342" y="467" type="line"/>
      <point x="645" y="467" type="line"/>
      <point x="644" y="501" type="line" smooth="yes"/>
      <point x="642" y="568"/>
      <point x="692" y="616"/>
      <point x="807" y="675" type="curve" smooth="yes"/>
      <point x="949" y="748"/>
      <point x="1011" y="844"/>
      <point x="1021" y="976" type="curve" smooth="yes"/>
      <point x="1038" y="1206"/>
      <point x="884" y="1377"/>
      <point x="601" y="1377" type="curve" smooth="yes"/>
      <point x="314" y="1377"/>
      <point x="142" y="1201"/>
      <point x="107" y="926" type="curve"/>
      <point x="409" y="926" type="line"/>
      <point x="413" y="1012"/>
      <point x="483" y="1079"/>
      <point x="588" y="1079" type="curve" smooth="yes"/>
      <point x="654" y="1079"/>
      <point x="702" y="1035"/>
      <point x="691" y="976" type="curve" smooth="yes"/>
      <point x="682" y="929"/>
      <point x="676" y="892"/>
      <point x="556" y="837" type="curve" smooth="yes"/>
      <point x="432" y="780"/>
      <point x="371" y="711"/>
      <point x="350" y="535" type="curve" smooth="yes"/>
    </contour>
    <contour>
      <point x="454" y="-35" type="curve" smooth="yes"/>
      <point x="574" y="-35"/>
      <point x="669" y="57"/>
      <point x="676" y="179" type="curve" smooth="yes"/>
      <point x="683" y="302"/>
      <point x="609" y="384"/>
      <point x="497" y="384" type="curve" smooth="yes"/>
      <point x="378" y="384"/>
      <point x="286" y="299"/>
      <point x="274" y="177" type="curve" smooth="yes"/>
      <point x="262" y="57"/>
      <point x="334" y="-35"/>
    </contour>
  </outline>
</glyph>
<glyph name="semicolon.tf" format="2">
  <advance width="535"/>
  <outline>
    <contour>
      <point x="143" y="-337" type="line"/>
      <point x="304" y="-252"/>
      <point x="425" y="-81"/>
      <point x="441" y="82" type="curve" smooth="yes"/>
      <point x="456" y="236"/>
      <point x="385" y="366"/>
      <point x="241" y="366" type="curve" smooth="yes"/>
      <point x="125" y="366"/>
      <point x="32" y="279"/>
      <point x="21" y="171" type="curve" smooth="yes"/>
      <point x="11" y="76"/>
      <point x="77" y="14"/>
      <point x="153" y="-10" type="curve"/>
      <point x="123" y="-94"/>
      <point x="32" y="-159"/>
      <point x="-63" y="-213" type="curve"/>
    </contour>
    <contour>
      <point x="277" y="552" type="curve" smooth="yes"/>
      <point x="395" y="552"/>
      <point x="491" y="638"/>
      <point x="501" y="766" type="curve" smooth="yes"/>
      <point x="510" y="884"/>
      <point x="432" y="977"/>
      <point x="319" y="977" type="curve" smooth="yes"/>
      <point x="205" y="977"/>
      <point x="107" y="886"/>
      <point x="100" y="766" type="curve" smooth="yes"/>
      <point x="93" y="638"/>
      <point x="159" y="552"/>
    </contour>
  </outline>
</glyph>
<glyph name="seven.propold" format="2">
  <advance width="956"/>
  <outline>
    <contour>
      <point x="159" y="1243" type="line"/>
      <point x="134" y="958" type="line"/>
      <point x="714" y="958" type="line"/>
      <point x="1" y="-222" type="line"/>
      <point x="364" y="-222" type="line"/>
      <point x="1014" y="955" type="line"/>
      <point x="1044" y="1243" type="line"/>
    </contour>
  </outline>
</glyph>
<glyph name="seven.tf" format="2">
  <advance width="1200"/>
  <outline>
    <contour>
      <point x="102" y="0" type="line"/>
      <point x="501" y="0" type="line"/>
      <point x="1070" y="1024" type="line"/>
      <point x="1102" y="1346" type="line"/>
      <point x="222" y="1346" type="line"/>
      <point x="190" y="1027" type="line"/>
      <point x="720" y="1027" type="line"/>
    </contour>
  </outline>
</glyph>
<glyph name="six.propold" format="2">
  <advance width="1164"/>
  <outline>
    <contour>
      <point x="626" y="-33" type="curve" smooth="yes"/>
      <point x="900" y="-33"/>
      <point x="1110" y="145"/>
      <point x="1134" y="408" type="curve" smooth="yes"/>
      <point x="1158" y="660"/>
      <point x="1027" y="842"/>
      <point x="788" y="842" type="curve" smooth="yes"/>
      <point x="638" y="842"/>
      <point x="491" y="778"/>
      <point x="432" y="558" type="curve"/>
      <point x="451" y="874"/>
      <point x="554" y="1079"/>
      <point x="738" y="1079" type="curve" smooth="yes"/>
      <point x="814" y="1079"/>
      <point x="855" y="1029"/>
      <point x="854" y="944" type="curve"/>
      <point x="1169" y="944" type="line"/>
      <point x="1193" y="1208"/>
      <point x="1018" y="1377"/>
      <point x="752" y="1377" type="curve" smooth="yes"/>
      <point x="436" y="1377"/>
      <point x="179" y="1129"/>
      <point x="135" y="650" type="curve" smooth="yes"/>
      <point x="94" y="248"/>
      <point x="306" y="-33"/>
    </contour>
    <contour>
      <point x="653" y="272" type="curve" smooth="yes"/>
      <point x="561" y="272"/>
      <point x="493" y="335"/>
      <point x="503" y="423" type="curve" smooth="yes"/>
      <point x="510" y="528"/>
      <point x="594" y="583"/>
      <point x="679" y="583" type="curve" smooth="yes"/>
      <point x="767" y="583"/>
      <point x="837" y="524"/>
      <point x="827" y="423" type="curve" smooth="yes"/>
      <point x="818" y="335"/>
      <point x="738" y="272"/>
    </contour>
  </outline>
</glyph>
<glyph name="six.tf" format="2">
  <advance width="1200"/>
  <outline>
    <contour>
      <point x="580" y="-33" type="curve" smooth="yes"/>
      <point x="853" y="-33"/>
      <point x="1063" y="145"/>
      <point x="1087" y="408" type="curve" smooth="yes"/>
      <point x="1112" y="660"/>
      <point x="980" y="842"/>
      <point x="741" y="842" type="curve" smooth="yes"/>
      <point x="592" y="842"/>
      <point x="445" y="778"/>
      <point x="385" y="558" type="curve"/>
      <point x="404" y="874"/>
      <point x="508" y="1079"/>
      <point x="692" y="1079" type="curve" smooth="yes"/>
      <point x="768" y="1079"/>
      <point x="809" y="1029"/>
      <point x="808" y="944" type="curve"/>
      <point x="1123" y="944" type="line"/>
      <point x="1146" y="1208"/>
      <point x="971" y="1377"/>
      <point x="706" y="1377" type="curve" smooth="yes"/>
      <point x="390" y="1377"/>
      <point x="133" y="1129"/>
      <point x="88" y="650" type="curve" smooth="yes"/>
      <point x="50" y="248"/>
      <point x="259" y="-33"/>
    </contour>
    <contour>
      <point x="607" y="272" type="curve" smooth="yes"/>
      <point x="514" y="272"/>
      <point x="447" y="335"/>
      <point x="457" y="423" type="curve" smooth="yes"/>
      <point x="469" y="528"/>
      <point x="547" y="583"/>
      <point x="633" y="583" type="curve"/>
      <point x="633" y="583" type="line" smooth="yes"/>
      <point x="720" y="583"/>
      <point x="791" y="524"/>
      <point x="781" y="423" type="curve" smooth="yes"/>
      <point x="771" y="335"/>
      <point x="692" y="272"/>
    </contour>
  </outline>
</glyph>
<glyph name="slash.tf" format="2">
  <advance width="1200"/>
  <outline>
    <contour>
      <point x="129" y="-181" type="line"/>
      <point x="434" y="-181" type="line"/>
      <point x="1071" y="1523" type="line"/>
      <point x="764" y="1523" type="line"/>
    </contour>
  </outline>
</glyph>
<glyph name="three.propold" format="2">
  <advance width="1113"/>
  <outline>
    <contour>
      <point x="499" y="-250" type="curve" smooth="yes"/>
      <point x="789" y="-250"/>
      <point x="999" y="-57"/>
      <point x="1023" y="192" type="curve" smooth="yes"/>
      <point x="1039" y="358"/>
      <point x="981" y="492"/>
      <point x="844" y="565" type="curve"/>
      <point x="967" y="624"/>
      <point x="1038" y="727"/>
      <point x="1055" y="869" type="curve" smooth="yes"/>
      <point x="1077" y="1076"/>
      <point x="926" y="1243"/>
      <point x="638" y="1243" type="curve" smooth="yes"/>
      <point x="350" y="1243"/>
      <point x="162" y="1124"/>
      <point x="110" y="815" type="curve"/>
      <point x="427" y="815" type="line"/>
      <point x="439" y="897"/>
      <point x="515" y="970"/>
      <point x="615" y="970" type="curve" smooth="yes"/>
      <point x="706" y="970"/>
      <point x="760" y="909"/>
      <point x="759" y="826" type="curve" smooth="yes"/>
      <point x="747" y="732"/>
      <point x="682" y="662"/>
      <point x="589" y="662" type="curve" smooth="yes"/>
      <point x="440" y="662" type="line"/>
      <point x="413" y="404" type="line"/>
      <point x="545" y="404" type="line" smooth="yes"/>
      <point x="652" y="404"/>
      <point x="742" y="338"/>
      <point x="730" y="224" type="curve" smooth="yes"/>
      <point x="720" y="111"/>
      <point x="636" y="27"/>
      <point x="526" y="27" type="curve" smooth="yes"/>
      <point x="423" y="27"/>
      <point x="341" y="76"/>
      <point x="338" y="207" type="curve"/>
      <point x="35" y="207" type="line"/>
      <point x="9" y="-114"/>
      <point x="240" y="-250"/>
    </contour>
  </outline>
</glyph>
